[
  {
    "name": "D7",
    "midi": 98,
    "time": 4.4230725,
    "velocity": 0.7874015748031497,
    "duration": 0.09615375000000004
  },
  {
    "name": "E7",
    "midi": 100,
    "time": 4.61538,
    "velocity": 0.7874015748031497,
    "duration": 0.09374990625000024
  },
  {
    "name": "D#7",
    "midi": 99,
    "time": 4.71153375,
    "velocity": 0.7874015748031497,
    "duration": 0.09374990625000024
  },
  {
    "name": "D7",
    "midi": 98,
    "time": 4.8076875,
    "velocity": 0.7874015748031497,
    "duration": 0.092948625
  },
  {
    "name": "D#7",
    "midi": 99,
    "time": 4.90384125,
    "velocity": 0.7874015748031497,
    "duration": 0.092948625
  },
  {
    "name": "B6",
    "midi": 95,
    "time": 4.999995,
    "velocity": 0.7874015748031497,
    "duration": 0.092948625
  },
  {
    "name": "D#7",
    "midi": 99,
    "time": 5.09614875,
    "velocity": 0.7874015748031497,
    "duration": 0.092948625
  },
  {
    "name": "D7",
    "midi": 98,
    "time": 5.1923025,
    "velocity": 0.7874015748031497,
    "duration": 0.092948625
  },
  {
    "name": "D#7",
    "midi": 99,
    "time": 5.28845625,
    "velocity": 0.7874015748031497,
    "duration": 0.09374990625000024
  },
  {
    "name": "E7",
    "midi": 100,
    "time": 5.38461,
    "velocity": 0.7874015748031497,
    "duration": 0.09374990625000024
  },
  {
    "name": "D#7",
    "midi": 99,
    "time": 5.48076375,
    "velocity": 0.7874015748031497,
    "duration": 0.092948625
  },
  {
    "name": "D7",
    "midi": 98,
    "time": 5.5769175,
    "velocity": 0.7874015748031497,
    "duration": 0.092948625
  },
  {
    "name": "D#7",
    "midi": 99,
    "time": 5.6730712500000005,
    "velocity": 0.7874015748031497,
    "duration": 0.092948625
  },
  {
    "name": "C#7",
    "midi": 97,
    "time": 5.7692250000000005,
    "velocity": 0.7874015748031497,
    "duration": 0.092948625
  },
  {
    "name": "D#7",
    "midi": 99,
    "time": 5.8653787500000005,
    "velocity": 0.7874015748031497,
    "duration": 0.092948625
  },
  {
    "name": "D7",
    "midi": 98,
    "time": 5.961532500000001,
    "velocity": 0.7874015748031497,
    "duration": 0.09214734374999978
  },
  {
    "name": "D#7",
    "midi": 99,
    "time": 6.057686250000001,
    "velocity": 0.7874015748031497,
    "duration": 0.092948625
  },
  {
    "name": "B6",
    "midi": 95,
    "time": 6.153840000000001,
    "velocity": 0.7874015748031497,
    "duration": 0.092948625
  },
  {
    "name": "D#7",
    "midi": 99,
    "time": 6.249993750000001,
    "velocity": 0.7874015748031497,
    "duration": 0.092948625
  },
  {
    "name": "D7",
    "midi": 98,
    "time": 6.346147500000001,
    "velocity": 0.7874015748031497,
    "duration": 0.092948625
  },
  {
    "name": "D#7",
    "midi": 99,
    "time": 6.442301250000001,
    "velocity": 0.7874015748031497,
    "duration": 0.092948625
  },
  {
    "name": "C#7",
    "midi": 97,
    "time": 6.538455000000001,
    "velocity": 0.7874015748031497,
    "duration": 0.092948625
  },
  {
    "name": "D#7",
    "midi": 99,
    "time": 6.634608750000001,
    "velocity": 0.7874015748031497,
    "duration": 0.09374990625000024
  },
  {
    "name": "D7",
    "midi": 98,
    "time": 6.730762500000001,
    "velocity": 0.7874015748031497,
    "duration": 0.09374990625000024
  },
  {
    "name": "D#7",
    "midi": 99,
    "time": 6.826916250000001,
    "velocity": 0.7874015748031497,
    "duration": 0.09374990625000024
  },
  {
    "name": "B6",
    "midi": 95,
    "time": 6.923070000000001,
    "velocity": 0.7874015748031497,
    "duration": 0.09374990625000024
  },
  {
    "name": "D#7",
    "midi": 99,
    "time": 7.019223750000001,
    "velocity": 0.7874015748031497,
    "duration": 0.09214734374999978
  },
  {
    "name": "D7",
    "midi": 98,
    "time": 7.115377500000001,
    "velocity": 0.7874015748031497,
    "duration": 0.092948625
  },
  {
    "name": "D#7",
    "midi": 99,
    "time": 7.211531250000001,
    "velocity": 0.7874015748031497,
    "duration": 0.092948625
  },
  {
    "name": "B6",
    "midi": 95,
    "time": 7.307685000000001,
    "velocity": 0.7874015748031497,
    "duration": 0.2884612500000001
  },
  {
    "name": "D7",
    "midi": 98,
    "time": 7.692300000000001,
    "velocity": 0.7874015748031497,
    "duration": 0.092948625
  },
  {
    "name": "C#7",
    "midi": 97,
    "time": 7.788453750000001,
    "velocity": 0.7874015748031497,
    "duration": 0.092948625
  },
  {
    "name": "C7",
    "midi": 96,
    "time": 7.884607500000001,
    "velocity": 0.7874015748031497,
    "duration": 0.092948625
  },
  {
    "name": "C#7",
    "midi": 97,
    "time": 7.980761250000001,
    "velocity": 0.7874015748031497,
    "duration": 0.09294862499999912
  },
  {
    "name": "C7",
    "midi": 96,
    "time": 8.076915,
    "velocity": 0.7874015748031497,
    "duration": 0.092948625
  },
  {
    "name": "B6",
    "midi": 95,
    "time": 8.173068749999999,
    "velocity": 0.7874015748031497,
    "duration": 0.092948625
  },
  {
    "name": "C7",
    "midi": 96,
    "time": 8.269222499999998,
    "velocity": 0.7874015748031497,
    "duration": 0.092948625
  },
  {
    "name": "B6",
    "midi": 95,
    "time": 8.365376249999997,
    "velocity": 0.7874015748031497,
    "duration": 0.092948625
  },
  {
    "name": "E7",
    "midi": 100,
    "time": 8.461529999999996,
    "velocity": 0.7874015748031497,
    "duration": 0.09214734374999978
  },
  {
    "name": "B6",
    "midi": 95,
    "time": 8.557683749999995,
    "velocity": 0.7874015748031497,
    "duration": 0.092948625
  },
  {
    "name": "E7",
    "midi": 100,
    "time": 8.653837499999995,
    "velocity": 0.7874015748031497,
    "duration": 0.092948625
  },
  {
    "name": "D#7",
    "midi": 99,
    "time": 8.749991249999994,
    "velocity": 0.7874015748031497,
    "duration": 0.092948625
  },
  {
    "name": "E7",
    "midi": 100,
    "time": 8.846144999999993,
    "velocity": 0.7874015748031497,
    "duration": 0.09214734374999978
  },
  {
    "name": "D#7",
    "midi": 99,
    "time": 8.942298749999992,
    "velocity": 0.7874015748031497,
    "duration": 0.09214734374999978
  },
  {
    "name": "D7",
    "midi": 98,
    "time": 9.038452499999991,
    "velocity": 0.7874015748031497,
    "duration": 0.092948625
  },
  {
    "name": "C#7",
    "midi": 97,
    "time": 9.13460624999999,
    "velocity": 0.7874015748031497,
    "duration": 0.092948625
  },
  {
    "name": "C7",
    "midi": 96,
    "time": 9.23075999999999,
    "velocity": 0.7874015748031497,
    "duration": 0.09374990625000024
  },
  {
    "name": "B6",
    "midi": 95,
    "time": 9.32691374999999,
    "velocity": 0.7874015748031497,
    "duration": 0.092948625
  },
  {
    "name": "E7",
    "midi": 100,
    "time": 9.42306749999999,
    "velocity": 0.7874015748031497,
    "duration": 0.092948625
  },
  {
    "name": "D#7",
    "midi": 99,
    "time": 9.519221249999989,
    "velocity": 0.7874015748031497,
    "duration": 0.092948625
  },
  {
    "name": "D7",
    "midi": 98,
    "time": 9.615374999999988,
    "velocity": 0.7874015748031497,
    "duration": 0.09374990625000024
  },
  {
    "name": "C#7",
    "midi": 97,
    "time": 9.711528749999989,
    "velocity": 0.7874015748031497,
    "duration": 0.092948625
  },
  {
    "name": "C7",
    "midi": 96,
    "time": 9.807682499999988,
    "velocity": 0.7874015748031497,
    "duration": 0.092948625
  },
  {
    "name": "B6",
    "midi": 95,
    "time": 9.903836249999987,
    "velocity": 0.7874015748031497,
    "duration": 0.092948625
  },
  {
    "name": "E7",
    "midi": 100,
    "time": 9.999989999999986,
    "velocity": 0.7874015748031497,
    "duration": 0.09374990625000024
  },
  {
    "name": "B6",
    "midi": 95,
    "time": 10.096143749999987,
    "velocity": 0.7874015748031497,
    "duration": 0.09374990625000024
  },
  {
    "name": "E7",
    "midi": 100,
    "time": 10.192297499999988,
    "velocity": 0.7874015748031497,
    "duration": 0.092948625
  },
  {
    "name": "D#7",
    "midi": 99,
    "time": 10.288451249999987,
    "velocity": 0.7874015748031497,
    "duration": 0.092948625
  },
  {
    "name": "D7",
    "midi": 98,
    "time": 10.384604999999986,
    "velocity": 0.7874015748031497,
    "duration": 0.2884612499999992
  },
  {
    "name": "D7",
    "midi": 98,
    "time": 10.769219999999985,
    "velocity": 0.7874015748031497,
    "duration": 0.092948625
  },
  {
    "name": "D#7",
    "midi": 99,
    "time": 10.865373749999984,
    "velocity": 0.7874015748031497,
    "duration": 0.092948625
  },
  {
    "name": "E7",
    "midi": 100,
    "time": 10.961527499999983,
    "velocity": 0.7874015748031497,
    "duration": 0.09374990625000024
  },
  {
    "name": "D#7",
    "midi": 99,
    "time": 11.057681249999984,
    "velocity": 0.7874015748031497,
    "duration": 0.092948625
  },
  {
    "name": "E7",
    "midi": 100,
    "time": 11.153834999999983,
    "velocity": 0.7874015748031497,
    "duration": 0.09374990625000024
  },
  {
    "name": "B6",
    "midi": 95,
    "time": 11.249988749999984,
    "velocity": 0.7874015748031497,
    "duration": 0.092948625
  },
  {
    "name": "C7",
    "midi": 96,
    "time": 11.346142499999983,
    "velocity": 0.7874015748031497,
    "duration": 0.09615374999999915
  },
  {
    "name": "B6",
    "midi": 95,
    "time": 11.538449999999981,
    "velocity": 0.7874015748031497,
    "duration": 0.092948625
  },
  {
    "name": "E7",
    "midi": 100,
    "time": 11.63460374999998,
    "velocity": 0.7874015748031497,
    "duration": 0.092948625
  },
  {
    "name": "D#7",
    "midi": 99,
    "time": 11.73075749999998,
    "velocity": 0.7874015748031497,
    "duration": 0.09374990625000024
  },
  {
    "name": "E7",
    "midi": 100,
    "time": 11.82691124999998,
    "velocity": 0.7874015748031497,
    "duration": 0.2884612499999992
  },
  {
    "name": "D7",
    "midi": 98,
    "time": 12.211526249999979,
    "velocity": 0.7874015748031497,
    "duration": 0.092948625
  },
  {
    "name": "D7",
    "midi": 98,
    "time": 12.307679999999978,
    "velocity": 0.7874015748031497,
    "duration": 0.092948625
  },
  {
    "name": "C#7",
    "midi": 97,
    "time": 12.403833749999977,
    "velocity": 0.7874015748031497,
    "duration": 0.38461500000000015
  },
  {
    "name": "C7",
    "midi": 96,
    "time": 12.884602499999977,
    "velocity": 0.7874015748031497,
    "duration": 0.092948625
  },
  {
    "name": "B6",
    "midi": 95,
    "time": 12.980756249999976,
    "velocity": 0.7874015748031497,
    "duration": 0.09374990625000024
  },
  {
    "name": "E7",
    "midi": 100,
    "time": 13.076909999999977,
    "velocity": 0.7874015748031497,
    "duration": 0.092948625
  },
  {
    "name": "B6",
    "midi": 95,
    "time": 13.173063749999976,
    "velocity": 0.7874015748031497,
    "duration": 0.092948625
  },
  {
    "name": "E7",
    "midi": 100,
    "time": 13.269217499999975,
    "velocity": 0.7874015748031497,
    "duration": 0.092948625
  },
  {
    "name": "D#7",
    "midi": 99,
    "time": 13.365371249999974,
    "velocity": 0.7874015748031497,
    "duration": 0.092948625
  },
  {
    "name": "B6",
    "midi": 95,
    "time": 13.461524999999973,
    "velocity": 0.7874015748031497,
    "duration": 0.09374990625000024
  },
  {
    "name": "E7",
    "midi": 100,
    "time": 13.557678749999974,
    "velocity": 0.7874015748031497,
    "duration": 0.092948625
  },
  {
    "name": "B6",
    "midi": 95,
    "time": 13.653832499999973,
    "velocity": 0.7874015748031497,
    "duration": 0.5769225000000002
  },
  {
    "name": "D7",
    "midi": 98,
    "time": 14.326908749999973,
    "velocity": 0.7874015748031497,
    "duration": 0.092948625
  },
  {
    "name": "D#7",
    "midi": 99,
    "time": 14.423062499999972,
    "velocity": 0.7874015748031497,
    "duration": 0.09214734374999978
  },
  {
    "name": "C#7",
    "midi": 97,
    "time": 14.519216249999971,
    "velocity": 0.7874015748031497,
    "duration": 0.09615374999999915
  },
  {
    "name": "C7",
    "midi": 96,
    "time": 14.71152374999997,
    "velocity": 0.7874015748031497,
    "duration": 0.09615374999999915
  },
  {
    "name": "B6",
    "midi": 95,
    "time": 14.951908124999969,
    "velocity": 0.7874015748031497,
    "duration": 0.09615374999999915
  },
  {
    "name": "C7",
    "midi": 96,
    "time": 15.192292499999969,
    "velocity": 0.7874015748031497,
    "duration": 0.09615374999999915
  },
  {
    "name": "G#8",
    "midi": 116,
    "time": 15.384599999999967,
    "velocity": 0.7874015748031497,
    "duration": 0.09615374999999915
  },
  {
    "name": "C#7",
    "midi": 97,
    "time": 15.384599999999967,
    "velocity": 0.7874015748031497,
    "duration": 1.1538450000000005
  },
  {
    "name": "D7",
    "midi": 98,
    "time": 16.730752499999966,
    "velocity": 0.7874015748031497,
    "duration": 0.09615374999999915
  },
  {
    "name": "E7",
    "midi": 100,
    "time": 16.923059999999964,
    "velocity": 0.7874015748031497,
    "duration": 0.09294862499999823
  },
  {
    "name": "D#7",
    "midi": 99,
    "time": 17.019213749999963,
    "velocity": 0.7874015748031497,
    "duration": 0.09294862499999823
  },
  {
    "name": "D7",
    "midi": 98,
    "time": 17.115367499999962,
    "velocity": 0.7874015748031497,
    "duration": 0.09294862499999823
  },
  {
    "name": "D#7",
    "midi": 99,
    "time": 17.21152124999996,
    "velocity": 0.7874015748031497,
    "duration": 0.09294862499999823
  },
  {
    "name": "B6",
    "midi": 95,
    "time": 17.30767499999996,
    "velocity": 0.7874015748031497,
    "duration": 0.09294862499999823
  },
  {
    "name": "D#7",
    "midi": 99,
    "time": 17.40382874999996,
    "velocity": 0.7874015748031497,
    "duration": 0.09214734374999978
  },
  {
    "name": "D7",
    "midi": 98,
    "time": 17.49998249999996,
    "velocity": 0.7874015748031497,
    "duration": 0.09214734374999978
  },
  {
    "name": "D#7",
    "midi": 99,
    "time": 17.596136249999958,
    "velocity": 0.7874015748031497,
    "duration": 0.09214734374999978
  },
  {
    "name": "E7",
    "midi": 100,
    "time": 17.692289999999957,
    "velocity": 0.7874015748031497,
    "duration": 0.09214734374999978
  },
  {
    "name": "D#7",
    "midi": 99,
    "time": 17.788443749999956,
    "velocity": 0.7874015748031497,
    "duration": 0.09214734374999978
  },
  {
    "name": "D7",
    "midi": 98,
    "time": 17.884597499999956,
    "velocity": 0.7874015748031497,
    "duration": 0.09214734374999978
  },
  {
    "name": "D#7",
    "midi": 99,
    "time": 17.980751249999955,
    "velocity": 0.7874015748031497,
    "duration": 0.09374990625000024
  },
  {
    "name": "C#7",
    "midi": 97,
    "time": 18.076904999999954,
    "velocity": 0.7874015748031497,
    "duration": 0.09374990625000024
  },
  {
    "name": "D#7",
    "midi": 99,
    "time": 18.173058749999953,
    "velocity": 0.7874015748031497,
    "duration": 0.09374990625000024
  },
  {
    "name": "D7",
    "midi": 98,
    "time": 18.269212499999952,
    "velocity": 0.7874015748031497,
    "duration": 0.09374990625000024
  },
  {
    "name": "D#7",
    "midi": 99,
    "time": 18.36536624999995,
    "velocity": 0.7874015748031497,
    "duration": 0.09374990625000024
  },
  {
    "name": "B6",
    "midi": 95,
    "time": 18.46151999999995,
    "velocity": 0.7874015748031497,
    "duration": 0.09374990625000024
  },
  {
    "name": "D#7",
    "midi": 99,
    "time": 18.55767374999995,
    "velocity": 0.7874015748031497,
    "duration": 0.09374990625000024
  },
  {
    "name": "D7",
    "midi": 98,
    "time": 18.65382749999995,
    "velocity": 0.7874015748031497,
    "duration": 0.09374990625000024
  },
  {
    "name": "D#7",
    "midi": 99,
    "time": 18.749981249999948,
    "velocity": 0.7874015748031497,
    "duration": 0.09294862499999823
  },
  {
    "name": "C#7",
    "midi": 97,
    "time": 18.846134999999947,
    "velocity": 0.7874015748031497,
    "duration": 0.09294862499999823
  },
  {
    "name": "D#7",
    "midi": 99,
    "time": 18.942288749999946,
    "velocity": 0.7874015748031497,
    "duration": 0.09294862499999823
  },
  {
    "name": "D7",
    "midi": 98,
    "time": 19.038442499999945,
    "velocity": 0.7874015748031497,
    "duration": 0.09294862499999823
  },
  {
    "name": "D#7",
    "midi": 99,
    "time": 19.134596249999944,
    "velocity": 0.7874015748031497,
    "duration": 0.09294862499999823
  },
  {
    "name": "B6",
    "midi": 95,
    "time": 19.230749999999944,
    "velocity": 0.7874015748031497,
    "duration": 0.09294862499999823
  },
  {
    "name": "D#7",
    "midi": 99,
    "time": 19.326903749999943,
    "velocity": 0.7874015748031497,
    "duration": 0.09294862499999823
  },
  {
    "name": "D7",
    "midi": 98,
    "time": 19.423057499999942,
    "velocity": 0.7874015748031497,
    "duration": 0.09294862499999823
  },
  {
    "name": "D#7",
    "midi": 99,
    "time": 19.51921124999994,
    "velocity": 0.7874015748031497,
    "duration": 0.09294862499999823
  },
  {
    "name": "B6",
    "midi": 95,
    "time": 19.61536499999994,
    "velocity": 0.7874015748031497,
    "duration": 0.288461250000001
  },
  {
    "name": "D7",
    "midi": 98,
    "time": 19.99997999999994,
    "velocity": 0.7874015748031497,
    "duration": 0.09294862499999823
  },
  {
    "name": "C#7",
    "midi": 97,
    "time": 20.09613374999994,
    "velocity": 0.7874015748031497,
    "duration": 0.09294862499999823
  },
  {
    "name": "C7",
    "midi": 96,
    "time": 20.19228749999994,
    "velocity": 0.7874015748031497,
    "duration": 0.09294862499999823
  },
  {
    "name": "C#7",
    "midi": 97,
    "time": 20.288441249999938,
    "velocity": 0.7874015748031497,
    "duration": 0.09294862499999823
  },
  {
    "name": "C7",
    "midi": 96,
    "time": 20.384594999999937,
    "velocity": 0.7874015748031497,
    "duration": 0.09294862499999823
  },
  {
    "name": "B6",
    "midi": 95,
    "time": 20.480748749999936,
    "velocity": 0.7874015748031497,
    "duration": 0.09294862499999823
  },
  {
    "name": "C7",
    "midi": 96,
    "time": 20.576902499999935,
    "velocity": 0.7874015748031497,
    "duration": 0.09294862499999823
  },
  {
    "name": "B6",
    "midi": 95,
    "time": 20.673056249999934,
    "velocity": 0.7874015748031497,
    "duration": 0.09294862499999823
  },
  {
    "name": "E7",
    "midi": 100,
    "time": 20.769209999999934,
    "velocity": 0.7874015748031497,
    "duration": 0.09214734374999978
  },
  {
    "name": "B6",
    "midi": 95,
    "time": 20.865363749999933,
    "velocity": 0.7874015748031497,
    "duration": 0.09214734374999978
  },
  {
    "name": "E7",
    "midi": 100,
    "time": 20.961517499999932,
    "velocity": 0.7874015748031497,
    "duration": 0.09294862499999823
  },
  {
    "name": "D#7",
    "midi": 99,
    "time": 21.05767124999993,
    "velocity": 0.7874015748031497,
    "duration": 0.09374990625000024
  },
  {
    "name": "E7",
    "midi": 100,
    "time": 21.15382499999993,
    "velocity": 0.7874015748031497,
    "duration": 0.09294862499999823
  },
  {
    "name": "D#7",
    "midi": 99,
    "time": 21.24997874999993,
    "velocity": 0.7874015748031497,
    "duration": 0.09214734374999978
  },
  {
    "name": "D7",
    "midi": 98,
    "time": 21.34613249999993,
    "velocity": 0.7874015748031497,
    "duration": 0.09214734374999978
  },
  {
    "name": "C#7",
    "midi": 97,
    "time": 21.442286249999928,
    "velocity": 0.7874015748031497,
    "duration": 0.09294862499999823
  },
  {
    "name": "C7",
    "midi": 96,
    "time": 21.538439999999927,
    "velocity": 0.7874015748031497,
    "duration": 0.09294862499999823
  },
  {
    "name": "B6",
    "midi": 95,
    "time": 21.634593749999926,
    "velocity": 0.7874015748031497,
    "duration": 0.09294862499999823
  },
  {
    "name": "E7",
    "midi": 100,
    "time": 21.730747499999925,
    "velocity": 0.7874015748031497,
    "duration": 0.09374990625000024
  },
  {
    "name": "D#7",
    "midi": 99,
    "time": 21.826901249999924,
    "velocity": 0.7874015748031497,
    "duration": 0.09374990625000024
  },
  {
    "name": "D7",
    "midi": 98,
    "time": 21.923054999999923,
    "velocity": 0.7874015748031497,
    "duration": 0.09294862499999823
  },
  {
    "name": "C#7",
    "midi": 97,
    "time": 22.019208749999923,
    "velocity": 0.7874015748031497,
    "duration": 0.09294862499999823
  },
  {
    "name": "C7",
    "midi": 96,
    "time": 22.11536249999992,
    "velocity": 0.7874015748031497,
    "duration": 0.09294862499999823
  },
  {
    "name": "B6",
    "midi": 95,
    "time": 22.21151624999992,
    "velocity": 0.7874015748031497,
    "duration": 0.09294862499999823
  },
  {
    "name": "E7",
    "midi": 100,
    "time": 22.30766999999992,
    "velocity": 0.7874015748031497,
    "duration": 0.09374990625000024
  },
  {
    "name": "B6",
    "midi": 95,
    "time": 22.40382374999992,
    "velocity": 0.7874015748031497,
    "duration": 0.09294862499999823
  },
  {
    "name": "E7",
    "midi": 100,
    "time": 22.49997749999992,
    "velocity": 0.7874015748031497,
    "duration": 0.09214734374999978
  },
  {
    "name": "D#7",
    "midi": 99,
    "time": 22.596131249999917,
    "velocity": 0.7874015748031497,
    "duration": 0.09294862499999823
  },
  {
    "name": "E7",
    "midi": 100,
    "time": 22.692284999999917,
    "velocity": 0.7874015748031497,
    "duration": 0.09294862499999823
  },
  {
    "name": "D7",
    "midi": 98,
    "time": 22.788438749999916,
    "velocity": 0.7874015748031497,
    "duration": 0.1923074999999983
  },
  {
    "name": "D#7",
    "midi": 99,
    "time": 23.076899999999913,
    "velocity": 0.7874015748031497,
    "duration": 0.09294862499999823
  },
  {
    "name": "E7",
    "midi": 100,
    "time": 23.173053749999912,
    "velocity": 0.7874015748031497,
    "duration": 0.09294862499999823
  },
  {
    "name": "B6",
    "midi": 95,
    "time": 23.26920749999991,
    "velocity": 0.7874015748031497,
    "duration": 0.09374990625000024
  },
  {
    "name": "D#7",
    "midi": 99,
    "time": 23.36536124999991,
    "velocity": 0.7874015748031497,
    "duration": 0.09294862499999823
  },
  {
    "name": "E7",
    "midi": 100,
    "time": 23.46151499999991,
    "velocity": 0.7874015748031497,
    "duration": 0.09374990625000024
  },
  {
    "name": "B6",
    "midi": 95,
    "time": 23.55766874999991,
    "velocity": 0.7874015748031497,
    "duration": 0.09294862499999823
  },
  {
    "name": "C7",
    "midi": 96,
    "time": 23.653822499999908,
    "velocity": 0.7874015748031497,
    "duration": 0.09374990625000024
  },
  {
    "name": "B6",
    "midi": 95,
    "time": 23.749976249999907,
    "velocity": 0.7874015748031497,
    "duration": 0.09294862499999823
  },
  {
    "name": "E7",
    "midi": 100,
    "time": 23.846129999999906,
    "velocity": 0.7874015748031497,
    "duration": 0.09294862499999823
  },
  {
    "name": "D#7",
    "midi": 99,
    "time": 23.942283749999905,
    "velocity": 0.7874015748031497,
    "duration": 0.09294862499999823
  },
  {
    "name": "D7",
    "midi": 98,
    "time": 24.038437499999905,
    "velocity": 0.7874015748031497,
    "duration": 0.09294862499999823
  },
  {
    "name": "E7",
    "midi": 100,
    "time": 24.134591249999904,
    "velocity": 0.7874015748031497,
    "duration": 0.1923074999999983
  },
  {
    "name": "D#7",
    "midi": 99,
    "time": 24.4230524999999,
    "velocity": 0.7874015748031497,
    "duration": 0.09294862499999823
  },
  {
    "name": "C#7",
    "midi": 97,
    "time": 24.5192062499999,
    "velocity": 0.7874015748031497,
    "duration": 0.1923074999999983
  },
  {
    "name": "C7",
    "midi": 96,
    "time": 24.807667499999898,
    "velocity": 0.7874015748031497,
    "duration": 0.09374990625000024
  },
  {
    "name": "B6",
    "midi": 95,
    "time": 24.903821249999897,
    "velocity": 0.7874015748031497,
    "duration": 0.09374990625000024
  },
  {
    "name": "C7",
    "midi": 96,
    "time": 24.999974999999896,
    "velocity": 0.7874015748031497,
    "duration": 0.09294862499999823
  },
  {
    "name": "B6",
    "midi": 95,
    "time": 25.096128749999895,
    "velocity": 0.7874015748031497,
    "duration": 0.09294862499999823
  },
  {
    "name": "D#7",
    "midi": 99,
    "time": 25.192282499999894,
    "velocity": 0.7874015748031497,
    "duration": 0.09294862499999823
  },
  {
    "name": "C#7",
    "midi": 97,
    "time": 25.288436249999894,
    "velocity": 0.7874015748031497,
    "duration": 0.09294862499999823
  },
  {
    "name": "C7",
    "midi": 96,
    "time": 25.384589999999893,
    "velocity": 0.7874015748031497,
    "duration": 0.09294862499999823
  },
  {
    "name": "B6",
    "midi": 95,
    "time": 25.480743749999892,
    "velocity": 0.7874015748031497,
    "duration": 0.09294862499999823
  },
  {
    "name": "E7",
    "midi": 100,
    "time": 25.57689749999989,
    "velocity": 0.7874015748031497,
    "duration": 0.09294862499999823
  },
  {
    "name": "D#7",
    "midi": 99,
    "time": 25.67305124999989,
    "velocity": 0.7874015748031497,
    "duration": 0.38461500000000015
  },
  {
    "name": "D#7",
    "midi": 99,
    "time": 26.15381999999989,
    "velocity": 0.7874015748031497,
    "duration": 0.09615374999999915
  },
  {
    "name": "B6",
    "midi": 95,
    "time": 26.41022999999989,
    "velocity": 0.7874015748031497,
    "duration": 0.09615374999999915
  },
  {
    "name": "C7",
    "midi": 96,
    "time": 26.666639999999887,
    "velocity": 0.7874015748031497,
    "duration": 0.09615374999999915
  },
  {
    "name": "C#7",
    "midi": 97,
    "time": 26.923049999999886,
    "velocity": 0.7874015748031497,
    "duration": 0.09615374999999915
  },
  {
    "name": "C7",
    "midi": 96,
    "time": 27.115357499999885,
    "velocity": 0.7874015748031497,
    "duration": 0.09615374999999915
  },
  {
    "name": "B6",
    "midi": 95,
    "time": 27.307664999999883,
    "velocity": 0.7874015748031497,
    "duration": 0.09294862499999823
  },
  {
    "name": "C7",
    "midi": 96,
    "time": 27.403818749999882,
    "velocity": 0.7874015748031497,
    "duration": 0.09294862499999823
  },
  {
    "name": "B6",
    "midi": 95,
    "time": 27.49997249999988,
    "velocity": 0.7874015748031497,
    "duration": 0.09214734374999978
  },
  {
    "name": "E7",
    "midi": 100,
    "time": 27.59612624999988,
    "velocity": 0.7874015748031497,
    "duration": 0.09294862499999823
  },
  {
    "name": "B6",
    "midi": 95,
    "time": 27.69227999999988,
    "velocity": 0.7874015748031497,
    "duration": 1.4423062500000015
  },
  {
    "name": "C7",
    "midi": 96,
    "time": 29.23073999999988,
    "velocity": 0.7874015748031497,
    "duration": 0.09214734374999978
  },
  {
    "name": "B6",
    "midi": 95,
    "time": 29.32689374999988,
    "velocity": 0.7874015748031497,
    "duration": 0.09294862499999823
  },
  {
    "name": "E7",
    "midi": 100,
    "time": 29.42304749999988,
    "velocity": 0.7874015748031497,
    "duration": 0.09294862499999823
  },
  {
    "name": "B6",
    "midi": 95,
    "time": 29.519201249999877,
    "velocity": 0.7874015748031497,
    "duration": 0.09374990625000024
  },
  {
    "name": "C7",
    "midi": 96,
    "time": 29.615354999999877,
    "velocity": 0.7874015748031497,
    "duration": 0.09214734374999978
  },
  {
    "name": "B6",
    "midi": 95,
    "time": 29.711508749999876,
    "velocity": 0.7874015748031497,
    "duration": 0.09294862499999823
  },
  {
    "name": "C#7",
    "midi": 97,
    "time": 29.807662499999875,
    "velocity": 0.7874015748031497,
    "duration": 0.09294862499999823
  },
  {
    "name": "B6",
    "midi": 95,
    "time": 29.903816249999874,
    "velocity": 0.7874015748031497,
    "duration": 0.09374990625000024
  },
  {
    "name": "C7",
    "midi": 96,
    "time": 29.999969999999873,
    "velocity": 0.7874015748031497,
    "duration": 0.09214734374999978
  },
  {
    "name": "B6",
    "midi": 95,
    "time": 30.096123749999872,
    "velocity": 0.7874015748031497,
    "duration": 0.09294862499999823
  },
  {
    "name": "E7",
    "midi": 100,
    "time": 30.19227749999987,
    "velocity": 0.7874015748031497,
    "duration": 0.09294862499999823
  },
  {
    "name": "B6",
    "midi": 95,
    "time": 30.28843124999987,
    "velocity": 0.7874015748031497,
    "duration": 0.09374990625000024
  },
  {
    "name": "C7",
    "midi": 96,
    "time": 30.38458499999987,
    "velocity": 0.7874015748031497,
    "duration": 0.09214734374999978
  },
  {
    "name": "B6",
    "midi": 95,
    "time": 30.48073874999987,
    "velocity": 0.7874015748031497,
    "duration": 0.09294862499999823
  },
  {
    "name": "E7",
    "midi": 100,
    "time": 30.576892499999868,
    "velocity": 0.7874015748031497,
    "duration": 0.09294862499999823
  },
  {
    "name": "D#7",
    "midi": 99,
    "time": 30.673046249999867,
    "velocity": 0.7874015748031497,
    "duration": 0.09374990625000024
  },
  {
    "name": "E7",
    "midi": 100,
    "time": 30.769199999999866,
    "velocity": 0.7874015748031497,
    "duration": 0.09214734374999978
  },
  {
    "name": "D#7",
    "midi": 99,
    "time": 30.865353749999866,
    "velocity": 0.7874015748031497,
    "duration": 0.09294862499999823
  },
  {
    "name": "D7",
    "midi": 98,
    "time": 30.961507499999865,
    "velocity": 0.7874015748031497,
    "duration": 0.09294862499999823
  },
  {
    "name": "D#7",
    "midi": 99,
    "time": 31.057661249999864,
    "velocity": 0.7874015748031497,
    "duration": 0.09374990625000024
  },
  {
    "name": "E7",
    "midi": 100,
    "time": 31.153814999999863,
    "velocity": 0.7874015748031497,
    "duration": 0.09214734374999978
  },
  {
    "name": "D#7",
    "midi": 99,
    "time": 31.249968749999862,
    "velocity": 0.7874015748031497,
    "duration": 0.09294862499999823
  },
  {
    "name": "B6",
    "midi": 95,
    "time": 31.34612249999986,
    "velocity": 0.7874015748031497,
    "duration": 0.09294862499999823
  },
  {
    "name": "D#7",
    "midi": 99,
    "time": 31.44227624999986,
    "velocity": 0.7874015748031497,
    "duration": 0.09374990625000024
  },
  {
    "name": "E7",
    "midi": 100,
    "time": 31.53842999999986,
    "velocity": 0.7874015748031497,
    "duration": 0.09214734374999978
  },
  {
    "name": "D#7",
    "midi": 99,
    "time": 31.63458374999986,
    "velocity": 0.7874015748031497,
    "duration": 0.09294862499999823
  },
  {
    "name": "D7",
    "midi": 98,
    "time": 31.730737499999858,
    "velocity": 0.7874015748031497,
    "duration": 0.09294862499999823
  },
  {
    "name": "D#7",
    "midi": 99,
    "time": 31.826891249999857,
    "velocity": 0.7874015748031497,
    "duration": 0.09374990625000024
  },
  {
    "name": "E7",
    "midi": 100,
    "time": 31.923044999999856,
    "velocity": 0.7874015748031497,
    "duration": 0.09214734375000333
  },
  {
    "name": "D#7",
    "midi": 99,
    "time": 32.01919874999986,
    "velocity": 0.7874015748031497,
    "duration": 0.09294862499999823
  },
  {
    "name": "D7",
    "midi": 98,
    "time": 32.11535249999986,
    "velocity": 0.7874015748031497,
    "duration": 0.09294862499999823
  },
  {
    "name": "D#7",
    "midi": 99,
    "time": 32.21150624999986,
    "velocity": 0.7874015748031497,
    "duration": 0.09374990624999668
  },
  {
    "name": "C#7",
    "midi": 97,
    "time": 32.307659999999856,
    "velocity": 0.7874015748031497,
    "duration": 0.09214734374999978
  },
  {
    "name": "C7",
    "midi": 96,
    "time": 32.403813749999856,
    "velocity": 0.7874015748031497,
    "duration": 0.09294862499999823
  },
  {
    "name": "B6",
    "midi": 95,
    "time": 32.499967499999855,
    "velocity": 0.7874015748031497,
    "duration": 0.09294862499999823
  },
  {
    "name": "E7",
    "midi": 100,
    "time": 32.596121249999854,
    "velocity": 0.7874015748031497,
    "duration": 0.09374990624999668
  },
  {
    "name": "C7",
    "midi": 96,
    "time": 32.69227499999985,
    "velocity": 0.7874015748031497,
    "duration": 0.09214734374999978
  },
  {
    "name": "B6",
    "midi": 95,
    "time": 32.78842874999985,
    "velocity": 0.7874015748031497,
    "duration": 0.09294862499999823
  },
  {
    "name": "C#7",
    "midi": 97,
    "time": 32.88458249999985,
    "velocity": 0.7874015748031497,
    "duration": 0.09294862499999823
  },
  {
    "name": "B6",
    "midi": 95,
    "time": 32.98073624999985,
    "velocity": 0.7874015748031497,
    "duration": 0.09374990624999668
  },
  {
    "name": "C7",
    "midi": 96,
    "time": 33.07688999999985,
    "velocity": 0.7874015748031497,
    "duration": 0.09214734374999978
  },
  {
    "name": "B6",
    "midi": 95,
    "time": 33.17304374999985,
    "velocity": 0.7874015748031497,
    "duration": 0.09294862499999823
  },
  {
    "name": "D#7",
    "midi": 99,
    "time": 33.26919749999985,
    "velocity": 0.7874015748031497,
    "duration": 0.09294862499999823
  },
  {
    "name": "D7",
    "midi": 98,
    "time": 33.36535124999985,
    "velocity": 0.7874015748031497,
    "duration": 0.09374990624999668
  },
  {
    "name": "E7",
    "midi": 100,
    "time": 33.461504999999846,
    "velocity": 0.7874015748031497,
    "duration": 0.09214734374999978
  },
  {
    "name": "D#7",
    "midi": 99,
    "time": 33.557658749999845,
    "velocity": 0.7874015748031497,
    "duration": 0.09294862499999823
  },
  {
    "name": "D7",
    "midi": 98,
    "time": 33.653812499999844,
    "velocity": 0.7874015748031497,
    "duration": 0.09294862499999823
  },
  {
    "name": "D#7",
    "midi": 99,
    "time": 33.749966249999844,
    "velocity": 0.7874015748031497,
    "duration": 0.09374990624999668
  },
  {
    "name": "D7",
    "midi": 98,
    "time": 33.84611999999984,
    "velocity": 0.7874015748031497,
    "duration": 0.09214734374999978
  },
  {
    "name": "D#7",
    "midi": 99,
    "time": 33.94227374999984,
    "velocity": 0.7874015748031497,
    "duration": 0.09294862499999823
  },
  {
    "name": "E7",
    "midi": 100,
    "time": 34.03842749999984,
    "velocity": 0.7874015748031497,
    "duration": 0.09294862499999823
  },
  {
    "name": "D7",
    "midi": 98,
    "time": 34.13458124999984,
    "velocity": 0.7874015748031497,
    "duration": 0.09374990624999668
  },
  {
    "name": "D#7",
    "midi": 99,
    "time": 34.23073499999984,
    "velocity": 0.7874015748031497,
    "duration": 0.28846124999999745
  },
  {
    "name": "G#8",
    "midi": 116,
    "time": 34.615349999999836,
    "velocity": 0.7874015748031497,
    "duration": 0.5769224999999949
  },
  {
    "name": "C#7",
    "midi": 97,
    "time": 34.615349999999836,
    "velocity": 0.7874015748031497,
    "duration": 0.09214734374999978
  },
  {
    "name": "C#7",
    "midi": 97,
    "time": 34.711503749999835,
    "velocity": 0.7874015748031497,
    "duration": 0.09294862499999823
  },
  {
    "name": "C7",
    "midi": 96,
    "time": 34.807657499999834,
    "velocity": 0.7874015748031497,
    "duration": 0.09294862499999823
  },
  {
    "name": "C#7",
    "midi": 97,
    "time": 34.90381124999983,
    "velocity": 0.7874015748031497,
    "duration": 0.3846149999999966
  },
  {
    "name": "C7",
    "midi": 96,
    "time": 35.38457999999983,
    "velocity": 0.7874015748031497,
    "duration": 0.09214734374999978
  },
  {
    "name": "B6",
    "midi": 95,
    "time": 35.48073374999983,
    "velocity": 0.7874015748031497,
    "duration": 0.09294862499999823
  },
  {
    "name": "E7",
    "midi": 100,
    "time": 35.57688749999983,
    "velocity": 0.7874015748031497,
    "duration": 0.09294862499999823
  },
  {
    "name": "B6",
    "midi": 95,
    "time": 35.67304124999983,
    "velocity": 0.7874015748031497,
    "duration": 0.09374990624999668
  },
  {
    "name": "C7",
    "midi": 96,
    "time": 35.769194999999826,
    "velocity": 0.7874015748031497,
    "duration": 0.09214734374999978
  },
  {
    "name": "B6",
    "midi": 95,
    "time": 35.865348749999825,
    "velocity": 0.7874015748031497,
    "duration": 0.09294862499999823
  },
  {
    "name": "C#7",
    "midi": 97,
    "time": 35.961502499999824,
    "velocity": 0.7874015748031497,
    "duration": 0.09294862499999823
  },
  {
    "name": "B6",
    "midi": 95,
    "time": 36.05765624999982,
    "velocity": 0.7874015748031497,
    "duration": 0.09374990624999668
  },
  {
    "name": "C7",
    "midi": 96,
    "time": 36.15380999999982,
    "velocity": 0.7874015748031497,
    "duration": 0.09214734374999978
  },
  {
    "name": "B6",
    "midi": 95,
    "time": 36.24996374999982,
    "velocity": 0.7874015748031497,
    "duration": 0.09294862499999823
  },
  {
    "name": "E7",
    "midi": 100,
    "time": 36.34611749999982,
    "velocity": 0.7874015748031497,
    "duration": 0.09294862499999823
  },
  {
    "name": "B6",
    "midi": 95,
    "time": 36.44227124999982,
    "velocity": 0.7874015748031497,
    "duration": 0.09374990624999668
  },
  {
    "name": "C7",
    "midi": 96,
    "time": 36.53842499999982,
    "velocity": 0.7874015748031497,
    "duration": 0.09214734374999978
  },
  {
    "name": "B6",
    "midi": 95,
    "time": 36.63457874999982,
    "velocity": 0.7874015748031497,
    "duration": 0.09294862499999823
  },
  {
    "name": "E7",
    "midi": 100,
    "time": 36.73073249999982,
    "velocity": 0.7874015748031497,
    "duration": 0.09294862499999823
  },
  {
    "name": "D#7",
    "midi": 99,
    "time": 36.826886249999816,
    "velocity": 0.7874015748031497,
    "duration": 0.09374990624999668
  },
  {
    "name": "E7",
    "midi": 100,
    "time": 36.923039999999816,
    "velocity": 0.7874015748031497,
    "duration": 0.09214734374999978
  },
  {
    "name": "D#7",
    "midi": 99,
    "time": 37.019193749999815,
    "velocity": 0.7874015748031497,
    "duration": 0.09294862499999823
  },
  {
    "name": "D7",
    "midi": 98,
    "time": 37.115347499999814,
    "velocity": 0.7874015748031497,
    "duration": 0.09294862499999823
  },
  {
    "name": "D#7",
    "midi": 99,
    "time": 37.21150124999981,
    "velocity": 0.7874015748031497,
    "duration": 0.09374990624999668
  },
  {
    "name": "E7",
    "midi": 100,
    "time": 37.30765499999981,
    "velocity": 0.7874015748031497,
    "duration": 0.09214734374999978
  },
  {
    "name": "D#7",
    "midi": 99,
    "time": 37.40380874999981,
    "velocity": 0.7874015748031497,
    "duration": 0.09294862499999823
  },
  {
    "name": "B6",
    "midi": 95,
    "time": 37.49996249999981,
    "velocity": 0.7874015748031497,
    "duration": 0.09294862499999823
  },
  {
    "name": "D#7",
    "midi": 99,
    "time": 37.59611624999981,
    "velocity": 0.7874015748031497,
    "duration": 0.09374990624999668
  },
  {
    "name": "E7",
    "midi": 100,
    "time": 37.69226999999981,
    "velocity": 0.7874015748031497,
    "duration": 0.09214734374999978
  },
  {
    "name": "D#7",
    "midi": 99,
    "time": 37.78842374999981,
    "velocity": 0.7874015748031497,
    "duration": 0.09294862499999823
  },
  {
    "name": "D7",
    "midi": 98,
    "time": 37.88457749999981,
    "velocity": 0.7874015748031497,
    "duration": 0.09294862499999823
  },
  {
    "name": "D#7",
    "midi": 99,
    "time": 37.980731249999806,
    "velocity": 0.7874015748031497,
    "duration": 0.09374990624999668
  },
  {
    "name": "E7",
    "midi": 100,
    "time": 38.076884999999805,
    "velocity": 0.7874015748031497,
    "duration": 0.09294862499999823
  },
  {
    "name": "D#7",
    "midi": 99,
    "time": 38.173038749999805,
    "velocity": 0.7874015748031497,
    "duration": 0.09294862499999823
  },
  {
    "name": "D7",
    "midi": 98,
    "time": 38.269192499999804,
    "velocity": 0.7874015748031497,
    "duration": 0.09214734374999978
  },
  {
    "name": "D#7",
    "midi": 99,
    "time": 38.3653462499998,
    "velocity": 0.7874015748031497,
    "duration": 0.09294862499999823
  },
  {
    "name": "B6",
    "midi": 95,
    "time": 38.4614999999998,
    "velocity": 0.7874015748031497,
    "duration": 0.09374990624999668
  },
  {
    "name": "E7",
    "midi": 100,
    "time": 38.5576537499998,
    "velocity": 0.7874015748031497,
    "duration": 0.09294862499999823
  },
  {
    "name": "D#7",
    "midi": 99,
    "time": 38.6538074999998,
    "velocity": 0.7874015748031497,
    "duration": 0.09294862499999823
  },
  {
    "name": "D7",
    "midi": 98,
    "time": 38.7499612499998,
    "velocity": 0.7874015748031497,
    "duration": 0.09214734374999978
  },
  {
    "name": "C7",
    "midi": 96,
    "time": 38.8461149999998,
    "velocity": 0.7874015748031497,
    "duration": 0.09294862499999823
  },
  {
    "name": "B6",
    "midi": 95,
    "time": 38.9422687499998,
    "velocity": 0.7874015748031497,
    "duration": 0.09374990624999668
  },
  {
    "name": "C#7",
    "midi": 97,
    "time": 39.0384224999998,
    "velocity": 0.7874015748031497,
    "duration": 0.09294862499999823
  },
  {
    "name": "B6",
    "midi": 95,
    "time": 39.134576249999796,
    "velocity": 0.7874015748031497,
    "duration": 0.09294862499999823
  },
  {
    "name": "C7",
    "midi": 96,
    "time": 39.230729999999795,
    "velocity": 0.7874015748031497,
    "duration": 0.09214734374999978
  },
  {
    "name": "B6",
    "midi": 95,
    "time": 39.326883749999794,
    "velocity": 0.7874015748031497,
    "duration": 0.09294862499999823
  },
  {
    "name": "E7",
    "midi": 100,
    "time": 39.42303749999979,
    "velocity": 0.7874015748031497,
    "duration": 0.09374990624999668
  },
  {
    "name": "D#7",
    "midi": 99,
    "time": 39.51919124999979,
    "velocity": 0.7874015748031497,
    "duration": 0.09294862499999823
  },
  {
    "name": "E7",
    "midi": 100,
    "time": 39.61534499999979,
    "velocity": 0.7874015748031497,
    "duration": 0.09294862499999823
  },
  {
    "name": "D#7",
    "midi": 99,
    "time": 39.71149874999979,
    "velocity": 0.7874015748031497,
    "duration": 0.09294862499999823
  },
  {
    "name": "D7",
    "midi": 98,
    "time": 39.80765249999979,
    "velocity": 0.7874015748031497,
    "duration": 0.09294862499999823
  },
  {
    "name": "D#7",
    "midi": 99,
    "time": 39.90380624999979,
    "velocity": 0.7874015748031497,
    "duration": 0.09374990624999668
  },
  {
    "name": "D7",
    "midi": 98,
    "time": 39.99995999999979,
    "velocity": 0.7874015748031497,
    "duration": 0.09294862499999823
  },
  {
    "name": "D#7",
    "midi": 99,
    "time": 40.09611374999979,
    "velocity": 0.7874015748031497,
    "duration": 0.09374990624999668
  },
  {
    "name": "E7",
    "midi": 100,
    "time": 40.19226749999979,
    "velocity": 0.7874015748031497,
    "duration": 0.09294862499999823
  },
  {
    "name": "D7",
    "midi": 98,
    "time": 40.288421249999786,
    "velocity": 0.7874015748031497,
    "duration": 0.09374990624999668
  },
  {
    "name": "D#7",
    "midi": 99,
    "time": 40.384574999999785,
    "velocity": 0.7874015748031497,
    "duration": 0.09294862499999823
  },
  {
    "name": "D7",
    "midi": 98,
    "time": 40.480728749999784,
    "velocity": 0.7874015748031497,
    "duration": 0.09374990624999668
  },
  {
    "name": "D#7",
    "midi": 99,
    "time": 40.57688249999978,
    "velocity": 0.7874015748031497,
    "duration": 0.09615374999999915
  },
  {
    "name": "G#8",
    "midi": 116,
    "time": 40.76918999999978,
    "velocity": 0.7874015748031497,
    "duration": 0.5769224999999949
  },
  {
    "name": "C#7",
    "midi": 97,
    "time": 40.76918999999978,
    "velocity": 0.7874015748031497,
    "duration": 0.09294862499999823
  },
  {
    "name": "C#7",
    "midi": 97,
    "time": 40.86534374999978,
    "velocity": 0.7874015748031497,
    "duration": 0.09294862499999823
  },
  {
    "name": "C7",
    "midi": 96,
    "time": 40.96149749999978,
    "velocity": 0.7874015748031497,
    "duration": 0.09294862499999823
  },
  {
    "name": "C#7",
    "midi": 97,
    "time": 41.05765124999978,
    "velocity": 0.7874015748031497,
    "duration": 0.3846149999999966
  },
  {
    "name": "C7",
    "midi": 96,
    "time": 41.538419999999775,
    "velocity": 0.7874015748031497,
    "duration": 0.09294862499999823
  },
  {
    "name": "C#7",
    "midi": 97,
    "time": 41.634573749999774,
    "velocity": 0.7874015748031497,
    "duration": 0.3846149999999966
  },
  {
    "name": "C#7",
    "midi": 97,
    "time": 42.11534249999977,
    "velocity": 0.7874015748031497,
    "duration": 0.048076874999999575
  },
  {
    "name": "C7",
    "midi": 96,
    "time": 42.17944499999977,
    "velocity": 0.7874015748031497,
    "duration": 0.048076874999999575
  },
  {
    "name": "B6",
    "midi": 95,
    "time": 42.243547499999764,
    "velocity": 0.7874015748031497,
    "duration": 0.048076874999999575
  },
  {
    "name": "E7",
    "midi": 100,
    "time": 42.30764999999976,
    "velocity": 0.7874015748031497,
    "duration": 0.048076874999999575
  },
  {
    "name": "D#7",
    "midi": 99,
    "time": 42.37175249999976,
    "velocity": 0.7874015748031497,
    "duration": 0.048076874999999575
  },
  {
    "name": "D7",
    "midi": 98,
    "time": 42.435854999999755,
    "velocity": 0.7874015748031497,
    "duration": 0.048076874999999575
  },
  {
    "name": "C#7",
    "midi": 97,
    "time": 42.49995749999975,
    "velocity": 0.7874015748031497,
    "duration": 0.048076874999999575
  },
  {
    "name": "C7",
    "midi": 96,
    "time": 42.56405999999975,
    "velocity": 0.7874015748031497,
    "duration": 0.048076874999999575
  },
  {
    "name": "B6",
    "midi": 95,
    "time": 42.628162499999746,
    "velocity": 0.7874015748031497,
    "duration": 0.048076874999999575
  },
  {
    "name": "E7",
    "midi": 100,
    "time": 42.69226499999974,
    "velocity": 0.7874015748031497,
    "duration": 0.048076874999999575
  },
  {
    "name": "D#7",
    "midi": 99,
    "time": 42.75636749999974,
    "velocity": 0.7874015748031497,
    "duration": 0.048076874999999575
  },
  {
    "name": "D7",
    "midi": 98,
    "time": 42.82046999999974,
    "velocity": 0.7874015748031497,
    "duration": 0.048076874999999575
  },
  {
    "name": "C#7",
    "midi": 97,
    "time": 42.884572499999734,
    "velocity": 0.7874015748031497,
    "duration": 0.048076874999999575
  },
  {
    "name": "C7",
    "midi": 96,
    "time": 42.94867499999973,
    "velocity": 0.7874015748031497,
    "duration": 0.048076874999999575
  },
  {
    "name": "B6",
    "midi": 95,
    "time": 43.01277749999973,
    "velocity": 0.7874015748031497,
    "duration": 0.048076874999999575
  },
  {
    "name": "E7",
    "midi": 100,
    "time": 43.076879999999726,
    "velocity": 0.7874015748031497,
    "duration": 0.048076874999999575
  },
  {
    "name": "D#7",
    "midi": 99,
    "time": 43.14098249999972,
    "velocity": 0.7874015748031497,
    "duration": 0.048076874999999575
  },
  {
    "name": "D7",
    "midi": 98,
    "time": 43.20508499999972,
    "velocity": 0.7874015748031497,
    "duration": 0.048076874999999575
  },
  {
    "name": "D#7",
    "midi": 99,
    "time": 43.26918749999972,
    "velocity": 0.7874015748031497,
    "duration": 0.048076874999999575
  },
  {
    "name": "E7",
    "midi": 100,
    "time": 43.333289999999714,
    "velocity": 0.7874015748031497,
    "duration": 0.048076874999999575
  },
  {
    "name": "B6",
    "midi": 95,
    "time": 43.39739249999971,
    "velocity": 0.7874015748031497,
    "duration": 0.048076874999999575
  },
  {
    "name": "E7",
    "midi": 100,
    "time": 43.46149499999971,
    "velocity": 0.7874015748031497,
    "duration": 0.048076874999999575
  },
  {
    "name": "D#7",
    "midi": 99,
    "time": 43.525597499999705,
    "velocity": 0.7874015748031497,
    "duration": 0.048076874999999575
  },
  {
    "name": "D7",
    "midi": 98,
    "time": 43.5896999999997,
    "velocity": 0.7874015748031497,
    "duration": 0.048076874999999575
  },
  {
    "name": "E7",
    "midi": 100,
    "time": 43.6538024999997,
    "velocity": 0.7874015748031497,
    "duration": 0.048076874999999575
  },
  {
    "name": "C7",
    "midi": 96,
    "time": 43.717904999999696,
    "velocity": 0.7874015748031497,
    "duration": 0.8173068749999999
  },
  {
    "name": "E7",
    "midi": 100,
    "time": 44.6153399999997,
    "velocity": 0.7874015748031497,
    "duration": 0.09294862499999823
  },
  {
    "name": "C7",
    "midi": 96,
    "time": 44.7114937499997,
    "velocity": 0.7874015748031497,
    "duration": 0.09374990624999668
  },
  {
    "name": "B6",
    "midi": 95,
    "time": 44.807647499999696,
    "velocity": 0.7874015748031497,
    "duration": 0.09294862499999823
  },
  {
    "name": "E7",
    "midi": 100,
    "time": 44.903801249999695,
    "velocity": 0.7874015748031497,
    "duration": 0.09294862499999823
  },
  {
    "name": "B6",
    "midi": 95,
    "time": 44.999954999999694,
    "velocity": 0.7874015748031497,
    "duration": 0.09294862499999823
  },
  {
    "name": "E7",
    "midi": 100,
    "time": 45.09610874999969,
    "velocity": 0.7874015748031497,
    "duration": 0.09374990624999668
  },
  {
    "name": "D#7",
    "midi": 99,
    "time": 45.19226249999969,
    "velocity": 0.7874015748031497,
    "duration": 0.09294862499999823
  },
  {
    "name": "D7",
    "midi": 98,
    "time": 45.28841624999969,
    "velocity": 0.7874015748031497,
    "duration": 0.09294862499999823
  },
  {
    "name": "D#7",
    "midi": 99,
    "time": 45.38456999999969,
    "velocity": 0.7874015748031497,
    "duration": 0.09294862499999823
  },
  {
    "name": "E7",
    "midi": 100,
    "time": 45.48072374999969,
    "velocity": 0.7874015748031497,
    "duration": 0.09374990624999668
  },
  {
    "name": "D#7",
    "midi": 99,
    "time": 45.57687749999969,
    "velocity": 0.7874015748031497,
    "duration": 0.09294862499999823
  },
  {
    "name": "D7",
    "midi": 98,
    "time": 45.67303124999969,
    "velocity": 0.7874015748031497,
    "duration": 0.3846149999999966
  },
  {
    "name": "C#7",
    "midi": 97,
    "time": 46.153799999999684,
    "velocity": 0.7874015748031497,
    "duration": 0.28846124999999745
  },
  {
    "name": "C#7",
    "midi": 97,
    "time": 46.53841499999968,
    "velocity": 0.7874015748031497,
    "duration": 0.09615374999999915
  },
  {
    "name": "C#7",
    "midi": 97,
    "time": 46.82687624999968,
    "velocity": 0.7874015748031497,
    "duration": 0.09294862499999823
  },
  {
    "name": "C7",
    "midi": 96,
    "time": 46.92302999999968,
    "velocity": 0.7874015748031497,
    "duration": 0.09294862499999823
  },
  {
    "name": "B6",
    "midi": 95,
    "time": 47.01918374999968,
    "velocity": 0.7874015748031497,
    "duration": 0.09374990624999668
  },
  {
    "name": "E7",
    "midi": 100,
    "time": 47.115337499999676,
    "velocity": 0.7874015748031497,
    "duration": 0.09294862499999823
  },
  {
    "name": "D#7",
    "midi": 99,
    "time": 47.211491249999675,
    "velocity": 0.7874015748031497,
    "duration": 0.3846149999999966
  },
  {
    "name": "C7",
    "midi": 96,
    "time": 47.69225999999967,
    "velocity": 0.7874015748031497,
    "duration": 0.09374990624999668
  },
  {
    "name": "C#7",
    "midi": 97,
    "time": 47.78841374999967,
    "velocity": 0.7874015748031497,
    "duration": 0.09374990624999668
  },
  {
    "name": "C7",
    "midi": 96,
    "time": 47.88456749999967,
    "velocity": 0.7874015748031497,
    "duration": 0.09294862499999823
  },
  {
    "name": "B6",
    "midi": 95,
    "time": 47.98072124999967,
    "velocity": 0.7874015748031497,
    "duration": 0.09294862499999823
  },
  {
    "name": "C7",
    "midi": 96,
    "time": 48.07687499999967,
    "velocity": 0.7874015748031497,
    "duration": 0.09294862499999823
  },
  {
    "name": "B6",
    "midi": 95,
    "time": 48.173028749999666,
    "velocity": 0.7874015748031497,
    "duration": 0.09374990624999668
  },
  {
    "name": "E7",
    "midi": 100,
    "time": 48.269182499999665,
    "velocity": 0.7874015748031497,
    "duration": 0.09615374999999915
  },
  {
    "name": "C7",
    "midi": 96,
    "time": 48.461489999999664,
    "velocity": 0.7874015748031497,
    "duration": 0.09294862499999823
  },
  {
    "name": "C#7",
    "midi": 97,
    "time": 48.55764374999966,
    "velocity": 0.7874015748031497,
    "duration": 0.09374990624999668
  },
  {
    "name": "C7",
    "midi": 96,
    "time": 48.65379749999966,
    "velocity": 0.7874015748031497,
    "duration": 0.09294862499999823
  },
  {
    "name": "B6",
    "midi": 95,
    "time": 48.74995124999966,
    "velocity": 0.7874015748031497,
    "duration": 0.09294862499999823
  },
  {
    "name": "C7",
    "midi": 96,
    "time": 48.84610499999966,
    "velocity": 0.7874015748031497,
    "duration": 0.09294862499999823
  },
  {
    "name": "B6",
    "midi": 95,
    "time": 48.94225874999966,
    "velocity": 0.7874015748031497,
    "duration": 0.09294862499999823
  },
  {
    "name": "E7",
    "midi": 100,
    "time": 49.03841249999966,
    "velocity": 0.7874015748031497,
    "duration": 0.09615374999999915
  },
  {
    "name": "C7",
    "midi": 96,
    "time": 49.23071999999966,
    "velocity": 0.7874015748031497,
    "duration": 0.09374990624999668
  },
  {
    "name": "B6",
    "midi": 95,
    "time": 49.326873749999656,
    "velocity": 0.7874015748031497,
    "duration": 0.09294862499999823
  },
  {
    "name": "E7",
    "midi": 100,
    "time": 49.423027499999655,
    "velocity": 0.7874015748031497,
    "duration": 0.09294862499999823
  },
  {
    "name": "D#7",
    "midi": 99,
    "time": 49.519181249999654,
    "velocity": 0.7874015748031497,
    "duration": 0.09374990624999668
  },
  {
    "name": "B6",
    "midi": 95,
    "time": 49.615334999999654,
    "velocity": 0.7874015748031497,
    "duration": 0.09294862499999823
  },
  {
    "name": "E7",
    "midi": 100,
    "time": 49.71148874999965,
    "velocity": 0.7874015748031497,
    "duration": 0.09294862499999823
  },
  {
    "name": "D#7",
    "midi": 99,
    "time": 49.80764249999965,
    "velocity": 0.7874015748031497,
    "duration": 0.09374990624999668
  },
  {
    "name": "D7",
    "midi": 98,
    "time": 49.90379624999965,
    "velocity": 0.7874015748031497,
    "duration": 0.09294862499999823
  },
  {
    "name": "C7",
    "midi": 96,
    "time": 49.99994999999965,
    "velocity": 0.7874015748031497,
    "duration": 0.09294862499999823
  },
  {
    "name": "B6",
    "midi": 95,
    "time": 50.09610374999965,
    "velocity": 0.7874015748031497,
    "duration": 0.09374990624999668
  },
  {
    "name": "E7",
    "midi": 100,
    "time": 50.19225749999965,
    "velocity": 0.7874015748031497,
    "duration": 0.09294862499999823
  },
  {
    "name": "D#7",
    "midi": 99,
    "time": 50.28841124999965,
    "velocity": 0.7874015748031497,
    "duration": 0.09294862499999823
  },
  {
    "name": "D7",
    "midi": 98,
    "time": 50.38456499999965,
    "velocity": 0.7874015748031497,
    "duration": 0.28846124999999745
  },
  {
    "name": "G#8",
    "midi": 116,
    "time": 50.76917999999964,
    "velocity": 0.7874015748031497,
    "duration": 1.6346137499999855
  },
  {
    "name": "D7",
    "midi": 98,
    "time": 50.76917999999964,
    "velocity": 0.7874015748031497,
    "duration": 0.09294862499999823
  },
  {
    "name": "D#7",
    "midi": 99,
    "time": 50.86533374999964,
    "velocity": 0.7874015748031497,
    "duration": 0.09214734374999978
  },
  {
    "name": "E7",
    "midi": 100,
    "time": 50.96148749999964,
    "velocity": 0.7874015748031497,
    "duration": 0.09294862499999823
  },
  {
    "name": "D#7",
    "midi": 99,
    "time": 51.05764124999964,
    "velocity": 0.7874015748031497,
    "duration": 0.09294862499999823
  },
  {
    "name": "E7",
    "midi": 100,
    "time": 51.15379499999964,
    "velocity": 0.7874015748031497,
    "duration": 0.09214734374999978
  },
  {
    "name": "D#7",
    "midi": 99,
    "time": 51.24994874999964,
    "velocity": 0.7874015748031497,
    "duration": 0.09294862499999823
  },
  {
    "name": "D7",
    "midi": 98,
    "time": 51.34610249999964,
    "velocity": 0.7874015748031497,
    "duration": 0.09294862499999823
  },
  {
    "name": "D#7",
    "midi": 99,
    "time": 51.44225624999964,
    "velocity": 0.7874015748031497,
    "duration": 0.09214734374999978
  },
  {
    "name": "E7",
    "midi": 100,
    "time": 51.53840999999964,
    "velocity": 0.7874015748031497,
    "duration": 0.09294862499999823
  },
  {
    "name": "D#7",
    "midi": 99,
    "time": 51.634563749999636,
    "velocity": 0.7874015748031497,
    "duration": 0.09294862499999823
  },
  {
    "name": "E7",
    "midi": 100,
    "time": 51.730717499999635,
    "velocity": 0.7874015748031497,
    "duration": 0.09374990624999668
  },
  {
    "name": "B6",
    "midi": 95,
    "time": 51.826871249999634,
    "velocity": 0.7874015748031497,
    "duration": 0.09294862499999823
  },
  {
    "name": "E7",
    "midi": 100,
    "time": 51.92302499999963,
    "velocity": 0.7874015748031497,
    "duration": 0.09294862499999823
  },
  {
    "name": "B6",
    "midi": 95,
    "time": 52.01917874999963,
    "velocity": 0.7874015748031497,
    "duration": 0.09374990624999668
  },
  {
    "name": "E7",
    "midi": 100,
    "time": 52.11533249999963,
    "velocity": 0.7874015748031497,
    "duration": 0.09294862499999823
  },
  {
    "name": "D#7",
    "midi": 99,
    "time": 52.21148624999963,
    "velocity": 0.7874015748031497,
    "duration": 0.09294862499999823
  },
  {
    "name": "D7",
    "midi": 98,
    "time": 52.30763999999963,
    "velocity": 0.7874015748031497,
    "duration": 1.4423062500000015
  },
  {
    "name": "C7",
    "midi": 96,
    "time": 53.84609999999963,
    "velocity": 0.7874015748031497,
    "duration": 0.09374990624999668
  },
  {
    "name": "B6",
    "midi": 95,
    "time": 53.94225374999963,
    "velocity": 0.7874015748031497,
    "duration": 0.09294862499999823
  },
  {
    "name": "E7",
    "midi": 100,
    "time": 54.03840749999963,
    "velocity": 0.7874015748031497,
    "duration": 0.09374990624999668
  },
  {
    "name": "B6",
    "midi": 95,
    "time": 54.13456124999963,
    "velocity": 0.7874015748031497,
    "duration": 0.09294862499999823
  },
  {
    "name": "C7",
    "midi": 96,
    "time": 54.23071499999963,
    "velocity": 0.7874015748031497,
    "duration": 0.09374990624999668
  },
  {
    "name": "B6",
    "midi": 95,
    "time": 54.326868749999626,
    "velocity": 0.7874015748031497,
    "duration": 0.09294862499999823
  },
  {
    "name": "C#7",
    "midi": 97,
    "time": 54.423022499999625,
    "velocity": 0.7874015748031497,
    "duration": 0.09374990624999668
  },
  {
    "name": "B6",
    "midi": 95,
    "time": 54.519176249999624,
    "velocity": 0.7874015748031497,
    "duration": 0.09294862499999823
  },
  {
    "name": "C7",
    "midi": 96,
    "time": 54.615329999999624,
    "velocity": 0.7874015748031497,
    "duration": 0.09294862499999823
  },
  {
    "name": "B6",
    "midi": 95,
    "time": 54.71148374999962,
    "velocity": 0.7874015748031497,
    "duration": 0.09294862499999823
  },
  {
    "name": "E7",
    "midi": 100,
    "time": 54.80763749999962,
    "velocity": 0.7874015748031497,
    "duration": 0.09294862499999823
  },
  {
    "name": "B6",
    "midi": 95,
    "time": 54.90379124999962,
    "velocity": 0.7874015748031497,
    "duration": 0.09214734374999978
  },
  {
    "name": "C7",
    "midi": 96,
    "time": 54.99994499999962,
    "velocity": 0.7874015748031497,
    "duration": 0.09294862499999823
  },
  {
    "name": "B6",
    "midi": 95,
    "time": 55.09609874999962,
    "velocity": 0.7874015748031497,
    "duration": 0.09294862499999823
  },
  {
    "name": "E7",
    "midi": 100,
    "time": 55.19225249999962,
    "velocity": 0.7874015748031497,
    "duration": 0.09294862499999823
  },
  {
    "name": "D#7",
    "midi": 99,
    "time": 55.28840624999962,
    "velocity": 0.7874015748031497,
    "duration": 0.09214734374999978
  },
  {
    "name": "E7",
    "midi": 100,
    "time": 55.38455999999962,
    "velocity": 0.7874015748031497,
    "duration": 0.09294862499999823
  },
  {
    "name": "D#7",
    "midi": 99,
    "time": 55.480713749999616,
    "velocity": 0.7874015748031497,
    "duration": 0.09294862499999823
  },
  {
    "name": "D7",
    "midi": 98,
    "time": 55.576867499999615,
    "velocity": 0.7874015748031497,
    "duration": 0.09294862499999823
  },
  {
    "name": "D#7",
    "midi": 99,
    "time": 55.673021249999614,
    "velocity": 0.7874015748031497,
    "duration": 0.09214734374999978
  },
  {
    "name": "E7",
    "midi": 100,
    "time": 55.76917499999961,
    "velocity": 0.7874015748031497,
    "duration": 0.09294862499999823
  },
  {
    "name": "D#7",
    "midi": 99,
    "time": 55.86532874999961,
    "velocity": 0.7874015748031497,
    "duration": 0.09374990624999668
  },
  {
    "name": "B6",
    "midi": 95,
    "time": 55.96148249999961,
    "velocity": 0.7874015748031497,
    "duration": 0.09294862499999823
  },
  {
    "name": "D#7",
    "midi": 99,
    "time": 56.05763624999961,
    "velocity": 0.7874015748031497,
    "duration": 0.09374990624999668
  },
  {
    "name": "E7",
    "midi": 100,
    "time": 56.15378999999961,
    "velocity": 0.7874015748031497,
    "duration": 0.09294862499999823
  },
  {
    "name": "D#7",
    "midi": 99,
    "time": 56.24994374999961,
    "velocity": 0.7874015748031497,
    "duration": 0.09374990624999668
  },
  {
    "name": "D7",
    "midi": 98,
    "time": 56.34609749999961,
    "velocity": 0.7874015748031497,
    "duration": 0.09294862499999823
  },
  {
    "name": "D#7",
    "midi": 99,
    "time": 56.44225124999961,
    "velocity": 0.7874015748031497,
    "duration": 0.09294862499999823
  },
  {
    "name": "E7",
    "midi": 100,
    "time": 56.53840499999961,
    "velocity": 0.7874015748031497,
    "duration": 0.09374990624999668
  },
  {
    "name": "D#7",
    "midi": 99,
    "time": 56.634558749999606,
    "velocity": 0.7874015748031497,
    "duration": 0.09214734374999978
  },
  {
    "name": "D7",
    "midi": 98,
    "time": 56.730712499999605,
    "velocity": 0.7874015748031497,
    "duration": 0.09294862499999823
  },
  {
    "name": "D#7",
    "midi": 99,
    "time": 56.826866249999604,
    "velocity": 0.7874015748031497,
    "duration": 0.09294862499999823
  },
  {
    "name": "B6",
    "midi": 95,
    "time": 56.9230199999996,
    "velocity": 0.7874015748031497,
    "duration": 0.09374990624999668
  },
  {
    "name": "E7",
    "midi": 100,
    "time": 57.0191737499996,
    "velocity": 0.7874015748031497,
    "duration": 0.09374990624999668
  },
  {
    "name": "D#7",
    "midi": 99,
    "time": 57.1153274999996,
    "velocity": 0.7874015748031497,
    "duration": 0.09214734374999978
  },
  {
    "name": "D7",
    "midi": 98,
    "time": 57.2114812499996,
    "velocity": 0.7874015748031497,
    "duration": 0.09294862499999823
  },
  {
    "name": "C7",
    "midi": 96,
    "time": 57.3076349999996,
    "velocity": 0.7874015748031497,
    "duration": 0.09294862499999823
  },
  {
    "name": "B6",
    "midi": 95,
    "time": 57.4037887499996,
    "velocity": 0.7874015748031497,
    "duration": 0.09294862499999823
  },
  {
    "name": "C#7",
    "midi": 97,
    "time": 57.4999424999996,
    "velocity": 0.7874015748031497,
    "duration": 0.09294862499999823
  },
  {
    "name": "B6",
    "midi": 95,
    "time": 57.5960962499996,
    "velocity": 0.7874015748031497,
    "duration": 0.09294862499999823
  },
  {
    "name": "C7",
    "midi": 96,
    "time": 57.692249999999596,
    "velocity": 0.7874015748031497,
    "duration": 0.09294862499999823
  },
  {
    "name": "B6",
    "midi": 95,
    "time": 57.788403749999596,
    "velocity": 0.7874015748031497,
    "duration": 0.09294862499999823
  },
  {
    "name": "E7",
    "midi": 100,
    "time": 57.884557499999595,
    "velocity": 0.7874015748031497,
    "duration": 0.09294862499999823
  },
  {
    "name": "D#7",
    "midi": 99,
    "time": 57.980711249999594,
    "velocity": 0.7874015748031497,
    "duration": 0.09294862499999823
  },
  {
    "name": "E7",
    "midi": 100,
    "time": 58.07686499999959,
    "velocity": 0.7874015748031497,
    "duration": 0.09294862499999823
  },
  {
    "name": "D#7",
    "midi": 99,
    "time": 58.17301874999959,
    "velocity": 0.7874015748031497,
    "duration": 0.09214734374999978
  },
  {
    "name": "D7",
    "midi": 98,
    "time": 58.26917249999959,
    "velocity": 0.7874015748031497,
    "duration": 0.09294862499999823
  },
  {
    "name": "D#7",
    "midi": 99,
    "time": 58.36532624999959,
    "velocity": 0.7874015748031497,
    "duration": 0.09294862499999823
  },
  {
    "name": "D7",
    "midi": 98,
    "time": 58.46147999999959,
    "velocity": 0.7874015748031497,
    "duration": 0.09294862499999823
  },
  {
    "name": "D#7",
    "midi": 99,
    "time": 58.55763374999959,
    "velocity": 0.7874015748031497,
    "duration": 0.09294862499999823
  },
  {
    "name": "E7",
    "midi": 100,
    "time": 58.65378749999959,
    "velocity": 0.7874015748031497,
    "duration": 0.09214734374999978
  },
  {
    "name": "D7",
    "midi": 98,
    "time": 58.74994124999959,
    "velocity": 0.7874015748031497,
    "duration": 0.09374990624999668
  },
  {
    "name": "D#7",
    "midi": 99,
    "time": 58.846094999999586,
    "velocity": 0.7874015748031497,
    "duration": 0.09615374999999915
  },
  {
    "name": "C#7",
    "midi": 97,
    "time": 59.038402499999584,
    "velocity": 0.7874015748031497,
    "duration": 0.09294862499999823
  },
  {
    "name": "C#7",
    "midi": 97,
    "time": 59.134556249999584,
    "velocity": 0.7874015748031497,
    "duration": 0.09294862499999823
  },
  {
    "name": "C7",
    "midi": 96,
    "time": 59.23070999999958,
    "velocity": 0.7874015748031497,
    "duration": 0.09214734374999978
  },
  {
    "name": "C#7",
    "midi": 97,
    "time": 59.32686374999958,
    "velocity": 0.7874015748031497,
    "duration": 0.3846149999999966
  },
  {
    "name": "D#7",
    "midi": 99,
    "time": 59.80763249999958,
    "velocity": 0.7874015748031497,
    "duration": 0.09615374999999915
  },
  {
    "name": "C7",
    "midi": 96,
    "time": 59.999939999999576,
    "velocity": 0.7874015748031497,
    "duration": 0.09294862499999823
  },
  {
    "name": "B6",
    "midi": 95,
    "time": 60.096093749999575,
    "velocity": 0.7874015748031497,
    "duration": 0.09294862499999823
  },
  {
    "name": "E7",
    "midi": 100,
    "time": 60.192247499999574,
    "velocity": 0.7874015748031497,
    "duration": 0.09294862499999823
  },
  {
    "name": "B6",
    "midi": 95,
    "time": 60.28840124999957,
    "velocity": 0.7874015748031497,
    "duration": 0.09374990624999668
  },
  {
    "name": "C7",
    "midi": 96,
    "time": 60.38455499999957,
    "velocity": 0.7874015748031497,
    "duration": 0.09294862499999823
  },
  {
    "name": "B6",
    "midi": 95,
    "time": 60.48070874999957,
    "velocity": 0.7874015748031497,
    "duration": 0.09294862499999823
  },
  {
    "name": "C#7",
    "midi": 97,
    "time": 60.57686249999957,
    "velocity": 0.7874015748031497,
    "duration": 0.09294862499999823
  },
  {
    "name": "B6",
    "midi": 95,
    "time": 60.67301624999957,
    "velocity": 0.7874015748031497,
    "duration": 0.09374990624999668
  },
  {
    "name": "C7",
    "midi": 96,
    "time": 60.76916999999957,
    "velocity": 0.7874015748031497,
    "duration": 0.09294862499999823
  },
  {
    "name": "B6",
    "midi": 95,
    "time": 60.86532374999957,
    "velocity": 0.7874015748031497,
    "duration": 0.09294862499999823
  },
  {
    "name": "E7",
    "midi": 100,
    "time": 60.96147749999957,
    "velocity": 0.7874015748031497,
    "duration": 0.09294862499999823
  },
  {
    "name": "B6",
    "midi": 95,
    "time": 61.05763124999957,
    "velocity": 0.7874015748031497,
    "duration": 0.09214734374999978
  },
  {
    "name": "C7",
    "midi": 96,
    "time": 61.153784999999566,
    "velocity": 0.7874015748031497,
    "duration": 0.09214734374999978
  },
  {
    "name": "B6",
    "midi": 95,
    "time": 61.249938749999565,
    "velocity": 0.7874015748031497,
    "duration": 0.09294862499999823
  },
  {
    "name": "E7",
    "midi": 100,
    "time": 61.346092499999564,
    "velocity": 0.7874015748031497,
    "duration": 0.09294862499999823
  },
  {
    "name": "D#7",
    "midi": 99,
    "time": 61.44224624999956,
    "velocity": 0.7874015748031497,
    "duration": 0.09294862499999823
  },
  {
    "name": "E7",
    "midi": 100,
    "time": 61.53839999999956,
    "velocity": 0.7874015748031497,
    "duration": 0.09294862499999823
  },
  {
    "name": "D#7",
    "midi": 99,
    "time": 61.63455374999956,
    "velocity": 0.7874015748031497,
    "duration": 0.09214734374999978
  },
  {
    "name": "D7",
    "midi": 98,
    "time": 61.73070749999956,
    "velocity": 0.7874015748031497,
    "duration": 0.09294862499999823
  },
  {
    "name": "D#7",
    "midi": 99,
    "time": 61.82686124999956,
    "velocity": 0.7874015748031497,
    "duration": 0.09294862499999823
  },
  {
    "name": "E7",
    "midi": 100,
    "time": 61.92301499999956,
    "velocity": 0.7874015748031497,
    "duration": 0.09214734374999978
  },
  {
    "name": "D#7",
    "midi": 99,
    "time": 62.01916874999956,
    "velocity": 0.7874015748031497,
    "duration": 0.09294862499999823
  },
  {
    "name": "B6",
    "midi": 95,
    "time": 62.11532249999956,
    "velocity": 0.7874015748031497,
    "duration": 0.09294862499999823
  },
  {
    "name": "D#7",
    "midi": 99,
    "time": 62.211476249999556,
    "velocity": 0.7874015748031497,
    "duration": 0.09214734374999978
  },
  {
    "name": "E7",
    "midi": 100,
    "time": 62.307629999999556,
    "velocity": 0.7874015748031497,
    "duration": 0.09294862499999823
  },
  {
    "name": "D#7",
    "midi": 99,
    "time": 62.403783749999555,
    "velocity": 0.7874015748031497,
    "duration": 0.09294862499999823
  },
  {
    "name": "D7",
    "midi": 98,
    "time": 62.499937499999554,
    "velocity": 0.7874015748031497,
    "duration": 0.09374990624999668
  },
  {
    "name": "D#7",
    "midi": 99,
    "time": 62.59609124999955,
    "velocity": 0.7874015748031497,
    "duration": 0.09294862499999823
  },
  {
    "name": "E7",
    "midi": 100,
    "time": 62.69224499999955,
    "velocity": 0.7874015748031497,
    "duration": 0.09294862499999823
  },
  {
    "name": "D#7",
    "midi": 99,
    "time": 62.78839874999955,
    "velocity": 0.7874015748031497,
    "duration": 0.09374990624999668
  },
  {
    "name": "D7",
    "midi": 98,
    "time": 62.88455249999955,
    "velocity": 0.7874015748031497,
    "duration": 0.09294862499999823
  },
  {
    "name": "D#7",
    "midi": 99,
    "time": 62.98070624999955,
    "velocity": 0.7874015748031497,
    "duration": 0.09294862499999823
  },
  {
    "name": "B6",
    "midi": 95,
    "time": 63.07685999999955,
    "velocity": 0.7874015748031497,
    "duration": 0.09374990624999668
  },
  {
    "name": "E7",
    "midi": 100,
    "time": 63.17301374999955,
    "velocity": 0.7874015748031497,
    "duration": 0.09294862499999823
  },
  {
    "name": "D#7",
    "midi": 99,
    "time": 63.26916749999955,
    "velocity": 0.7874015748031497,
    "duration": 0.09294862499999823
  },
  {
    "name": "D7",
    "midi": 98,
    "time": 63.365321249999546,
    "velocity": 0.7874015748031497,
    "duration": 0.09374990624999668
  },
  {
    "name": "C7",
    "midi": 96,
    "time": 63.461474999999545,
    "velocity": 0.7874015748031497,
    "duration": 0.09294862499999823
  },
  {
    "name": "B6",
    "midi": 95,
    "time": 63.557628749999544,
    "velocity": 0.7874015748031497,
    "duration": 0.09294862499999823
  },
  {
    "name": "C#7",
    "midi": 97,
    "time": 63.653782499999544,
    "velocity": 0.7874015748031497,
    "duration": 0.09374990624999668
  },
  {
    "name": "B6",
    "midi": 95,
    "time": 63.74993624999954,
    "velocity": 0.7874015748031497,
    "duration": 0.09294862499999823
  },
  {
    "name": "C7",
    "midi": 96,
    "time": 63.84608999999954,
    "velocity": 0.7874015748031497,
    "duration": 0.09294862499999823
  },
  {
    "name": "B6",
    "midi": 95,
    "time": 63.94224374999954,
    "velocity": 0.7874015748031497,
    "duration": 0.09374990625000379
  },
  {
    "name": "E7",
    "midi": 100,
    "time": 64.03839749999955,
    "velocity": 0.7874015748031497,
    "duration": 0.09294862500000534
  },
  {
    "name": "D#7",
    "midi": 99,
    "time": 64.13455124999955,
    "velocity": 0.7874015748031497,
    "duration": 0.09294862500000534
  },
  {
    "name": "E7",
    "midi": 100,
    "time": 64.23070499999955,
    "velocity": 0.7874015748031497,
    "duration": 0.09374990624999668
  },
  {
    "name": "D#7",
    "midi": 99,
    "time": 64.32685874999954,
    "velocity": 0.7874015748031497,
    "duration": 0.09294862500000534
  },
  {
    "name": "D7",
    "midi": 98,
    "time": 64.42301249999954,
    "velocity": 0.7874015748031497,
    "duration": 0.09294862500000534
  },
  {
    "name": "D#7",
    "midi": 99,
    "time": 64.51916624999954,
    "velocity": 0.7874015748031497,
    "duration": 0.09374990624999668
  },
  {
    "name": "E7",
    "midi": 100,
    "time": 64.61531999999954,
    "velocity": 0.7874015748031497,
    "duration": 0.09294862500000534
  },
  {
    "name": "D#7",
    "midi": 99,
    "time": 64.71147374999954,
    "velocity": 0.7874015748031497,
    "duration": 0.09294862500000534
  },
  {
    "name": "D7",
    "midi": 98,
    "time": 64.80762749999954,
    "velocity": 0.7874015748031497,
    "duration": 0.09374990624999668
  },
  {
    "name": "D#7",
    "midi": 99,
    "time": 64.90378124999954,
    "velocity": 0.7874015748031497,
    "duration": 0.09294862500000534
  },
  {
    "name": "E7",
    "midi": 100,
    "time": 64.99993499999954,
    "velocity": 0.7874015748031497,
    "duration": 0.09214734374999978
  },
  {
    "name": "D7",
    "midi": 98,
    "time": 65.09608874999954,
    "velocity": 0.7874015748031497,
    "duration": 0.09294862500000534
  },
  {
    "name": "D#7",
    "midi": 99,
    "time": 65.19224249999954,
    "velocity": 0.7874015748031497,
    "duration": 0.1923074999999983
  },
  {
    "name": "B6",
    "midi": 95,
    "time": 65.57685749999953,
    "velocity": 0.7874015748031497,
    "duration": 0.18589724999999646
  },
  {
    "name": "F7",
    "midi": 101,
    "time": 65.57685749999953,
    "velocity": 0.7874015748031497,
    "duration": 0.18589724999999646
  },
  {
    "name": "E7",
    "midi": 100,
    "time": 65.76916499999953,
    "velocity": 0.7874015748031497,
    "duration": 0.09294862500000534
  },
  {
    "name": "F7",
    "midi": 101,
    "time": 65.76916499999953,
    "velocity": 0.7874015748031497,
    "duration": 0.09294862500000534
  },
  {
    "name": "B6",
    "midi": 95,
    "time": 65.86531874999953,
    "velocity": 0.7874015748031497,
    "duration": 0.09294862500000534
  },
  {
    "name": "F7",
    "midi": 101,
    "time": 65.86531874999953,
    "velocity": 0.7874015748031497,
    "duration": 0.09294862500000534
  },
  {
    "name": "E7",
    "midi": 100,
    "time": 65.96147249999953,
    "velocity": 0.7874015748031497,
    "duration": 0.09374990624999668
  },
  {
    "name": "F7",
    "midi": 101,
    "time": 65.96147249999953,
    "velocity": 0.7874015748031497,
    "duration": 0.09374990624999668
  },
  {
    "name": "D#7",
    "midi": 99,
    "time": 66.05762624999953,
    "velocity": 0.7874015748031497,
    "duration": 0.09374990624999668
  },
  {
    "name": "F7",
    "midi": 101,
    "time": 66.05762624999953,
    "velocity": 0.7874015748031497,
    "duration": 0.09374990624999668
  },
  {
    "name": "B6",
    "midi": 95,
    "time": 66.15377999999953,
    "velocity": 0.7874015748031497,
    "duration": 0.09294862500000534
  },
  {
    "name": "C7",
    "midi": 96,
    "time": 66.24993374999953,
    "velocity": 0.7874015748031497,
    "duration": 0.09294862500000534
  },
  {
    "name": "C#7",
    "midi": 97,
    "time": 66.34608749999953,
    "velocity": 0.7874015748031497,
    "duration": 0.09294862500000534
  },
  {
    "name": "C#7",
    "midi": 97,
    "time": 66.44224124999953,
    "velocity": 0.7874015748031497,
    "duration": 0.09294862500000534
  },
  {
    "name": "C#7",
    "midi": 97,
    "time": 66.53839499999953,
    "velocity": 0.7874015748031497,
    "duration": 0.09374990624999668
  },
  {
    "name": "C#7",
    "midi": 97,
    "time": 66.63454874999952,
    "velocity": 0.7874015748031497,
    "duration": 0.09374990624999668
  },
  {
    "name": "C7",
    "midi": 96,
    "time": 66.73070249999952,
    "velocity": 0.7874015748031497,
    "duration": 0.09294862500000534
  },
  {
    "name": "C#7",
    "midi": 97,
    "time": 66.82685624999952,
    "velocity": 0.7874015748031497,
    "duration": 0.09294862500000534
  },
  {
    "name": "C#7",
    "midi": 97,
    "time": 66.92300999999952,
    "velocity": 0.7874015748031497,
    "duration": 0.09294862500000534
  },
  {
    "name": "C#7",
    "midi": 97,
    "time": 67.01916374999952,
    "velocity": 0.7874015748031497,
    "duration": 0.09294862500000534
  },
  {
    "name": "C7",
    "midi": 96,
    "time": 67.11531749999952,
    "velocity": 0.7874015748031497,
    "duration": 0.09294862500000534
  },
  {
    "name": "C#7",
    "midi": 97,
    "time": 67.21147124999952,
    "velocity": 0.7874015748031497,
    "duration": 0.09374990624999668
  },
  {
    "name": "C7",
    "midi": 96,
    "time": 67.30762499999952,
    "velocity": 0.7874015748031497,
    "duration": 0.18589724999999646
  },
  {
    "name": "F7",
    "midi": 101,
    "time": 67.30762499999952,
    "velocity": 0.7874015748031497,
    "duration": 0.18589724999999646
  },
  {
    "name": "B6",
    "midi": 95,
    "time": 67.49993249999952,
    "velocity": 0.7874015748031497,
    "duration": 0.18589724999999646
  },
  {
    "name": "F7",
    "midi": 101,
    "time": 67.49993249999952,
    "velocity": 0.7874015748031497,
    "duration": 0.18589724999999646
  },
  {
    "name": "C7",
    "midi": 96,
    "time": 67.69223999999952,
    "velocity": 0.7874015748031497,
    "duration": 0.09294862500000534
  },
  {
    "name": "F7",
    "midi": 101,
    "time": 67.69223999999952,
    "velocity": 0.7874015748031497,
    "duration": 0.09294862500000534
  },
  {
    "name": "B6",
    "midi": 95,
    "time": 67.78839374999951,
    "velocity": 0.7874015748031497,
    "duration": 0.09214734374999978
  },
  {
    "name": "E7",
    "midi": 100,
    "time": 67.88454749999951,
    "velocity": 0.7874015748031497,
    "duration": 0.09294862500000534
  },
  {
    "name": "B6",
    "midi": 95,
    "time": 67.98070124999951,
    "velocity": 0.7874015748031497,
    "duration": 0.09294862500000534
  },
  {
    "name": "E7",
    "midi": 100,
    "time": 68.07685499999951,
    "velocity": 0.7874015748031497,
    "duration": 0.09294862500000534
  },
  {
    "name": "D7",
    "midi": 98,
    "time": 68.17300874999951,
    "velocity": 0.7874015748031497,
    "duration": 0.09374990624999668
  },
  {
    "name": "D#7",
    "midi": 99,
    "time": 68.26916249999951,
    "velocity": 0.7874015748031497,
    "duration": 0.09294862500000534
  },
  {
    "name": "E7",
    "midi": 100,
    "time": 68.36531624999951,
    "velocity": 0.7874015748031497,
    "duration": 0.09294862500000534
  },
  {
    "name": "C7",
    "midi": 96,
    "time": 68.46146999999951,
    "velocity": 0.7874015748031497,
    "duration": 0.09214734374999978
  },
  {
    "name": "B6",
    "midi": 95,
    "time": 68.55762374999951,
    "velocity": 0.7874015748031497,
    "duration": 0.09214734374999978
  },
  {
    "name": "C7",
    "midi": 96,
    "time": 68.6537774999995,
    "velocity": 0.7874015748031497,
    "duration": 0.09214734374999978
  },
  {
    "name": "C#7",
    "midi": 97,
    "time": 68.7499312499995,
    "velocity": 0.7874015748031497,
    "duration": 0.673076249999994
  },
  {
    "name": "B6",
    "midi": 95,
    "time": 69.5191612499995,
    "velocity": 0.7874015748031497,
    "duration": 0.09294862500000534
  },
  {
    "name": "C7",
    "midi": 96,
    "time": 69.6153149999995,
    "velocity": 0.7874015748031497,
    "duration": 0.09294862500000534
  },
  {
    "name": "C7",
    "midi": 96,
    "time": 69.7114687499995,
    "velocity": 0.7874015748031497,
    "duration": 0.09374990624999668
  },
  {
    "name": "C7",
    "midi": 96,
    "time": 69.8076224999995,
    "velocity": 0.7874015748031497,
    "duration": 0.09294862500000534
  },
  {
    "name": "C7",
    "midi": 96,
    "time": 69.9037762499995,
    "velocity": 0.7874015748031497,
    "duration": 0.09294862500000534
  },
  {
    "name": "B6",
    "midi": 95,
    "time": 69.9999299999995,
    "velocity": 0.7874015748031497,
    "duration": 0.09294862500000534
  },
  {
    "name": "C7",
    "midi": 96,
    "time": 70.0960837499995,
    "velocity": 0.7874015748031497,
    "duration": 0.09615374999999915
  },
  {
    "name": "E7",
    "midi": 100,
    "time": 70.38454499999949,
    "velocity": 0.7874015748031497,
    "duration": 0.09374990624999668
  },
  {
    "name": "D#7",
    "midi": 99,
    "time": 70.48069874999949,
    "velocity": 0.7874015748031497,
    "duration": 0.09294862500000534
  },
  {
    "name": "D7",
    "midi": 98,
    "time": 70.57685249999949,
    "velocity": 0.7874015748031497,
    "duration": 0.09615374999999915
  },
  {
    "name": "C7",
    "midi": 96,
    "time": 70.76915999999949,
    "velocity": 0.7874015748031497,
    "duration": 0.09294862500000534
  },
  {
    "name": "B6",
    "midi": 95,
    "time": 70.86531374999949,
    "velocity": 0.7874015748031497,
    "duration": 0.09294862500000534
  },
  {
    "name": "C#7",
    "midi": 97,
    "time": 70.96146749999949,
    "velocity": 0.7874015748031497,
    "duration": 0.09294862500000534
  },
  {
    "name": "C7",
    "midi": 96,
    "time": 71.05762124999949,
    "velocity": 0.7874015748031497,
    "duration": 0.09214734374999978
  },
  {
    "name": "C7",
    "midi": 96,
    "time": 71.15377499999948,
    "velocity": 0.7874015748031497,
    "duration": 0.09294862500000534
  },
  {
    "name": "B6",
    "midi": 95,
    "time": 71.24992874999948,
    "velocity": 0.7874015748031497,
    "duration": 0.09294862500000534
  },
  {
    "name": "C#7",
    "midi": 97,
    "time": 71.34608249999948,
    "velocity": 0.7874015748031497,
    "duration": 0.09615374999999915
  },
  {
    "name": "E7",
    "midi": 100,
    "time": 71.53838999999948,
    "velocity": 0.7874015748031497,
    "duration": 0.09294862500000534
  },
  {
    "name": "D#7",
    "midi": 99,
    "time": 71.63454374999948,
    "velocity": 0.7874015748031497,
    "duration": 0.09294862500000534
  },
  {
    "name": "D7",
    "midi": 98,
    "time": 71.73069749999948,
    "velocity": 0.7874015748031497,
    "duration": 0.09294862500000534
  },
  {
    "name": "C7",
    "midi": 96,
    "time": 71.82685124999948,
    "velocity": 0.7874015748031497,
    "duration": 0.09294862500000534
  },
  {
    "name": "B6",
    "midi": 95,
    "time": 71.92300499999948,
    "velocity": 0.7874015748031497,
    "duration": 0.09294862500000534
  },
  {
    "name": "C7",
    "midi": 96,
    "time": 72.01915874999948,
    "velocity": 0.7874015748031497,
    "duration": 0.09294862500000534
  },
  {
    "name": "B6",
    "midi": 95,
    "time": 72.11531249999948,
    "velocity": 0.7874015748031497,
    "duration": 0.09374990624999668
  },
  {
    "name": "E7",
    "midi": 100,
    "time": 72.21146624999948,
    "velocity": 0.7874015748031497,
    "duration": 0.7692299999999932
  },
  {
    "name": "D7",
    "midi": 98,
    "time": 73.07684999999947,
    "velocity": 0.7874015748031497,
    "duration": 0.09294862500000534
  },
  {
    "name": "D#7",
    "midi": 99,
    "time": 73.17300374999947,
    "velocity": 0.7874015748031497,
    "duration": 0.09294862500000534
  },
  {
    "name": "E7",
    "midi": 100,
    "time": 73.26915749999947,
    "velocity": 0.7874015748031497,
    "duration": 0.09374990624999668
  },
  {
    "name": "B6",
    "midi": 95,
    "time": 73.36531124999946,
    "velocity": 0.7874015748031497,
    "duration": 0.09374990624999668
  },
  {
    "name": "D#7",
    "midi": 99,
    "time": 73.46146499999946,
    "velocity": 0.7874015748031497,
    "duration": 0.09294862500000534
  },
  {
    "name": "E7",
    "midi": 100,
    "time": 73.55761874999946,
    "velocity": 0.7874015748031497,
    "duration": 0.09294862500000534
  },
  {
    "name": "B6",
    "midi": 95,
    "time": 73.65377249999946,
    "velocity": 0.7874015748031497,
    "duration": 0.09374990624999668
  },
  {
    "name": "C7",
    "midi": 96,
    "time": 73.74992624999946,
    "velocity": 0.7874015748031497,
    "duration": 0.09294862500000534
  },
  {
    "name": "G#8",
    "midi": 116,
    "time": 73.84607999999946,
    "velocity": 0.7874015748031497,
    "duration": 0.8653837499999923
  },
  {
    "name": "C#7",
    "midi": 97,
    "time": 73.84607999999946,
    "velocity": 0.7874015748031497,
    "duration": 0.09214734374999978
  },
  {
    "name": "D7",
    "midi": 98,
    "time": 73.94223374999946,
    "velocity": 0.7874015748031497,
    "duration": 0.09374990624999668
  },
  {
    "name": "D#7",
    "midi": 99,
    "time": 74.03838749999946,
    "velocity": 0.7874015748031497,
    "duration": 0.09294862500000534
  },
  {
    "name": "E7",
    "midi": 100,
    "time": 74.13454124999946,
    "velocity": 0.7874015748031497,
    "duration": 0.09294862500000534
  },
  {
    "name": "D7",
    "midi": 98,
    "time": 74.23069499999946,
    "velocity": 0.7874015748031497,
    "duration": 0.09294862500000534
  },
  {
    "name": "D#7",
    "midi": 99,
    "time": 74.32684874999946,
    "velocity": 0.7874015748031497,
    "duration": 0.09294862500000534
  },
  {
    "name": "E7",
    "midi": 100,
    "time": 74.42300249999946,
    "velocity": 0.7874015748031497,
    "duration": 0.09214734374999978
  },
  {
    "name": "B6",
    "midi": 95,
    "time": 74.51915624999945,
    "velocity": 0.7874015748031497,
    "duration": 0.9615374999999915
  },
  {
    "name": "E7",
    "midi": 100,
    "time": 75.57684749999945,
    "velocity": 0.7874015748031497,
    "duration": 0.09214734374999978
  },
  {
    "name": "B6",
    "midi": 95,
    "time": 75.67300124999944,
    "velocity": 0.7874015748031497,
    "duration": 0.09374990624999668
  },
  {
    "name": "C7",
    "midi": 96,
    "time": 75.76915499999944,
    "velocity": 0.7874015748031497,
    "duration": 0.09294862500000534
  },
  {
    "name": "B6",
    "midi": 95,
    "time": 75.86530874999944,
    "velocity": 0.7874015748031497,
    "duration": 0.09294862500000534
  },
  {
    "name": "C7",
    "midi": 96,
    "time": 75.96146249999944,
    "velocity": 0.7874015748031497,
    "duration": 0.09294862500000534
  },
  {
    "name": "C#7",
    "midi": 97,
    "time": 76.05761624999944,
    "velocity": 0.7874015748031497,
    "duration": 0.09294862500000534
  },
  {
    "name": "C7",
    "midi": 96,
    "time": 76.15376999999944,
    "velocity": 0.7874015748031497,
    "duration": 0.09214734374999978
  },
  {
    "name": "B6",
    "midi": 95,
    "time": 76.24992374999944,
    "velocity": 0.7874015748031497,
    "duration": 0.09374990624999668
  },
  {
    "name": "B6",
    "midi": 95,
    "time": 76.34607749999944,
    "velocity": 0.7874015748031497,
    "duration": 0.09294862500000534
  },
  {
    "name": "E7",
    "midi": 100,
    "time": 76.44223124999944,
    "velocity": 0.7874015748031497,
    "duration": 0.09294862500000534
  },
  {
    "name": "B6",
    "midi": 95,
    "time": 76.53838499999944,
    "velocity": 0.7874015748031497,
    "duration": 0.09294862500000534
  },
  {
    "name": "C7",
    "midi": 96,
    "time": 76.63453874999944,
    "velocity": 0.7874015748031497,
    "duration": 0.09294862500000534
  },
  {
    "name": "B6",
    "midi": 95,
    "time": 76.73069249999944,
    "velocity": 0.7874015748031497,
    "duration": 0.09374990624999668
  },
  {
    "name": "E7",
    "midi": 100,
    "time": 76.82684624999943,
    "velocity": 0.7874015748031497,
    "duration": 0.09374990624999668
  },
  {
    "name": "B6",
    "midi": 95,
    "time": 76.92299999999943,
    "velocity": 0.7874015748031497,
    "duration": 0.09374990624999668
  },
  {
    "name": "C7",
    "midi": 96,
    "time": 77.01915374999943,
    "velocity": 0.7874015748031497,
    "duration": 0.09374990624999668
  },
  {
    "name": "C7",
    "midi": 96,
    "time": 77.11530749999943,
    "velocity": 0.7874015748031497,
    "duration": 0.09214734374999978
  },
  {
    "name": "C#7",
    "midi": 97,
    "time": 77.21146124999943,
    "velocity": 0.7874015748031497,
    "duration": 0.09294862500000534
  },
  {
    "name": "C7",
    "midi": 96,
    "time": 77.30761499999943,
    "velocity": 0.7874015748031497,
    "duration": 0.09294862500000534
  },
  {
    "name": "B6",
    "midi": 95,
    "time": 77.40376874999943,
    "velocity": 0.7874015748031497,
    "duration": 0.09294862500000534
  },
  {
    "name": "E7",
    "midi": 100,
    "time": 77.49992249999943,
    "velocity": 0.7874015748031497,
    "duration": 0.09294862500000534
  },
  {
    "name": "C7",
    "midi": 96,
    "time": 77.59607624999943,
    "velocity": 0.7874015748031497,
    "duration": 0.09294862500000534
  },
  {
    "name": "B6",
    "midi": 95,
    "time": 77.69222999999943,
    "velocity": 0.7874015748031497,
    "duration": 0.09294862500000534
  },
  {
    "name": "E7",
    "midi": 100,
    "time": 77.78838374999943,
    "velocity": 0.7874015748031497,
    "duration": 0.09294862500000534
  },
  {
    "name": "D#7",
    "midi": 99,
    "time": 77.88453749999942,
    "velocity": 0.7874015748031497,
    "duration": 0.09294862500000534
  },
  {
    "name": "C#7",
    "midi": 97,
    "time": 77.98069124999942,
    "velocity": 0.7874015748031497,
    "duration": 0.09294862500000534
  },
  {
    "name": "C7",
    "midi": 96,
    "time": 78.07684499999942,
    "velocity": 0.7874015748031497,
    "duration": 0.09294862500000534
  },
  {
    "name": "B6",
    "midi": 95,
    "time": 78.17299874999942,
    "velocity": 0.7874015748031497,
    "duration": 0.09214734374999978
  },
  {
    "name": "E7",
    "midi": 100,
    "time": 78.26915249999942,
    "velocity": 0.7874015748031497,
    "duration": 0.09294862500000534
  },
  {
    "name": "D#7",
    "midi": 99,
    "time": 78.36530624999942,
    "velocity": 0.7874015748031497,
    "duration": 0.3846149999999966
  },
  {
    "name": "B6",
    "midi": 95,
    "time": 78.84607499999942,
    "velocity": 0.7874015748031497,
    "duration": 0.09294862500000534
  },
  {
    "name": "C7",
    "midi": 96,
    "time": 78.94222874999942,
    "velocity": 0.7874015748031497,
    "duration": 0.1923074999999983
  },
  {
    "name": "B6",
    "midi": 95,
    "time": 79.23068999999941,
    "velocity": 0.7874015748031497,
    "duration": 0.28846124999999745
  },
  {
    "name": "E7",
    "midi": 100,
    "time": 79.61530499999941,
    "velocity": 0.7874015748031497,
    "duration": 0.28846124999999745
  },
  {
    "name": "B6",
    "midi": 95,
    "time": 79.9999199999994,
    "velocity": 0.7874015748031497,
    "duration": 0.28846124999999745
  },
  {
    "name": "C7",
    "midi": 96,
    "time": 80.3845349999994,
    "velocity": 0.7874015748031497,
    "duration": 0.1923074999999983
  },
  {
    "name": "B6",
    "midi": 95,
    "time": 80.6409449999994,
    "velocity": 0.7874015748031497,
    "duration": 0.09615374999999915
  },
  {
    "name": "F7",
    "midi": 101,
    "time": 80.6409449999994,
    "velocity": 0.7874015748031497,
    "duration": 0.09615374999999915
  },
  {
    "name": "E7",
    "midi": 100,
    "time": 80.7691499999994,
    "velocity": 0.7874015748031497,
    "duration": 1.0576912500000049
  },
  {
    "name": "C7",
    "midi": 96,
    "time": 81.9229949999994,
    "velocity": 0.7874015748031497,
    "duration": 0.09294862500000534
  },
  {
    "name": "C#7",
    "midi": 97,
    "time": 82.0191487499994,
    "velocity": 0.7874015748031497,
    "duration": 0.1923074999999983
  },
  {
    "name": "C7",
    "midi": 96,
    "time": 82.3076099999994,
    "velocity": 0.7874015748031497,
    "duration": 0.09615374999999915
  },
  {
    "name": "C#7",
    "midi": 97,
    "time": 82.4358149999994,
    "velocity": 0.7874015748031497,
    "duration": 0.09615374999999915
  },
  {
    "name": "C7",
    "midi": 96,
    "time": 82.56401999999939,
    "velocity": 0.7874015748031497,
    "duration": 0.09615374999999915
  },
  {
    "name": "B6",
    "midi": 95,
    "time": 82.69222499999938,
    "velocity": 0.7874015748031497,
    "duration": 0.28846124999999745
  },
  {
    "name": "E7",
    "midi": 100,
    "time": 83.07683999999938,
    "velocity": 0.7874015748031497,
    "duration": 0.28846124999999745
  },
  {
    "name": "E7",
    "midi": 100,
    "time": 83.46145499999938,
    "velocity": 0.7874015748031497,
    "duration": 0.09214734374999978
  },
  {
    "name": "B6",
    "midi": 95,
    "time": 83.55760874999937,
    "velocity": 0.7874015748031497,
    "duration": 1.3461525000000023
  },
  {
    "name": "B6",
    "midi": 95,
    "time": 84.99991499999938,
    "velocity": 0.7874015748031497,
    "duration": 0.09294862500000534
  },
  {
    "name": "C7",
    "midi": 96,
    "time": 85.09606874999938,
    "velocity": 0.7874015748031497,
    "duration": 0.1923074999999983
  },
  {
    "name": "B6",
    "midi": 95,
    "time": 85.38452999999937,
    "velocity": 0.7874015748031497,
    "duration": 0.28846124999999745
  },
  {
    "name": "E7",
    "midi": 100,
    "time": 85.76914499999937,
    "velocity": 0.7874015748031497,
    "duration": 0.28846124999999745
  },
  {
    "name": "B6",
    "midi": 95,
    "time": 86.15375999999937,
    "velocity": 0.7874015748031497,
    "duration": 0.28846124999999745
  },
  {
    "name": "C7",
    "midi": 96,
    "time": 86.53837499999936,
    "velocity": 0.7874015748031497,
    "duration": 0.09615374999999915
  },
  {
    "name": "E7",
    "midi": 100,
    "time": 86.73068249999936,
    "velocity": 0.7874015748031497,
    "duration": 1.2499987500000032
  },
  {
    "name": "G#8",
    "midi": 116,
    "time": 88.07683499999936,
    "velocity": 0.7874015748031497,
    "duration": 1.5384599999999864
  },
  {
    "name": "C7",
    "midi": 96,
    "time": 88.07683499999936,
    "velocity": 0.7874015748031497,
    "duration": 0.09294862500000534
  },
  {
    "name": "C#7",
    "midi": 97,
    "time": 88.17298874999936,
    "velocity": 0.7874015748031497,
    "duration": 0.1923074999999983
  },
  {
    "name": "C7",
    "midi": 96,
    "time": 88.46144999999936,
    "velocity": 0.7874015748031497,
    "duration": 0.28846124999999745
  },
  {
    "name": "B6",
    "midi": 95,
    "time": 88.84606499999936,
    "velocity": 0.7874015748031497,
    "duration": 0.09615374999999915
  },
  {
    "name": "C7",
    "midi": 96,
    "time": 89.03837249999935,
    "velocity": 0.7874015748031497,
    "duration": 0.09214734374999978
  },
  {
    "name": "B6",
    "midi": 95,
    "time": 89.13452624999935,
    "velocity": 0.7874015748031497,
    "duration": 0.09294862500000534
  },
  {
    "name": "E7",
    "midi": 100,
    "time": 89.23067999999935,
    "velocity": 0.7874015748031497,
    "duration": 0.28846124999999745
  },
  {
    "name": "B6",
    "midi": 95,
    "time": 89.61529499999935,
    "velocity": 0.7874015748031497,
    "duration": 1.4423062500000015
  },
  {
    "name": "D7",
    "midi": 98,
    "time": 91.15375499999935,
    "velocity": 0.7874015748031497,
    "duration": 0.09294862500000534
  },
  {
    "name": "D#7",
    "midi": 99,
    "time": 91.24990874999935,
    "velocity": 0.7874015748031497,
    "duration": 0.09374990624999668
  },
  {
    "name": "E7",
    "midi": 100,
    "time": 91.34606249999935,
    "velocity": 0.7874015748031497,
    "duration": 0.09214734374999978
  },
  {
    "name": "B6",
    "midi": 95,
    "time": 91.44221624999935,
    "velocity": 0.7874015748031497,
    "duration": 0.09294862500000534
  },
  {
    "name": "D#7",
    "midi": 99,
    "time": 91.53836999999935,
    "velocity": 0.7874015748031497,
    "duration": 0.09294862500000534
  },
  {
    "name": "E7",
    "midi": 100,
    "time": 91.63452374999935,
    "velocity": 0.7874015748031497,
    "duration": 0.09374990624999668
  },
  {
    "name": "B6",
    "midi": 95,
    "time": 91.73067749999935,
    "velocity": 0.7874015748031497,
    "duration": 0.09214734374999978
  },
  {
    "name": "C7",
    "midi": 96,
    "time": 91.82683124999934,
    "velocity": 0.7874015748031497,
    "duration": 0.09294862500000534
  },
  {
    "name": "B6",
    "midi": 95,
    "time": 91.92298499999934,
    "velocity": 0.7874015748031497,
    "duration": 0.09294862500000534
  },
  {
    "name": "E7",
    "midi": 100,
    "time": 92.01913874999934,
    "velocity": 0.7874015748031497,
    "duration": 0.09374990624999668
  },
  {
    "name": "D#7",
    "midi": 99,
    "time": 92.11529249999934,
    "velocity": 0.7874015748031497,
    "duration": 0.09214734374999978
  },
  {
    "name": "D7",
    "midi": 98,
    "time": 92.21144624999934,
    "velocity": 0.7874015748031497,
    "duration": 0.3846149999999966
  },
  {
    "name": "D7",
    "midi": 98,
    "time": 92.69221499999934,
    "velocity": 0.7874015748031497,
    "duration": 0.09294862500000534
  },
  {
    "name": "D#7",
    "midi": 99,
    "time": 92.78836874999934,
    "velocity": 0.7874015748031497,
    "duration": 0.09374990624999668
  },
  {
    "name": "E7",
    "midi": 100,
    "time": 92.88452249999933,
    "velocity": 0.7874015748031497,
    "duration": 0.09214734374999978
  },
  {
    "name": "D#7",
    "midi": 99,
    "time": 92.98067624999933,
    "velocity": 0.7874015748031497,
    "duration": 0.09294862500000534
  },
  {
    "name": "E7",
    "midi": 100,
    "time": 93.07682999999933,
    "velocity": 0.7874015748031497,
    "duration": 0.09294862500000534
  },
  {
    "name": "D#7",
    "midi": 99,
    "time": 93.17298374999933,
    "velocity": 0.7874015748031497,
    "duration": 0.044871749999998656
  },
  {
    "name": "B6",
    "midi": 95,
    "time": 93.22106062499932,
    "velocity": 0.7874015748031497,
    "duration": 0.09615374999999915
  },
  {
    "name": "E7",
    "midi": 100,
    "time": 93.36529124999933,
    "velocity": 0.7874015748031497,
    "duration": 0.09294862500000534
  },
  {
    "name": "B6",
    "midi": 95,
    "time": 93.46144499999933,
    "velocity": 0.7874015748031497,
    "duration": 0.673076249999994
  },
  {
    "name": "D7",
    "midi": 98,
    "time": 94.23067499999932,
    "velocity": 0.7874015748031497,
    "duration": 0.09294862500000534
  },
  {
    "name": "D#7",
    "midi": 99,
    "time": 94.32682874999932,
    "velocity": 0.7874015748031497,
    "duration": 0.09374990624999668
  },
  {
    "name": "E7",
    "midi": 100,
    "time": 94.42298249999932,
    "velocity": 0.7874015748031497,
    "duration": 0.09214734374999978
  },
  {
    "name": "B6",
    "midi": 95,
    "time": 94.51913624999932,
    "velocity": 0.7874015748031497,
    "duration": 0.09294862500000534
  },
  {
    "name": "E7",
    "midi": 100,
    "time": 94.61528999999932,
    "velocity": 0.7874015748031497,
    "duration": 0.09294862500000534
  },
  {
    "name": "B6",
    "midi": 95,
    "time": 94.71144374999932,
    "velocity": 0.7874015748031497,
    "duration": 0.09374990624999668
  },
  {
    "name": "C7",
    "midi": 96,
    "time": 94.80759749999932,
    "velocity": 0.7874015748031497,
    "duration": 0.1923074999999983
  },
  {
    "name": "B6",
    "midi": 95,
    "time": 95.09605874999932,
    "velocity": 0.7874015748031497,
    "duration": 0.09374990624999668
  },
  {
    "name": "E7",
    "midi": 100,
    "time": 95.19221249999931,
    "velocity": 0.7874015748031497,
    "duration": 0.09214734374999978
  },
  {
    "name": "D#7",
    "midi": 99,
    "time": 95.28836624999931,
    "velocity": 0.7874015748031497,
    "duration": 0.3846149999999966
  },
  {
    "name": "C7",
    "midi": 96,
    "time": 95.76913499999931,
    "velocity": 0.7874015748031497,
    "duration": 0.09294862500000534
  },
  {
    "name": "C#7",
    "midi": 97,
    "time": 95.86528874999931,
    "velocity": 0.7874015748031497,
    "duration": 0.3846149999999966
  },
  {
    "name": "C7",
    "midi": 96,
    "time": 96.3460574999993,
    "velocity": 0.7874015748031497,
    "duration": 0.09214734374999978
  },
  {
    "name": "B6",
    "midi": 95,
    "time": 96.4422112499993,
    "velocity": 0.7874015748031497,
    "duration": 0.09294862500000534
  },
  {
    "name": "C7",
    "midi": 96,
    "time": 96.5383649999993,
    "velocity": 0.7874015748031497,
    "duration": 0.09294862500000534
  },
  {
    "name": "E7",
    "midi": 100,
    "time": 96.6345187499993,
    "velocity": 0.7874015748031497,
    "duration": 0.5769224999999949
  },
  {
    "name": "D7",
    "midi": 98,
    "time": 97.3075949999993,
    "velocity": 0.7874015748031497,
    "duration": 0.09615374999999915
  },
  {
    "name": "E7",
    "midi": 100,
    "time": 97.4999024999993,
    "velocity": 0.7874015748031497,
    "duration": 0.09615374999999915
  },
  {
    "name": "D#7",
    "midi": 99,
    "time": 97.69220999999929,
    "velocity": 0.7874015748031497,
    "duration": 0.09294862500000534
  },
  {
    "name": "E7",
    "midi": 100,
    "time": 97.78836374999929,
    "velocity": 0.7874015748031497,
    "duration": 0.09374990624999668
  },
  {
    "name": "B6",
    "midi": 95,
    "time": 97.88451749999929,
    "velocity": 0.7874015748031497,
    "duration": 0.1923074999999983
  },
  {
    "name": "D#7",
    "midi": 99,
    "time": 98.17297874999929,
    "velocity": 0.7874015748031497,
    "duration": 0.09374990624999668
  },
  {
    "name": "E7",
    "midi": 100,
    "time": 98.26913249999929,
    "velocity": 0.7874015748031497,
    "duration": 0.09214734374999978
  },
  {
    "name": "B6",
    "midi": 95,
    "time": 98.36528624999929,
    "velocity": 0.7874015748031497,
    "duration": 0.09294862500000534
  },
  {
    "name": "C7",
    "midi": 96,
    "time": 98.46143999999929,
    "velocity": 0.7874015748031497,
    "duration": 0.09294862500000534
  },
  {
    "name": "B6",
    "midi": 95,
    "time": 98.55759374999928,
    "velocity": 0.7874015748031497,
    "duration": 0.09374990624999668
  },
  {
    "name": "E7",
    "midi": 100,
    "time": 98.65374749999928,
    "velocity": 0.7874015748031497,
    "duration": 0.09214734374999978
  },
  {
    "name": "D#7",
    "midi": 99,
    "time": 98.74990124999928,
    "velocity": 0.7874015748031497,
    "duration": 0.1923074999999983
  },
  {
    "name": "E7",
    "midi": 100,
    "time": 99.03836249999928,
    "velocity": 0.7874015748031497,
    "duration": 0.09214734374999978
  },
  {
    "name": "B6",
    "midi": 95,
    "time": 99.13451624999928,
    "velocity": 0.7874015748031497,
    "duration": 0.09294862500000534
  },
  {
    "name": "C7",
    "midi": 96,
    "time": 99.23066999999928,
    "velocity": 0.7874015748031497,
    "duration": 0.09294862500000534
  },
  {
    "name": "C#7",
    "midi": 97,
    "time": 99.32682374999928,
    "velocity": 0.7874015748031497,
    "duration": 0.09374990624999668
  },
  {
    "name": "C7",
    "midi": 96,
    "time": 99.42297749999928,
    "velocity": 0.7874015748031497,
    "duration": 0.09214734374999978
  },
  {
    "name": "C#7",
    "midi": 97,
    "time": 99.51913124999928,
    "velocity": 0.7874015748031497,
    "duration": 0.7692299999999932
  },
  {
    "name": "B6",
    "midi": 95,
    "time": 100.38451499999927,
    "velocity": 0.7874015748031497,
    "duration": 0.09294862500000534
  },
  {
    "name": "C7",
    "midi": 96,
    "time": 100.48066874999927,
    "velocity": 0.7874015748031497,
    "duration": 0.09294862500000534
  },
  {
    "name": "C#7",
    "midi": 97,
    "time": 100.57682249999927,
    "velocity": 0.7874015748031497,
    "duration": 0.09294862500000534
  },
  {
    "name": "C7",
    "midi": 96,
    "time": 100.67297624999927,
    "velocity": 0.7874015748031497,
    "duration": 0.09294862500000534
  },
  {
    "name": "B6",
    "midi": 95,
    "time": 100.76912999999927,
    "velocity": 0.7874015748031497,
    "duration": 0.09294862500000534
  },
  {
    "name": "E7",
    "midi": 100,
    "time": 100.86528374999926,
    "velocity": 0.7874015748031497,
    "duration": 0.09294862500000534
  },
  {
    "name": "D#7",
    "midi": 99,
    "time": 100.96143749999926,
    "velocity": 0.7874015748031497,
    "duration": 0.09374990624999668
  },
  {
    "name": "D7",
    "midi": 98,
    "time": 101.05759124999926,
    "velocity": 0.7874015748031497,
    "duration": 0.09374990624999668
  },
  {
    "name": "E7",
    "midi": 100,
    "time": 101.15374499999926,
    "velocity": 0.7874015748031497,
    "duration": 0.09374990624999668
  },
  {
    "name": "D#7",
    "midi": 99,
    "time": 101.24989874999926,
    "velocity": 0.7874015748031497,
    "duration": 0.09374990624999668
  },
  {
    "name": "B6",
    "midi": 95,
    "time": 101.34605249999926,
    "velocity": 0.7874015748031497,
    "duration": 0.09374990624999668
  },
  {
    "name": "C7",
    "midi": 96,
    "time": 101.44220624999926,
    "velocity": 0.7874015748031497,
    "duration": 0.09294862500000534
  },
  {
    "name": "E7",
    "midi": 100,
    "time": 101.53835999999926,
    "velocity": 0.7874015748031497,
    "duration": 0.09294862500000534
  },
  {
    "name": "C7",
    "midi": 96,
    "time": 101.63451374999926,
    "velocity": 0.7874015748031497,
    "duration": 0.09294862500000534
  },
  {
    "name": "B6",
    "midi": 95,
    "time": 101.73066749999926,
    "velocity": 0.7874015748031497,
    "duration": 0.09294862500000534
  },
  {
    "name": "E7",
    "midi": 100,
    "time": 101.82682124999926,
    "velocity": 0.7874015748031497,
    "duration": 0.09294862500000534
  },
  {
    "name": "D#7",
    "midi": 99,
    "time": 101.92297499999925,
    "velocity": 0.7874015748031497,
    "duration": 0.09294862500000534
  },
  {
    "name": "E7",
    "midi": 100,
    "time": 102.01912874999925,
    "velocity": 0.7874015748031497,
    "duration": 0.09294862500000534
  },
  {
    "name": "B6",
    "midi": 95,
    "time": 102.11528249999925,
    "velocity": 0.7874015748031497,
    "duration": 0.09294862500000534
  },
  {
    "name": "E7",
    "midi": 100,
    "time": 102.21143624999925,
    "velocity": 0.7874015748031497,
    "duration": 0.09294862500000534
  },
  {
    "name": "D#7",
    "midi": 99,
    "time": 102.30758999999925,
    "velocity": 0.7874015748031497,
    "duration": 0.09214734374999978
  },
  {
    "name": "D7",
    "midi": 98,
    "time": 102.40374374999925,
    "velocity": 0.7874015748031497,
    "duration": 0.09214734374999978
  },
  {
    "name": "D#7",
    "midi": 99,
    "time": 102.49989749999925,
    "velocity": 0.7874015748031497,
    "duration": 0.09294862500000534
  },
  {
    "name": "E7",
    "midi": 100,
    "time": 102.59605124999925,
    "velocity": 0.7874015748031497,
    "duration": 0.09294862500000534
  },
  {
    "name": "B6",
    "midi": 95,
    "time": 102.69220499999925,
    "velocity": 0.7874015748031497,
    "duration": 0.09374990624999668
  },
  {
    "name": "E7",
    "midi": 100,
    "time": 102.78835874999925,
    "velocity": 0.7874015748031497,
    "duration": 0.09294862500000534
  },
  {
    "name": "D#7",
    "midi": 99,
    "time": 102.88451249999925,
    "velocity": 0.7874015748031497,
    "duration": 0.09294862500000534
  },
  {
    "name": "D7",
    "midi": 98,
    "time": 102.98066624999925,
    "velocity": 0.7874015748031497,
    "duration": 0.3846149999999966
  },
  {
    "name": "G#8",
    "midi": 116,
    "time": 103.46143499999924,
    "velocity": 0.7874015748031497,
    "duration": 1.5384599999999864
  },
  {
    "name": "D7",
    "midi": 98,
    "time": 103.46143499999924,
    "velocity": 0.7874015748031497,
    "duration": 0.09374990624999668
  },
  {
    "name": "D#7",
    "midi": 99,
    "time": 103.55758874999924,
    "velocity": 0.7874015748031497,
    "duration": 0.09294862500000534
  },
  {
    "name": "E7",
    "midi": 100,
    "time": 103.65374249999924,
    "velocity": 0.7874015748031497,
    "duration": 0.09294862500000534
  },
  {
    "name": "B6",
    "midi": 95,
    "time": 103.74989624999924,
    "velocity": 0.7874015748031497,
    "duration": 0.09294862500000534
  },
  {
    "name": "D#7",
    "midi": 99,
    "time": 103.84604999999924,
    "velocity": 0.7874015748031497,
    "duration": 0.09374990624999668
  },
  {
    "name": "E7",
    "midi": 100,
    "time": 103.94220374999924,
    "velocity": 0.7874015748031497,
    "duration": 0.09294862500000534
  },
  {
    "name": "B6",
    "midi": 95,
    "time": 104.03835749999924,
    "velocity": 0.7874015748031497,
    "duration": 0.09294862500000534
  },
  {
    "name": "C7",
    "midi": 96,
    "time": 104.13451124999924,
    "velocity": 0.7874015748031497,
    "duration": 0.09294862500000534
  },
  {
    "name": "B6",
    "midi": 95,
    "time": 104.23066499999923,
    "velocity": 0.7874015748031497,
    "duration": 0.09374990624999668
  },
  {
    "name": "E7",
    "midi": 100,
    "time": 104.32681874999923,
    "velocity": 0.7874015748031497,
    "duration": 0.09374990624999668
  },
  {
    "name": "D#7",
    "midi": 99,
    "time": 104.42297249999923,
    "velocity": 0.7874015748031497,
    "duration": 0.09374990624999668
  },
  {
    "name": "D7",
    "midi": 98,
    "time": 104.51912624999923,
    "velocity": 0.7874015748031497,
    "duration": 0.3846149999999966
  },
  {
    "name": "D7",
    "midi": 98,
    "time": 104.99989499999923,
    "velocity": 0.7874015748031497,
    "duration": 0.09294862500000534
  },
  {
    "name": "D#7",
    "midi": 99,
    "time": 105.09604874999923,
    "velocity": 0.7874015748031497,
    "duration": 0.09294862500000534
  },
  {
    "name": "E7",
    "midi": 100,
    "time": 105.19220249999923,
    "velocity": 0.7874015748031497,
    "duration": 0.09294862500000534
  },
  {
    "name": "D#7",
    "midi": 99,
    "time": 105.28835624999923,
    "velocity": 0.7874015748031497,
    "duration": 0.09294862500000534
  },
  {
    "name": "E7",
    "midi": 100,
    "time": 105.38450999999922,
    "velocity": 0.7874015748031497,
    "duration": 0.09214734374999978
  },
  {
    "name": "D#7",
    "midi": 99,
    "time": 105.48066374999922,
    "velocity": 0.7874015748031497,
    "duration": 0.09374990624999668
  },
  {
    "name": "B6",
    "midi": 95,
    "time": 105.57681749999922,
    "velocity": 0.7874015748031497,
    "duration": 0.09294862500000534
  },
  {
    "name": "E7",
    "midi": 100,
    "time": 105.67297124999922,
    "velocity": 0.7874015748031497,
    "duration": 0.09294862500000534
  },
  {
    "name": "C7",
    "midi": 96,
    "time": 105.76912499999922,
    "velocity": 0.7874015748031497,
    "duration": 0.28846124999999745
  },
  {
    "name": "C7",
    "midi": 96,
    "time": 106.15373999999922,
    "velocity": 0.7874015748031497,
    "duration": 0.09615374999999915
  },
  {
    "name": "D7",
    "midi": 98,
    "time": 106.34604749999922,
    "velocity": 0.7874015748031497,
    "duration": 0.09615374999999915
  },
  {
    "name": "D7",
    "midi": 98,
    "time": 106.53835499999921,
    "velocity": 0.7874015748031497,
    "duration": 0.09214734374999978
  },
  {
    "name": "D#7",
    "midi": 99,
    "time": 106.63450874999921,
    "velocity": 0.7874015748031497,
    "duration": 0.09374990624999668
  },
  {
    "name": "E7",
    "midi": 100,
    "time": 106.73066249999921,
    "velocity": 0.7874015748031497,
    "duration": 0.09294862500000534
  },
  {
    "name": "B6",
    "midi": 95,
    "time": 106.82681624999921,
    "velocity": 0.7874015748031497,
    "duration": 0.09294862500000534
  },
  {
    "name": "D#7",
    "midi": 99,
    "time": 106.92296999999921,
    "velocity": 0.7874015748031497,
    "duration": 0.09294862500000534
  },
  {
    "name": "E7",
    "midi": 100,
    "time": 107.01912374999921,
    "velocity": 0.7874015748031497,
    "duration": 0.09294862500000534
  },
  {
    "name": "B6",
    "midi": 95,
    "time": 107.11527749999921,
    "velocity": 0.7874015748031497,
    "duration": 0.09214734374999978
  },
  {
    "name": "C7",
    "midi": 96,
    "time": 107.21143124999921,
    "velocity": 0.7874015748031497,
    "duration": 0.09374990624999668
  },
  {
    "name": "B6",
    "midi": 95,
    "time": 107.30758499999921,
    "velocity": 0.7874015748031497,
    "duration": 0.09294862500000534
  },
  {
    "name": "E7",
    "midi": 100,
    "time": 107.4037387499992,
    "velocity": 0.7874015748031497,
    "duration": 0.09294862500000534
  },
  {
    "name": "D#7",
    "midi": 99,
    "time": 107.4998924999992,
    "velocity": 0.7874015748031497,
    "duration": 0.09294862500000534
  },
  {
    "name": "D7",
    "midi": 98,
    "time": 107.5960462499992,
    "velocity": 0.7874015748031497,
    "duration": 0.3846149999999966
  },
  {
    "name": "D7",
    "midi": 98,
    "time": 108.0768149999992,
    "velocity": 0.7874015748031497,
    "duration": 0.09615374999999915
  },
  {
    "name": "C7",
    "midi": 96,
    "time": 108.2691224999992,
    "velocity": 0.7874015748031497,
    "duration": 0.09214734374999978
  },
  {
    "name": "C#7",
    "midi": 97,
    "time": 108.3652762499992,
    "velocity": 0.7874015748031497,
    "duration": 0.1923074999999983
  },
  {
    "name": "C7",
    "midi": 96,
    "time": 108.6537374999992,
    "velocity": 0.7874015748031497,
    "duration": 0.09294862500000534
  },
  {
    "name": "B6",
    "midi": 95,
    "time": 108.7498912499992,
    "velocity": 0.7874015748031497,
    "duration": 0.09214734374999978
  },
  {
    "name": "C7",
    "midi": 96,
    "time": 108.8460449999992,
    "velocity": 0.7874015748031497,
    "duration": 0.09294862500000534
  },
  {
    "name": "E7",
    "midi": 100,
    "time": 108.94219874999919,
    "velocity": 0.7874015748031497,
    "duration": 0.5769224999999949
  },
  {
    "name": "D7",
    "midi": 98,
    "time": 109.61527499999919,
    "velocity": 0.7874015748031497,
    "duration": 0.09294862500000534
  },
  {
    "name": "D#7",
    "midi": 99,
    "time": 109.71142874999919,
    "velocity": 0.7874015748031497,
    "duration": 0.09294862500000534
  },
  {
    "name": "E7",
    "midi": 100,
    "time": 109.80758249999919,
    "velocity": 0.7874015748031497,
    "duration": 0.09294862500000534
  },
  {
    "name": "B6",
    "midi": 95,
    "time": 109.90373624999918,
    "velocity": 0.7874015748031497,
    "duration": 0.09374990624999668
  },
  {
    "name": "D#7",
    "midi": 99,
    "time": 109.99988999999918,
    "velocity": 0.7874015748031497,
    "duration": 0.09294862500000534
  },
  {
    "name": "B6",
    "midi": 95,
    "time": 110.09604374999918,
    "velocity": 0.7874015748031497,
    "duration": 0.09214734374999978
  },
  {
    "name": "C#7",
    "midi": 97,
    "time": 110.19219749999918,
    "velocity": 0.7874015748031497,
    "duration": 0.09214734374999978
  },
  {
    "name": "C7",
    "midi": 96,
    "time": 110.28835124999918,
    "velocity": 0.7874015748031497,
    "duration": 0.09294862500000534
  },
  {
    "name": "B6",
    "midi": 95,
    "time": 110.38450499999918,
    "velocity": 0.7874015748031497,
    "duration": 0.09294862500000534
  },
  {
    "name": "C7",
    "midi": 96,
    "time": 110.48065874999918,
    "velocity": 0.7874015748031497,
    "duration": 0.09294862500000534
  },
  {
    "name": "C#7",
    "midi": 97,
    "time": 110.57681249999918,
    "velocity": 0.7874015748031497,
    "duration": 0.1923074999999983
  },
  {
    "name": "B6",
    "midi": 95,
    "time": 110.86527374999918,
    "velocity": 0.7874015748031497,
    "duration": 0.09615374999999915
  },
  {
    "name": "D#7",
    "midi": 99,
    "time": 111.05758124999917,
    "velocity": 0.7874015748031497,
    "duration": 0.09294862500000534
  },
  {
    "name": "D7",
    "midi": 98,
    "time": 111.15373499999917,
    "velocity": 0.7874015748031497,
    "duration": 0.09615374999999915
  },
  {
    "name": "D#7",
    "midi": 99,
    "time": 111.34604249999917,
    "velocity": 0.7874015748031497,
    "duration": 0.09374990624999668
  },
  {
    "name": "E7",
    "midi": 100,
    "time": 111.44219624999917,
    "velocity": 0.7874015748031497,
    "duration": 0.09374990624999668
  },
  {
    "name": "B6",
    "midi": 95,
    "time": 111.53834999999917,
    "velocity": 0.7874015748031497,
    "duration": 0.09294862500000534
  },
  {
    "name": "C7",
    "midi": 96,
    "time": 111.63450374999917,
    "velocity": 0.7874015748031497,
    "duration": 0.09294862500000534
  },
  {
    "name": "B6",
    "midi": 95,
    "time": 111.73065749999917,
    "velocity": 0.7874015748031497,
    "duration": 0.09294862500000534
  },
  {
    "name": "C7",
    "midi": 96,
    "time": 111.82681124999917,
    "velocity": 0.7874015748031497,
    "duration": 0.673076249999994
  },
  {
    "name": "B6",
    "midi": 95,
    "time": 112.59604124999916,
    "velocity": 0.7874015748031497,
    "duration": 0.09374990624999668
  },
  {
    "name": "C7",
    "midi": 96,
    "time": 112.69219499999916,
    "velocity": 0.7874015748031497,
    "duration": 0.09294862500000534
  },
  {
    "name": "C#7",
    "midi": 97,
    "time": 112.78834874999916,
    "velocity": 0.7874015748031497,
    "duration": 0.09294862500000534
  },
  {
    "name": "C7",
    "midi": 96,
    "time": 112.88450249999916,
    "velocity": 0.7874015748031497,
    "duration": 0.09294862500000534
  },
  {
    "name": "B6",
    "midi": 95,
    "time": 112.98065624999916,
    "velocity": 0.7874015748031497,
    "duration": 0.09294862500000534
  },
  {
    "name": "C#7",
    "midi": 97,
    "time": 113.07680999999916,
    "velocity": 0.7874015748031497,
    "duration": 0.09374990624999668
  },
  {
    "name": "C7",
    "midi": 96,
    "time": 113.17296374999916,
    "velocity": 0.7874015748031497,
    "duration": 0.09374990624999668
  },
  {
    "name": "D7",
    "midi": 98,
    "time": 113.26911749999915,
    "velocity": 0.7874015748031497,
    "duration": 0.09294862500000534
  },
  {
    "name": "C#7",
    "midi": 97,
    "time": 113.36527124999915,
    "velocity": 0.7874015748031497,
    "duration": 0.09294862500000534
  },
  {
    "name": "D#7",
    "midi": 99,
    "time": 113.46142499999915,
    "velocity": 0.7874015748031497,
    "duration": 0.09294862500000534
  },
  {
    "name": "D7",
    "midi": 98,
    "time": 113.55757874999915,
    "velocity": 0.7874015748031497,
    "duration": 0.0008012812500055588
  },
  {
    "name": "F7",
    "midi": 101,
    "time": 113.55757874999915,
    "velocity": 0.7874015748031497,
    "duration": 0.0008012812500055588
  },
  {
    "name": "E7",
    "midi": 100,
    "time": 113.65373249999915,
    "velocity": 0.7874015748031497,
    "duration": 0.09374990624999668
  },
  {
    "name": "D#7",
    "midi": 99,
    "time": 113.74988624999915,
    "velocity": 0.7874015748031497,
    "duration": 0.09374990624999668
  },
  {
    "name": "D7",
    "midi": 98,
    "time": 113.84603999999915,
    "velocity": 0.7874015748031497,
    "duration": 0.48076874999999575
  },
  {
    "name": "B6",
    "midi": 95,
    "time": 114.42296249999914,
    "velocity": 0.7874015748031497,
    "duration": 0.09615374999999915
  },
  {
    "name": "C#7",
    "midi": 97,
    "time": 114.61526999999914,
    "velocity": 0.7874015748031497,
    "duration": 0.09294862500000534
  },
  {
    "name": "C7",
    "midi": 96,
    "time": 114.71142374999914,
    "velocity": 0.7874015748031497,
    "duration": 0.09294862500000534
  },
  {
    "name": "B6",
    "midi": 95,
    "time": 114.80757749999914,
    "velocity": 0.7874015748031497,
    "duration": 0.09214734374999978
  },
  {
    "name": "E7",
    "midi": 100,
    "time": 114.90373124999914,
    "velocity": 0.7874015748031497,
    "duration": 0.09374990624999668
  },
  {
    "name": "B6",
    "midi": 95,
    "time": 114.99988499999914,
    "velocity": 0.7874015748031497,
    "duration": 0.09294862500000534
  },
  {
    "name": "E7",
    "midi": 100,
    "time": 115.09603874999914,
    "velocity": 0.7874015748031497,
    "duration": 0.09294862500000534
  },
  {
    "name": "D#7",
    "midi": 99,
    "time": 115.19219249999914,
    "velocity": 0.7874015748031497,
    "duration": 0.09294862500000534
  },
  {
    "name": "D7",
    "midi": 98,
    "time": 115.28834624999914,
    "velocity": 0.7874015748031497,
    "duration": 0.09294862500000534
  },
  {
    "name": "E7",
    "midi": 100,
    "time": 115.38449999999914,
    "velocity": 0.7874015748031497,
    "duration": 0.09294862500000534
  },
  {
    "name": "D#7",
    "midi": 99,
    "time": 115.48065374999914,
    "velocity": 0.7874015748031497,
    "duration": 0.09294862500000534
  },
  {
    "name": "D7",
    "midi": 98,
    "time": 115.57680749999913,
    "velocity": 0.7874015748031497,
    "duration": 0.09374990624999668
  },
  {
    "name": "D#7",
    "midi": 99,
    "time": 115.67296124999913,
    "velocity": 0.7874015748031497,
    "duration": 0.09294862500000534
  },
  {
    "name": "B6",
    "midi": 95,
    "time": 115.76911499999913,
    "velocity": 0.7874015748031497,
    "duration": 0.09294862500000534
  },
  {
    "name": "E7",
    "midi": 100,
    "time": 115.86526874999913,
    "velocity": 0.7874015748031497,
    "duration": 0.09294862500000534
  },
  {
    "name": "D#7",
    "midi": 99,
    "time": 115.96142249999913,
    "velocity": 0.7874015748031497,
    "duration": 0.09374990624999668
  },
  {
    "name": "E7",
    "midi": 100,
    "time": 116.05757624999913,
    "velocity": 0.7874015748031497,
    "duration": 0.09294862500000534
  },
  {
    "name": "D7",
    "midi": 98,
    "time": 116.15372999999913,
    "velocity": 0.7874015748031497,
    "duration": 0.09294862500000534
  },
  {
    "name": "D#7",
    "midi": 99,
    "time": 116.24988374999913,
    "velocity": 0.7874015748031497,
    "duration": 0.09294862500000534
  },
  {
    "name": "E7",
    "midi": 100,
    "time": 116.34603749999913,
    "velocity": 0.7874015748031497,
    "duration": 0.09374990624999668
  },
  {
    "name": "B6",
    "midi": 95,
    "time": 116.44219124999913,
    "velocity": 0.7874015748031497,
    "duration": 0.09294862500000534
  },
  {
    "name": "C7",
    "midi": 96,
    "time": 116.53834499999913,
    "velocity": 0.7874015748031497,
    "duration": 0.09294862500000534
  },
  {
    "name": "B6",
    "midi": 95,
    "time": 116.63449874999912,
    "velocity": 0.7874015748031497,
    "duration": 0.09294862500000534
  },
  {
    "name": "E7",
    "midi": 100,
    "time": 116.73065249999912,
    "velocity": 0.7874015748031497,
    "duration": 0.09374990624999668
  },
  {
    "name": "D#7",
    "midi": 99,
    "time": 116.82680624999912,
    "velocity": 0.7874015748031497,
    "duration": 0.09294862500000534
  },
  {
    "name": "E7",
    "midi": 100,
    "time": 116.92295999999912,
    "velocity": 0.7874015748031497,
    "duration": 0.09294862500000534
  },
  {
    "name": "D#7",
    "midi": 99,
    "time": 117.01911374999912,
    "velocity": 0.7874015748031497,
    "duration": 0.09294862500000534
  },
  {
    "name": "D7",
    "midi": 98,
    "time": 117.11526749999912,
    "velocity": 0.7874015748031497,
    "duration": 0.09374990624999668
  },
  {
    "name": "D#7",
    "midi": 99,
    "time": 117.21142124999912,
    "velocity": 0.7874015748031497,
    "duration": 0.09294862500000534
  },
  {
    "name": "G#8",
    "midi": 116,
    "time": 117.30757499999912,
    "velocity": 0.7874015748031497,
    "duration": 1.5384599999999864
  },
  {
    "name": "D7",
    "midi": 98,
    "time": 117.30757499999912,
    "velocity": 0.7874015748031497,
    "duration": 0.09294862500000534
  },
  {
    "name": "D#7",
    "midi": 99,
    "time": 117.40372874999912,
    "velocity": 0.7874015748031497,
    "duration": 0.09294862500000534
  },
  {
    "name": "B6",
    "midi": 95,
    "time": 117.49988249999912,
    "velocity": 0.7874015748031497,
    "duration": 0.09374990624999668
  },
  {
    "name": "C7",
    "midi": 96,
    "time": 117.59603624999912,
    "velocity": 0.7874015748031497,
    "duration": 0.09294862500000534
  },
  {
    "name": "C#7",
    "midi": 97,
    "time": 117.69218999999912,
    "velocity": 0.7874015748031497,
    "duration": 0.09615374999999915
  },
  {
    "name": "C7",
    "midi": 96,
    "time": 117.88449749999911,
    "velocity": 0.7874015748031497,
    "duration": 0.09615374999999915
  },
  {
    "name": "F7",
    "midi": 101,
    "time": 117.88449749999911,
    "velocity": 0.7874015748031497,
    "duration": 0.09615374999999915
  },
  {
    "name": "C#7",
    "midi": 97,
    "time": 118.07680499999911,
    "velocity": 0.7874015748031497,
    "duration": 0.09294862500000534
  },
  {
    "name": "F7",
    "midi": 101,
    "time": 118.07680499999911,
    "velocity": 0.7874015748031497,
    "duration": 0.09294862500000534
  },
  {
    "name": "C7",
    "midi": 96,
    "time": 118.17295874999911,
    "velocity": 0.7874015748031497,
    "duration": 0.09294862500000534
  },
  {
    "name": "F7",
    "midi": 101,
    "time": 118.17295874999911,
    "velocity": 0.7874015748031497,
    "duration": 0.09294862500000534
  },
  {
    "name": "C#7",
    "midi": 97,
    "time": 118.26911249999911,
    "velocity": 0.7874015748031497,
    "duration": 0.673076249999994
  },
  {
    "name": "F7",
    "midi": 101,
    "time": 118.26911249999911,
    "velocity": 0.7874015748031497,
    "duration": 0.673076249999994
  },
  {
    "name": "C7",
    "midi": 96,
    "time": 119.0383424999991,
    "velocity": 0.7874015748031497,
    "duration": 0.09374990624999668
  },
  {
    "name": "E7",
    "midi": 100,
    "time": 119.1344962499991,
    "velocity": 0.7874015748031497,
    "duration": 0.09294862500000534
  },
  {
    "name": "D#7",
    "midi": 99,
    "time": 119.2306499999991,
    "velocity": 0.7874015748031497,
    "duration": 0.09294862500000534
  },
  {
    "name": "E7",
    "midi": 100,
    "time": 119.3268037499991,
    "velocity": 0.7874015748031497,
    "duration": 0.09294862500000534
  },
  {
    "name": "D#7",
    "midi": 99,
    "time": 119.4229574999991,
    "velocity": 0.7874015748031497,
    "duration": 0.09374990624999668
  },
  {
    "name": "D7",
    "midi": 98,
    "time": 119.5191112499991,
    "velocity": 0.7874015748031497,
    "duration": 0.09615374999999915
  },
  {
    "name": "D7",
    "midi": 98,
    "time": 119.8075724999991,
    "velocity": 0.7874015748031497,
    "duration": 0.09374990624999668
  },
  {
    "name": "D7",
    "midi": 98,
    "time": 119.9037262499991,
    "velocity": 0.7874015748031497,
    "duration": 0.09294862500000534
  },
  {
    "name": "D7",
    "midi": 98,
    "time": 119.9998799999991,
    "velocity": 0.7874015748031497,
    "duration": 0.09294862500000534
  },
  {
    "name": "D7",
    "midi": 98,
    "time": 120.0960337499991,
    "velocity": 0.7874015748031497,
    "duration": 0.09294862500000534
  },
  {
    "name": "D#7",
    "midi": 99,
    "time": 120.1921874999991,
    "velocity": 0.7874015748031497,
    "duration": 0.09374990624999668
  },
  {
    "name": "D#7",
    "midi": 99,
    "time": 120.28834124999909,
    "velocity": 0.7874015748031497,
    "duration": 0.09294862500000534
  },
  {
    "name": "E7",
    "midi": 100,
    "time": 120.38449499999909,
    "velocity": 0.7874015748031497,
    "duration": 0.09294862500000534
  },
  {
    "name": "B6",
    "midi": 95,
    "time": 120.48064874999909,
    "velocity": 0.7874015748031497,
    "duration": 0.09294862500000534
  },
  {
    "name": "D#7",
    "midi": 99,
    "time": 120.57680249999909,
    "velocity": 0.7874015748031497,
    "duration": 0.09374990624999668
  },
  {
    "name": "E7",
    "midi": 100,
    "time": 120.67295624999909,
    "velocity": 0.7874015748031497,
    "duration": 0.09294862500000534
  },
  {
    "name": "B6",
    "midi": 95,
    "time": 120.76910999999909,
    "velocity": 0.7874015748031497,
    "duration": 0.09294862500000534
  },
  {
    "name": "C7",
    "midi": 96,
    "time": 120.86526374999909,
    "velocity": 0.7874015748031497,
    "duration": 0.09294862500000534
  },
  {
    "name": "B6",
    "midi": 95,
    "time": 120.96141749999909,
    "velocity": 0.7874015748031497,
    "duration": 0.09374990624999668
  },
  {
    "name": "C7",
    "midi": 96,
    "time": 121.05757124999909,
    "velocity": 0.7874015748031497,
    "duration": 0.09294862500000534
  },
  {
    "name": "B6",
    "midi": 95,
    "time": 121.15372499999908,
    "velocity": 0.7874015748031497,
    "duration": 0.48076874999999575
  },
  {
    "name": "C7",
    "midi": 96,
    "time": 121.73064749999908,
    "velocity": 0.7874015748031497,
    "duration": 0.09374990624999668
  },
  {
    "name": "G7",
    "midi": 103,
    "time": 121.73064749999908,
    "velocity": 0.7874015748031497,
    "duration": 7.788453749999874
  },
  {
    "name": "C#7",
    "midi": 97,
    "time": 121.82680124999908,
    "velocity": 0.7874015748031497,
    "duration": 0.3846149999999966
  },
  {
    "name": "C7",
    "midi": 96,
    "time": 122.30756999999907,
    "velocity": 0.7874015748031497,
    "duration": 0.09294862500000534
  },
  {
    "name": "B6",
    "midi": 95,
    "time": 122.40372374999907,
    "velocity": 0.7874015748031497,
    "duration": 0.09294862500000534
  },
  {
    "name": "E7",
    "midi": 100,
    "time": 122.49987749999907,
    "velocity": 0.7874015748031497,
    "duration": 0.09374990624999668
  },
  {
    "name": "C7",
    "midi": 96,
    "time": 122.59603124999907,
    "velocity": 0.7874015748031497,
    "duration": 0.09294862500000534
  },
  {
    "name": "B6",
    "midi": 95,
    "time": 122.69218499999907,
    "velocity": 0.7874015748031497,
    "duration": 0.09294862500000534
  },
  {
    "name": "E7",
    "midi": 100,
    "time": 122.78833874999907,
    "velocity": 0.7874015748031497,
    "duration": 0.09294862500000534
  },
  {
    "name": "B6",
    "midi": 95,
    "time": 122.88449249999907,
    "velocity": 0.7874015748031497,
    "duration": 0.1923074999999983
  },
  {
    "name": "C#7",
    "midi": 97,
    "time": 123.17295374999907,
    "velocity": 0.7874015748031497,
    "duration": 0.09294862500000534
  },
  {
    "name": "C7",
    "midi": 96,
    "time": 123.26910749999907,
    "velocity": 0.7874015748031497,
    "duration": 0.09374990624999668
  },
  {
    "name": "B6",
    "midi": 95,
    "time": 123.36526124999907,
    "velocity": 0.7874015748031497,
    "duration": 0.09294862500000534
  },
  {
    "name": "C#7",
    "midi": 97,
    "time": 123.46141499999906,
    "velocity": 0.7874015748031497,
    "duration": 0.09294862500000534
  },
  {
    "name": "C7",
    "midi": 96,
    "time": 123.55756874999906,
    "velocity": 0.7874015748031497,
    "duration": 0.09294862500000534
  },
  {
    "name": "B6",
    "midi": 95,
    "time": 123.65372249999906,
    "velocity": 0.7874015748031497,
    "duration": 0.09294862500000534
  },
  {
    "name": "C#7",
    "midi": 97,
    "time": 123.74987624999906,
    "velocity": 0.7874015748031497,
    "duration": 0.09294862500000534
  },
  {
    "name": "C7",
    "midi": 96,
    "time": 123.84602999999906,
    "velocity": 0.7874015748031497,
    "duration": 0.09294862500000534
  },
  {
    "name": "B6",
    "midi": 95,
    "time": 123.94218374999906,
    "velocity": 0.7874015748031497,
    "duration": 0.09294862500000534
  },
  {
    "name": "C#7",
    "midi": 97,
    "time": 124.03833749999906,
    "velocity": 0.7874015748031497,
    "duration": 0.09374990624999668
  },
  {
    "name": "C7",
    "midi": 96,
    "time": 124.13449124999906,
    "velocity": 0.7874015748031497,
    "duration": 0.09374990624999668
  },
  {
    "name": "B6",
    "midi": 95,
    "time": 124.23064499999906,
    "velocity": 0.7874015748031497,
    "duration": 0.09294862500000534
  },
  {
    "name": "E7",
    "midi": 100,
    "time": 124.32679874999906,
    "velocity": 0.7874015748031497,
    "duration": 0.09294862500000534
  },
  {
    "name": "D#7",
    "midi": 99,
    "time": 124.42295249999906,
    "velocity": 0.7874015748031497,
    "duration": 0.09374990624999668
  },
  {
    "name": "D7",
    "midi": 98,
    "time": 124.51910624999906,
    "velocity": 0.7874015748031497,
    "duration": 0.09294862500000534
  },
  {
    "name": "E7",
    "midi": 100,
    "time": 124.61525999999905,
    "velocity": 0.7874015748031497,
    "duration": 0.09294862500000534
  },
  {
    "name": "D#7",
    "midi": 99,
    "time": 124.71141374999905,
    "velocity": 0.7874015748031497,
    "duration": 0.09374990624999668
  },
  {
    "name": "D7",
    "midi": 98,
    "time": 124.80756749999905,
    "velocity": 0.7874015748031497,
    "duration": 0.09294862500000534
  },
  {
    "name": "C7",
    "midi": 96,
    "time": 124.90372124999905,
    "velocity": 0.7874015748031497,
    "duration": 0.09294862500000534
  },
  {
    "name": "B6",
    "midi": 95,
    "time": 124.99987499999905,
    "velocity": 0.7874015748031497,
    "duration": 0.09374990624999668
  },
  {
    "name": "E7",
    "midi": 100,
    "time": 125.09602874999905,
    "velocity": 0.7874015748031497,
    "duration": 0.09294862500000534
  },
  {
    "name": "B6",
    "midi": 95,
    "time": 125.19218249999905,
    "velocity": 0.7874015748031497,
    "duration": 0.09294862500000534
  },
  {
    "name": "E7",
    "midi": 100,
    "time": 125.28833624999905,
    "velocity": 0.7874015748031497,
    "duration": 0.09374990624999668
  },
  {
    "name": "D#7",
    "midi": 99,
    "time": 125.38448999999905,
    "velocity": 0.7874015748031497,
    "duration": 0.09294862500000534
  },
  {
    "name": "E7",
    "midi": 100,
    "time": 125.48064374999905,
    "velocity": 0.7874015748031497,
    "duration": 0.09294862500000534
  },
  {
    "name": "D#7",
    "midi": 99,
    "time": 125.57679749999905,
    "velocity": 0.7874015748031497,
    "duration": 0.09374990624999668
  },
  {
    "name": "D7",
    "midi": 98,
    "time": 125.67295124999904,
    "velocity": 0.7874015748031497,
    "duration": 0.09294862500000534
  },
  {
    "name": "C#7",
    "midi": 97,
    "time": 125.76910499999904,
    "velocity": 0.7874015748031497,
    "duration": 0.09294862500000534
  },
  {
    "name": "C7",
    "midi": 96,
    "time": 125.86525874999904,
    "velocity": 0.7874015748031497,
    "duration": 0.09374990624999668
  },
  {
    "name": "B6",
    "midi": 95,
    "time": 125.96141249999904,
    "velocity": 0.7874015748031497,
    "duration": 0.09294862500000534
  },
  {
    "name": "E7",
    "midi": 100,
    "time": 126.05756624999904,
    "velocity": 0.7874015748031497,
    "duration": 0.09294862500000534
  },
  {
    "name": "D#7",
    "midi": 99,
    "time": 126.15371999999904,
    "velocity": 0.7874015748031497,
    "duration": 0.09294862500000534
  },
  {
    "name": "D7",
    "midi": 98,
    "time": 126.24987374999904,
    "velocity": 0.7874015748031497,
    "duration": 0.09294862500000534
  },
  {
    "name": "D#7",
    "midi": 99,
    "time": 126.34602749999904,
    "velocity": 0.7874015748031497,
    "duration": 0.09294862500000534
  },
  {
    "name": "E7",
    "midi": 100,
    "time": 126.44218124999904,
    "velocity": 0.7874015748031497,
    "duration": 0.09294862500000534
  },
  {
    "name": "B6",
    "midi": 95,
    "time": 126.53833499999904,
    "velocity": 0.7874015748031497,
    "duration": 0.09374990624999668
  },
  {
    "name": "D#7",
    "midi": 99,
    "time": 126.63448874999904,
    "velocity": 0.7874015748031497,
    "duration": 0.09214734374999978
  },
  {
    "name": "E7",
    "midi": 100,
    "time": 126.73064249999904,
    "velocity": 0.7874015748031497,
    "duration": 0.09294862500000534
  },
  {
    "name": "B6",
    "midi": 95,
    "time": 126.82679624999903,
    "velocity": 0.7874015748031497,
    "duration": 0.09294862500000534
  },
  {
    "name": "E7",
    "midi": 100,
    "time": 126.92294999999903,
    "velocity": 0.7874015748031497,
    "duration": 0.09374990624999668
  },
  {
    "name": "B6",
    "midi": 95,
    "time": 127.01910374999903,
    "velocity": 0.7874015748031497,
    "duration": 0.09214734374999978
  },
  {
    "name": "C7",
    "midi": 96,
    "time": 127.11525749999903,
    "velocity": 0.7874015748031497,
    "duration": 0.09294862500000534
  },
  {
    "name": "B6",
    "midi": 95,
    "time": 127.21141124999903,
    "velocity": 0.7874015748031497,
    "duration": 0.09294862500000534
  },
  {
    "name": "C7",
    "midi": 96,
    "time": 127.30756499999903,
    "velocity": 0.7874015748031497,
    "duration": 0.09374990624999668
  },
  {
    "name": "C#7",
    "midi": 97,
    "time": 127.40371874999903,
    "velocity": 0.7874015748031497,
    "duration": 0.09214734374999978
  },
  {
    "name": "D7",
    "midi": 98,
    "time": 127.49987249999903,
    "velocity": 0.7874015748031497,
    "duration": 0.09294862500000534
  },
  {
    "name": "D#7",
    "midi": 99,
    "time": 127.59602624999903,
    "velocity": 0.7874015748031497,
    "duration": 0.09294862500000534
  },
  {
    "name": "E7",
    "midi": 100,
    "time": 127.69217999999903,
    "velocity": 0.7874015748031497,
    "duration": 0.09374990624999668
  },
  {
    "name": "B6",
    "midi": 95,
    "time": 127.78833374999903,
    "velocity": 0.7874015748031497,
    "duration": 0.09214734374999978
  },
  {
    "name": "C7",
    "midi": 96,
    "time": 127.88448749999903,
    "velocity": 0.7874015748031497,
    "duration": 0.09294862500000534
  },
  {
    "name": "B6",
    "midi": 95,
    "time": 127.98064124999902,
    "velocity": 0.7874015748031497,
    "duration": 0.09294862499999113
  },
  {
    "name": "E7",
    "midi": 100,
    "time": 128.076794999999,
    "velocity": 0.7874015748031497,
    "duration": 0.09374990624999668
  },
  {
    "name": "D#7",
    "midi": 99,
    "time": 128.172948749999,
    "velocity": 0.7874015748031497,
    "duration": 0.09214734375001399
  },
  {
    "name": "B6",
    "midi": 95,
    "time": 128.269102499999,
    "velocity": 0.7874015748031497,
    "duration": 0.09294862499999113
  },
  {
    "name": "E7",
    "midi": 100,
    "time": 128.365256249999,
    "velocity": 0.7874015748031497,
    "duration": 0.09294862499999113
  },
  {
    "name": "D#7",
    "midi": 99,
    "time": 128.46140999999898,
    "velocity": 0.7874015748031497,
    "duration": 0.09374990624999668
  },
  {
    "name": "D7",
    "midi": 98,
    "time": 128.55756374999896,
    "velocity": 0.7874015748031497,
    "duration": 0.09214734375001399
  },
  {
    "name": "D#7",
    "midi": 99,
    "time": 128.65371749999898,
    "velocity": 0.7874015748031497,
    "duration": 0.060897374999996146
  },
  {
    "name": "E7",
    "midi": 100,
    "time": 128.71781999999897,
    "velocity": 0.7874015748031497,
    "duration": 0.04807687499999247
  },
  {
    "name": "D#7",
    "midi": 99,
    "time": 128.78192249999896,
    "velocity": 0.7874015748031497,
    "duration": 0.04807687499999247
  },
  {
    "name": "D7",
    "midi": 98,
    "time": 128.84602499999895,
    "velocity": 0.7874015748031497,
    "duration": 0.6730762500000083
  },
  {
    "name": "G#8",
    "midi": 116,
    "time": 129.61525499999897,
    "velocity": 0.7874015748031497,
    "duration": 1.66666500000008
  },
  {
    "name": "D#7",
    "midi": 99,
    "time": 129.61525499999897,
    "velocity": 0.7874015748031497,
    "duration": 0.28846125000001166
  },
  {
    "name": "E7",
    "midi": 100,
    "time": 129.999869999999,
    "velocity": 0.7874015748031497,
    "duration": 0.28846125000001166
  },
  {
    "name": "D#7",
    "midi": 99,
    "time": 130.38448499999902,
    "velocity": 0.7874015748031497,
    "duration": 0.28846125000001166
  },
  {
    "name": "E7",
    "midi": 100,
    "time": 130.76909999999904,
    "velocity": 0.7874015748031497,
    "duration": 0.28846125000001166
  },
  {
    "name": "E7",
    "midi": 100,
    "time": 131.15371499999907,
    "velocity": 0.7874015748031497,
    "duration": 0.09374990624999668
  },
  {
    "name": "B6",
    "midi": 95,
    "time": 131.24986874999905,
    "velocity": 0.7874015748031497,
    "duration": 1.2499987500000032
  },
  {
    "name": "C7",
    "midi": 96,
    "time": 132.69217499999905,
    "velocity": 0.7874015748031497,
    "duration": 0.09294862499999113
  },
  {
    "name": "B6",
    "midi": 95,
    "time": 132.78832874999904,
    "velocity": 0.7874015748031497,
    "duration": 0.09294862499999113
  },
  {
    "name": "E7",
    "midi": 100,
    "time": 132.88448249999902,
    "velocity": 0.7874015748031497,
    "duration": 0.09294862499999113
  },
  {
    "name": "B6",
    "midi": 95,
    "time": 132.980636249999,
    "velocity": 0.7874015748031497,
    "duration": 0.09294862499999113
  },
  {
    "name": "C7",
    "midi": 96,
    "time": 133.076789999999,
    "velocity": 0.7874015748031497,
    "duration": 0.09294862499999113
  },
  {
    "name": "B6",
    "midi": 95,
    "time": 133.17294374999898,
    "velocity": 0.7874015748031497,
    "duration": 0.09294862499999113
  },
  {
    "name": "C#7",
    "midi": 97,
    "time": 133.26909749999896,
    "velocity": 0.7874015748031497,
    "duration": 0.09374990624999668
  },
  {
    "name": "B6",
    "midi": 95,
    "time": 133.36525124999895,
    "velocity": 0.7874015748031497,
    "duration": 0.09294862499999113
  },
  {
    "name": "C7",
    "midi": 96,
    "time": 133.46140499999893,
    "velocity": 0.7874015748031497,
    "duration": 0.09374990624999668
  },
  {
    "name": "B6",
    "midi": 95,
    "time": 133.55755874999892,
    "velocity": 0.7874015748031497,
    "duration": 0.09294862499999113
  },
  {
    "name": "E7",
    "midi": 100,
    "time": 133.6537124999989,
    "velocity": 0.7874015748031497,
    "duration": 0.09214734375001399
  },
  {
    "name": "B6",
    "midi": 95,
    "time": 133.74986624999892,
    "velocity": 0.7874015748031497,
    "duration": 0.09294862499999113
  },
  {
    "name": "C7",
    "midi": 96,
    "time": 133.8460199999989,
    "velocity": 0.7874015748031497,
    "duration": 0.09214734375001399
  },
  {
    "name": "B6",
    "midi": 95,
    "time": 133.94217374999891,
    "velocity": 0.7874015748031497,
    "duration": 0.09294862499999113
  },
  {
    "name": "E7",
    "midi": 100,
    "time": 134.0383274999989,
    "velocity": 0.7874015748031497,
    "duration": 0.09294862499999113
  },
  {
    "name": "D#7",
    "midi": 99,
    "time": 134.13448124999888,
    "velocity": 0.7874015748031497,
    "duration": 0.09294862499999113
  },
  {
    "name": "E7",
    "midi": 100,
    "time": 134.23063499999887,
    "velocity": 0.7874015748031497,
    "duration": 0.09374990624999668
  },
  {
    "name": "D#7",
    "midi": 99,
    "time": 134.32678874999885,
    "velocity": 0.7874015748031497,
    "duration": 0.09294862499999113
  },
  {
    "name": "D7",
    "midi": 98,
    "time": 134.42294249999884,
    "velocity": 0.7874015748031497,
    "duration": 0.09294862499999113
  },
  {
    "name": "D#7",
    "midi": 99,
    "time": 134.51909624999882,
    "velocity": 0.7874015748031497,
    "duration": 0.09294862499999113
  },
  {
    "name": "E7",
    "midi": 100,
    "time": 134.6152499999988,
    "velocity": 0.7874015748031497,
    "duration": 0.09374990624999668
  },
  {
    "name": "D#7",
    "midi": 99,
    "time": 134.7114037499988,
    "velocity": 0.7874015748031497,
    "duration": 0.09294862499999113
  },
  {
    "name": "B6",
    "midi": 95,
    "time": 134.80755749999878,
    "velocity": 0.7874015748031497,
    "duration": 0.09294862499999113
  },
  {
    "name": "D#7",
    "midi": 99,
    "time": 134.90371124999876,
    "velocity": 0.7874015748031497,
    "duration": 0.09294862499999113
  },
  {
    "name": "E7",
    "midi": 100,
    "time": 134.99986499999875,
    "velocity": 0.7874015748031497,
    "duration": 0.09374990624999668
  },
  {
    "name": "D#7",
    "midi": 99,
    "time": 135.09601874999873,
    "velocity": 0.7874015748031497,
    "duration": 0.09294862499999113
  },
  {
    "name": "D7",
    "midi": 98,
    "time": 135.19217249999872,
    "velocity": 0.7874015748031497,
    "duration": 0.09294862499999113
  },
  {
    "name": "D#7",
    "midi": 99,
    "time": 135.2883262499987,
    "velocity": 0.7874015748031497,
    "duration": 0.09294862499999113
  },
  {
    "name": "E7",
    "midi": 100,
    "time": 135.3844799999987,
    "velocity": 0.7874015748031497,
    "duration": 0.09374990624999668
  },
  {
    "name": "D#7",
    "midi": 99,
    "time": 135.48063374999867,
    "velocity": 0.7874015748031497,
    "duration": 0.09294862499999113
  },
  {
    "name": "D7",
    "midi": 98,
    "time": 135.57678749999866,
    "velocity": 0.7874015748031497,
    "duration": 0.09294862499999113
  },
  {
    "name": "D#7",
    "midi": 99,
    "time": 135.67294124999864,
    "velocity": 0.7874015748031497,
    "duration": 0.09294862499999113
  },
  {
    "name": "B6",
    "midi": 95,
    "time": 135.76909499999863,
    "velocity": 0.7874015748031497,
    "duration": 0.09374990624999668
  },
  {
    "name": "E7",
    "midi": 100,
    "time": 135.8652487499986,
    "velocity": 0.7874015748031497,
    "duration": 0.09294862499999113
  },
  {
    "name": "D#7",
    "midi": 99,
    "time": 135.9614024999986,
    "velocity": 0.7874015748031497,
    "duration": 0.09294862499999113
  },
  {
    "name": "D7",
    "midi": 98,
    "time": 136.05755624999858,
    "velocity": 0.7874015748031497,
    "duration": 0.09294862499999113
  },
  {
    "name": "C7",
    "midi": 96,
    "time": 136.15370999999857,
    "velocity": 0.7874015748031497,
    "duration": 0.09374990624999668
  },
  {
    "name": "B6",
    "midi": 95,
    "time": 136.24986374999855,
    "velocity": 0.7874015748031497,
    "duration": 0.09294862499999113
  },
  {
    "name": "C#7",
    "midi": 97,
    "time": 136.34601749999854,
    "velocity": 0.7874015748031497,
    "duration": 0.09294862499999113
  },
  {
    "name": "B6",
    "midi": 95,
    "time": 136.44217124999852,
    "velocity": 0.7874015748031497,
    "duration": 0.09294862499999113
  },
  {
    "name": "C7",
    "midi": 96,
    "time": 136.5383249999985,
    "velocity": 0.7874015748031497,
    "duration": 0.09374990624999668
  },
  {
    "name": "B6",
    "midi": 95,
    "time": 136.6344787499985,
    "velocity": 0.7874015748031497,
    "duration": 0.09294862499999113
  },
  {
    "name": "E7",
    "midi": 100,
    "time": 136.73063249999848,
    "velocity": 0.7874015748031497,
    "duration": 0.09294862499999113
  },
  {
    "name": "D#7",
    "midi": 99,
    "time": 136.82678624999846,
    "velocity": 0.7874015748031497,
    "duration": 0.09294862499999113
  },
  {
    "name": "E7",
    "midi": 100,
    "time": 136.92293999999845,
    "velocity": 0.7874015748031497,
    "duration": 0.09374990624999668
  },
  {
    "name": "D#7",
    "midi": 99,
    "time": 137.01909374999843,
    "velocity": 0.7874015748031497,
    "duration": 0.09214734375001399
  },
  {
    "name": "D7",
    "midi": 98,
    "time": 137.11524749999845,
    "velocity": 0.7874015748031497,
    "duration": 0.09294862499999113
  },
  {
    "name": "D#7",
    "midi": 99,
    "time": 137.21140124999843,
    "velocity": 0.7874015748031497,
    "duration": 0.09294862499999113
  },
  {
    "name": "E7",
    "midi": 100,
    "time": 137.30755499999842,
    "velocity": 0.7874015748031497,
    "duration": 0.09294862499999113
  },
  {
    "name": "D#7",
    "midi": 99,
    "time": 137.4037087499984,
    "velocity": 0.7874015748031497,
    "duration": 0.09374990624999668
  },
  {
    "name": "D7",
    "midi": 98,
    "time": 137.4998624999984,
    "velocity": 0.7874015748031497,
    "duration": 0.09294862499999113
  },
  {
    "name": "D#7",
    "midi": 99,
    "time": 137.59601624999837,
    "velocity": 0.7874015748031497,
    "duration": 0.09294862499999113
  },
  {
    "name": "E7",
    "midi": 100,
    "time": 137.69216999999836,
    "velocity": 0.7874015748031497,
    "duration": 0.09374990624999668
  },
  {
    "name": "D7",
    "midi": 98,
    "time": 137.78832374999834,
    "velocity": 0.7874015748031497,
    "duration": 0.09294862499999113
  },
  {
    "name": "D#7",
    "midi": 99,
    "time": 137.88447749999833,
    "velocity": 0.7874015748031497,
    "duration": 0.09294862499999113
  },
  {
    "name": "E7",
    "midi": 100,
    "time": 137.9806312499983,
    "velocity": 0.7874015748031497,
    "duration": 0.09374990624999668
  },
  {
    "name": "B6",
    "midi": 95,
    "time": 138.0767849999983,
    "velocity": 0.7874015748031497,
    "duration": 0.09294862499999113
  },
  {
    "name": "C7",
    "midi": 96,
    "time": 138.17293874999828,
    "velocity": 0.7874015748031497,
    "duration": 0.5769224999999949
  },
  {
    "name": "G#8",
    "midi": 116,
    "time": 138.8460149999983,
    "velocity": 0.7874015748031497,
    "duration": 1.5384599999998727
  },
  {
    "name": "C7",
    "midi": 96,
    "time": 138.8460149999983,
    "velocity": 0.7874015748031497,
    "duration": 0.09214734375001399
  },
  {
    "name": "B6",
    "midi": 95,
    "time": 138.9421687499983,
    "velocity": 0.7874015748031497,
    "duration": 0.09294862499999113
  },
  {
    "name": "E7",
    "midi": 100,
    "time": 139.0383224999983,
    "velocity": 0.7874015748031497,
    "duration": 0.09294862499999113
  },
  {
    "name": "B6",
    "midi": 95,
    "time": 139.13447624999827,
    "velocity": 0.7874015748031497,
    "duration": 0.09294862499999113
  },
  {
    "name": "C7",
    "midi": 96,
    "time": 139.23062999999826,
    "velocity": 0.7874015748031497,
    "duration": 0.09214734375001399
  },
  {
    "name": "B6",
    "midi": 95,
    "time": 139.32678374999827,
    "velocity": 0.7874015748031497,
    "duration": 0.09294862499999113
  },
  {
    "name": "C#7",
    "midi": 97,
    "time": 139.42293749999826,
    "velocity": 0.7874015748031497,
    "duration": 0.09294862499999113
  },
  {
    "name": "B6",
    "midi": 95,
    "time": 139.51909124999824,
    "velocity": 0.7874015748031497,
    "duration": 0.09294862499999113
  },
  {
    "name": "C7",
    "midi": 96,
    "time": 139.61524499999823,
    "velocity": 0.7874015748031497,
    "duration": 0.09214734375001399
  },
  {
    "name": "B6",
    "midi": 95,
    "time": 139.71139874999824,
    "velocity": 0.7874015748031497,
    "duration": 0.09294862499999113
  },
  {
    "name": "E7",
    "midi": 100,
    "time": 139.80755249999822,
    "velocity": 0.7874015748031497,
    "duration": 0.09294862499999113
  },
  {
    "name": "B6",
    "midi": 95,
    "time": 139.9037062499982,
    "velocity": 0.7874015748031497,
    "duration": 0.09294862499999113
  },
  {
    "name": "C7",
    "midi": 96,
    "time": 139.9998599999982,
    "velocity": 0.7874015748031497,
    "duration": 0.09214734375001399
  },
  {
    "name": "B6",
    "midi": 95,
    "time": 140.0960137499982,
    "velocity": 0.7874015748031497,
    "duration": 0.09294862499999113
  },
  {
    "name": "E7",
    "midi": 100,
    "time": 140.1921674999982,
    "velocity": 0.7874015748031497,
    "duration": 0.09294862499999113
  },
  {
    "name": "D#7",
    "midi": 99,
    "time": 140.28832124999818,
    "velocity": 0.7874015748031497,
    "duration": 0.09294862499999113
  },
  {
    "name": "E7",
    "midi": 100,
    "time": 140.38447499999816,
    "velocity": 0.7874015748031497,
    "duration": 0.09214734375001399
  },
  {
    "name": "D#7",
    "midi": 99,
    "time": 140.48062874999817,
    "velocity": 0.7874015748031497,
    "duration": 0.09294862499999113
  },
  {
    "name": "D7",
    "midi": 98,
    "time": 140.57678249999816,
    "velocity": 0.7874015748031497,
    "duration": 0.09294862499999113
  },
  {
    "name": "D#7",
    "midi": 99,
    "time": 140.67293624999814,
    "velocity": 0.7874015748031497,
    "duration": 0.09294862499999113
  },
  {
    "name": "E7",
    "midi": 100,
    "time": 140.76908999999813,
    "velocity": 0.7874015748031497,
    "duration": 0.09214734375001399
  },
  {
    "name": "D#7",
    "midi": 99,
    "time": 140.86524374999814,
    "velocity": 0.7874015748031497,
    "duration": 0.09294862499999113
  },
  {
    "name": "B6",
    "midi": 95,
    "time": 140.96139749999813,
    "velocity": 0.7874015748031497,
    "duration": 0.09294862499999113
  },
  {
    "name": "D#7",
    "midi": 99,
    "time": 141.0575512499981,
    "velocity": 0.7874015748031497,
    "duration": 0.09294862499999113
  },
  {
    "name": "E7",
    "midi": 100,
    "time": 141.1537049999981,
    "velocity": 0.7874015748031497,
    "duration": 0.09214734375001399
  },
  {
    "name": "D#7",
    "midi": 99,
    "time": 141.2498587499981,
    "velocity": 0.7874015748031497,
    "duration": 0.09294862499999113
  },
  {
    "name": "D7",
    "midi": 98,
    "time": 141.3460124999981,
    "velocity": 0.7874015748031497,
    "duration": 0.09294862499999113
  },
  {
    "name": "D#7",
    "midi": 99,
    "time": 141.44216624999808,
    "velocity": 0.7874015748031497,
    "duration": 0.09294862499999113
  },
  {
    "name": "E7",
    "midi": 100,
    "time": 141.53831999999807,
    "velocity": 0.7874015748031497,
    "duration": 0.09214734375001399
  },
  {
    "name": "D#7",
    "midi": 99,
    "time": 141.63447374999808,
    "velocity": 0.7874015748031497,
    "duration": 0.09294862499999113
  },
  {
    "name": "D7",
    "midi": 98,
    "time": 141.73062749999806,
    "velocity": 0.7874015748031497,
    "duration": 0.09294862499999113
  },
  {
    "name": "D#7",
    "midi": 99,
    "time": 141.82678124999805,
    "velocity": 0.7874015748031497,
    "duration": 0.09294862499999113
  },
  {
    "name": "C#7",
    "midi": 97,
    "time": 141.92293499999803,
    "velocity": 0.7874015748031497,
    "duration": 0.09214734375001399
  },
  {
    "name": "C7",
    "midi": 96,
    "time": 142.01908874999805,
    "velocity": 0.7874015748031497,
    "duration": 0.09294862499999113
  },
  {
    "name": "B6",
    "midi": 95,
    "time": 142.11524249999803,
    "velocity": 0.7874015748031497,
    "duration": 0.09294862499999113
  },
  {
    "name": "E7",
    "midi": 100,
    "time": 142.21139624999802,
    "velocity": 0.7874015748031497,
    "duration": 0.09294862499999113
  },
  {
    "name": "C7",
    "midi": 96,
    "time": 142.307549999998,
    "velocity": 0.7874015748031497,
    "duration": 0.09214734375001399
  },
  {
    "name": "B6",
    "midi": 95,
    "time": 142.40370374999802,
    "velocity": 0.7874015748031497,
    "duration": 0.09294862499999113
  },
  {
    "name": "C#7",
    "midi": 97,
    "time": 142.499857499998,
    "velocity": 0.7874015748031497,
    "duration": 0.09294862499999113
  },
  {
    "name": "B6",
    "midi": 95,
    "time": 142.59601124999799,
    "velocity": 0.7874015748031497,
    "duration": 0.09294862499999113
  },
  {
    "name": "C7",
    "midi": 96,
    "time": 142.69216499999797,
    "velocity": 0.7874015748031497,
    "duration": 0.09214734375001399
  },
  {
    "name": "B6",
    "midi": 95,
    "time": 142.78831874999798,
    "velocity": 0.7874015748031497,
    "duration": 0.09294862499999113
  },
  {
    "name": "E7",
    "midi": 100,
    "time": 142.88447249999797,
    "velocity": 0.7874015748031497,
    "duration": 0.09294862499999113
  },
  {
    "name": "D#7",
    "midi": 99,
    "time": 142.98062624999795,
    "velocity": 0.7874015748031497,
    "duration": 0.09294862499999113
  },
  {
    "name": "E7",
    "midi": 100,
    "time": 143.07677999999794,
    "velocity": 0.7874015748031497,
    "duration": 0.09214734375001399
  },
  {
    "name": "D#7",
    "midi": 99,
    "time": 143.17293374999795,
    "velocity": 0.7874015748031497,
    "duration": 0.09294862499999113
  },
  {
    "name": "D7",
    "midi": 98,
    "time": 143.26908749999794,
    "velocity": 0.7874015748031497,
    "duration": 0.09294862499999113
  },
  {
    "name": "D#7",
    "midi": 99,
    "time": 143.36524124999792,
    "velocity": 0.7874015748031497,
    "duration": 0.09294862499999113
  },
  {
    "name": "B6",
    "midi": 95,
    "time": 143.4613949999979,
    "velocity": 0.7874015748031497,
    "duration": 0.09214734375001399
  },
  {
    "name": "E7",
    "midi": 100,
    "time": 143.55754874999792,
    "velocity": 0.7874015748031497,
    "duration": 0.09294862499999113
  },
  {
    "name": "D#7",
    "midi": 99,
    "time": 143.6537024999979,
    "velocity": 0.7874015748031497,
    "duration": 0.09294862499999113
  },
  {
    "name": "D7",
    "midi": 98,
    "time": 143.7498562499979,
    "velocity": 0.7874015748031497,
    "duration": 0.09294862499999113
  },
  {
    "name": "D#7",
    "midi": 99,
    "time": 143.84600999999788,
    "velocity": 0.7874015748031497,
    "duration": 0.09214734375001399
  },
  {
    "name": "E7",
    "midi": 100,
    "time": 143.9421637499979,
    "velocity": 0.7874015748031497,
    "duration": 0.09294862499999113
  },
  {
    "name": "D#7",
    "midi": 99,
    "time": 144.03831749999787,
    "velocity": 0.7874015748031497,
    "duration": 0.09294862499999113
  },
  {
    "name": "D7",
    "midi": 98,
    "time": 144.13447124999786,
    "velocity": 0.7874015748031497,
    "duration": 0.09294862499999113
  },
  {
    "name": "D#7",
    "midi": 99,
    "time": 144.23062499999784,
    "velocity": 0.7874015748031497,
    "duration": 0.3846149999999966
  },
  {
    "name": "C7",
    "midi": 96,
    "time": 144.71139374999785,
    "velocity": 0.7874015748031497,
    "duration": 0.09294862499999113
  },
  {
    "name": "C#7",
    "midi": 97,
    "time": 144.80754749999784,
    "velocity": 0.7874015748031497,
    "duration": 0.48076875000000996
  },
  {
    "name": "C7",
    "midi": 96,
    "time": 145.38446999999786,
    "velocity": 0.7874015748031497,
    "duration": 0.09374990624999668
  },
  {
    "name": "B6",
    "midi": 95,
    "time": 145.48062374999785,
    "velocity": 0.7874015748031497,
    "duration": 0.09214734375001399
  },
  {
    "name": "E7",
    "midi": 100,
    "time": 145.57677749999786,
    "velocity": 0.7874015748031497,
    "duration": 0.09294862499999113
  },
  {
    "name": "B6",
    "midi": 95,
    "time": 145.67293124999784,
    "velocity": 0.7874015748031497,
    "duration": 0.09294862499999113
  },
  {
    "name": "E7",
    "midi": 100,
    "time": 145.76908499999783,
    "velocity": 0.7874015748031497,
    "duration": 0.09374990624999668
  },
  {
    "name": "D#7",
    "midi": 99,
    "time": 145.86523874999781,
    "velocity": 0.7874015748031497,
    "duration": 0.09294862499999113
  },
  {
    "name": "E7",
    "midi": 100,
    "time": 145.9613924999978,
    "velocity": 0.7874015748031497,
    "duration": 0.09294862499999113
  },
  {
    "name": "D#7",
    "midi": 99,
    "time": 146.05754624999778,
    "velocity": 0.7874015748031497,
    "duration": 0.09294862499999113
  },
  {
    "name": "D7",
    "midi": 98,
    "time": 146.15369999999777,
    "velocity": 0.7874015748031497,
    "duration": 0.09374990624999668
  },
  {
    "name": "C#7",
    "midi": 97,
    "time": 146.24985374999775,
    "velocity": 0.7874015748031497,
    "duration": 0.09294862499999113
  },
  {
    "name": "C7",
    "midi": 96,
    "time": 146.34600749999774,
    "velocity": 0.7874015748031497,
    "duration": 0.09294862499999113
  },
  {
    "name": "B6",
    "midi": 95,
    "time": 146.44216124999772,
    "velocity": 0.7874015748031497,
    "duration": 0.09294862499999113
  },
  {
    "name": "E7",
    "midi": 100,
    "time": 146.5383149999977,
    "velocity": 0.7874015748031497,
    "duration": 0.09294862499999113
  },
  {
    "name": "D#7",
    "midi": 99,
    "time": 146.6344687499977,
    "velocity": 0.7874015748031497,
    "duration": 0.09294862499999113
  },
  {
    "name": "D7",
    "midi": 98,
    "time": 146.73062249999768,
    "velocity": 0.7874015748031497,
    "duration": 0.09374990624999668
  },
  {
    "name": "C7",
    "midi": 96,
    "time": 146.82677624999766,
    "velocity": 0.7874015748031497,
    "duration": 0.8653837500000066
  },
  {
    "name": "D#7",
    "midi": 99,
    "time": 147.78831374999768,
    "velocity": 0.7874015748031497,
    "duration": 0.09294862499999113
  },
  {
    "name": "E7",
    "midi": 100,
    "time": 147.88446749999767,
    "velocity": 0.7874015748031497,
    "duration": 0.09294862499999113
  },
  {
    "name": "B6",
    "midi": 95,
    "time": 147.98062124999765,
    "velocity": 0.7874015748031497,
    "duration": 0.09214734375001399
  },
  {
    "name": "C7",
    "midi": 96,
    "time": 148.07677499999767,
    "velocity": 0.7874015748031497,
    "duration": 0.09374990624999668
  },
  {
    "name": "C#7",
    "midi": 97,
    "time": 148.17292874999765,
    "velocity": 0.7874015748031497,
    "duration": 0.09294862499999113
  },
  {
    "name": "C7",
    "midi": 96,
    "time": 148.26908249999764,
    "velocity": 0.7874015748031497,
    "duration": 0.09294862499999113
  },
  {
    "name": "B6",
    "midi": 95,
    "time": 148.36523624999762,
    "velocity": 0.7874015748031497,
    "duration": 0.09294862499999113
  },
  {
    "name": "C7",
    "midi": 96,
    "time": 148.4613899999976,
    "velocity": 0.7874015748031497,
    "duration": 0.09294862499999113
  },
  {
    "name": "B6",
    "midi": 95,
    "time": 148.5575437499976,
    "velocity": 0.7874015748031497,
    "duration": 0.09214734375001399
  },
  {
    "name": "E7",
    "midi": 100,
    "time": 148.6536974999976,
    "velocity": 0.7874015748031497,
    "duration": 0.09374990624999668
  },
  {
    "name": "B6",
    "midi": 95,
    "time": 148.7498512499976,
    "velocity": 0.7874015748031497,
    "duration": 0.09294862499999113
  },
  {
    "name": "E7",
    "midi": 100,
    "time": 148.84600499999758,
    "velocity": 0.7874015748031497,
    "duration": 0.09615375000001336
  },
  {
    "name": "C7",
    "midi": 96,
    "time": 149.0383124999976,
    "velocity": 0.7874015748031497,
    "duration": 0.09374990624999668
  },
  {
    "name": "B6",
    "midi": 95,
    "time": 149.1344662499976,
    "velocity": 0.7874015748031497,
    "duration": 0.0016025625000111177
  },
  {
    "name": "E7",
    "midi": 100,
    "time": 149.2306199999976,
    "velocity": 0.7874015748031497,
    "duration": 0.09294862499999113
  },
  {
    "name": "D#7",
    "midi": 99,
    "time": 149.32677374999759,
    "velocity": 0.7874015748031497,
    "duration": 0.09294862499999113
  },
  {
    "name": "D7",
    "midi": 98,
    "time": 149.42292749999757,
    "velocity": 0.7874015748031497,
    "duration": 0.09294862499999113
  },
  {
    "name": "D#7",
    "midi": 99,
    "time": 149.51908124999756,
    "velocity": 0.7874015748031497,
    "duration": 0.09294862499999113
  },
  {
    "name": "E7",
    "midi": 100,
    "time": 149.61523499999754,
    "velocity": 0.7874015748031497,
    "duration": 0.09294862499999113
  },
  {
    "name": "D#7",
    "midi": 99,
    "time": 149.71138874999752,
    "velocity": 0.7874015748031497,
    "duration": 0.09294862499999113
  },
  {
    "name": "D7",
    "midi": 98,
    "time": 149.8075424999975,
    "velocity": 0.7874015748031497,
    "duration": 0.09615375000001336
  },
  {
    "name": "E7",
    "midi": 100,
    "time": 149.99984999999754,
    "velocity": 0.7874015748031497,
    "duration": 0.09294862499999113
  },
  {
    "name": "B6",
    "midi": 95,
    "time": 150.09600374999752,
    "velocity": 0.7874015748031497,
    "duration": 0.09294862499999113
  },
  {
    "name": "C7",
    "midi": 96,
    "time": 150.1921574999975,
    "velocity": 0.7874015748031497,
    "duration": 0.09294862499999113
  },
  {
    "name": "B6",
    "midi": 95,
    "time": 150.2883112499975,
    "velocity": 0.7874015748031497,
    "duration": 0.09374990624999668
  },
  {
    "name": "C#7",
    "midi": 97,
    "time": 150.38446499999748,
    "velocity": 0.7874015748031497,
    "duration": 0.09294862499999113
  },
  {
    "name": "B6",
    "midi": 95,
    "time": 150.48061874999746,
    "velocity": 0.7874015748031497,
    "duration": 0.09374990624999668
  },
  {
    "name": "C7",
    "midi": 96,
    "time": 150.57677249999745,
    "velocity": 0.7874015748031497,
    "duration": 0.09214734375001399
  },
  {
    "name": "E7",
    "midi": 100,
    "time": 150.67292624999746,
    "velocity": 0.7874015748031497,
    "duration": 0.09214734375001399
  },
  {
    "name": "B6",
    "midi": 95,
    "time": 150.76907999999747,
    "velocity": 0.7874015748031497,
    "duration": 0.09294862499999113
  },
  {
    "name": "E7",
    "midi": 100,
    "time": 150.86523374999746,
    "velocity": 0.7874015748031497,
    "duration": 0.09294862499999113
  },
  {
    "name": "D#7",
    "midi": 99,
    "time": 150.96138749999744,
    "velocity": 0.7874015748031497,
    "duration": 0.09294862499999113
  },
  {
    "name": "B6",
    "midi": 95,
    "time": 151.05754124999743,
    "velocity": 0.7874015748031497,
    "duration": 0.09294862499999113
  },
  {
    "name": "C7",
    "midi": 96,
    "time": 151.1536949999974,
    "velocity": 0.7874015748031497,
    "duration": 0.09294862499999113
  },
  {
    "name": "B6",
    "midi": 95,
    "time": 151.2498487499974,
    "velocity": 0.7874015748031497,
    "duration": 0.09374990624999668
  },
  {
    "name": "E7",
    "midi": 100,
    "time": 151.34600249999738,
    "velocity": 0.7874015748031497,
    "duration": 0.09294862499999113
  },
  {
    "name": "D#7",
    "midi": 99,
    "time": 151.44215624999737,
    "velocity": 0.7874015748031497,
    "duration": 0.09294862499999113
  },
  {
    "name": "B6",
    "midi": 95,
    "time": 151.53830999999735,
    "velocity": 0.7874015748031497,
    "duration": 0.09374990624999668
  },
  {
    "name": "E7",
    "midi": 100,
    "time": 151.63446374999734,
    "velocity": 0.7874015748031497,
    "duration": 0.09294862499999113
  },
  {
    "name": "D#7",
    "midi": 99,
    "time": 151.73061749999732,
    "velocity": 0.7874015748031497,
    "duration": 0.09294862499999113
  },
  {
    "name": "D7",
    "midi": 98,
    "time": 151.8267712499973,
    "velocity": 0.7874015748031497,
    "duration": 0.09374990624999668
  },
  {
    "name": "C7",
    "midi": 96,
    "time": 151.9229249999973,
    "velocity": 0.7874015748031497,
    "duration": 0.09374990624999668
  },
  {
    "name": "B6",
    "midi": 95,
    "time": 152.01907874999728,
    "velocity": 0.7874015748031497,
    "duration": 0.09374990624999668
  },
  {
    "name": "E7",
    "midi": 100,
    "time": 152.11523249999726,
    "velocity": 0.7874015748031497,
    "duration": 0.09374990624999668
  },
  {
    "name": "D#7",
    "midi": 99,
    "time": 152.21138624999725,
    "velocity": 0.7874015748031497,
    "duration": 0.09374990624999668
  },
  {
    "name": "B6",
    "midi": 95,
    "time": 152.30753999999723,
    "velocity": 0.7874015748031497,
    "duration": 0.09374990624999668
  },
  {
    "name": "E7",
    "midi": 100,
    "time": 152.40369374999722,
    "velocity": 0.7874015748031497,
    "duration": 0.09374990624999668
  },
  {
    "name": "D#7",
    "midi": 99,
    "time": 152.4998474999972,
    "velocity": 0.7874015748031497,
    "duration": 0.09214734375001399
  },
  {
    "name": "D7",
    "midi": 98,
    "time": 152.59600124999722,
    "velocity": 0.7874015748031497,
    "duration": 0.09214734375001399
  },
  {
    "name": "C#7",
    "midi": 97,
    "time": 152.69215499999723,
    "velocity": 0.7874015748031497,
    "duration": 0.09294862499999113
  },
  {
    "name": "C7",
    "midi": 96,
    "time": 152.7883087499972,
    "velocity": 0.7874015748031497,
    "duration": 0.09294862499999113
  },
  {
    "name": "C#7",
    "midi": 97,
    "time": 152.8844624999972,
    "velocity": 0.7874015748031497,
    "duration": 0.09294862499999113
  },
  {
    "name": "C7",
    "midi": 96,
    "time": 152.98061624999718,
    "velocity": 0.7874015748031497,
    "duration": 0.09294862499999113
  },
  {
    "name": "B6",
    "midi": 95,
    "time": 153.07676999999717,
    "velocity": 0.7874015748031497,
    "duration": 0.09294862499999113
  },
  {
    "name": "E7",
    "midi": 100,
    "time": 153.17292374999715,
    "velocity": 0.7874015748031497,
    "duration": 0.09294862499999113
  },
  {
    "name": "B6",
    "midi": 95,
    "time": 153.26907749999714,
    "velocity": 0.7874015748031497,
    "duration": 0.09294862499999113
  },
  {
    "name": "C7",
    "midi": 96,
    "time": 153.36523124999712,
    "velocity": 0.7874015748031497,
    "duration": 0.09374990624999668
  },
  {
    "name": "B6",
    "midi": 95,
    "time": 153.4613849999971,
    "velocity": 0.7874015748031497,
    "duration": 0.09294862499999113
  },
  {
    "name": "E7",
    "midi": 100,
    "time": 153.5575387499971,
    "velocity": 0.7874015748031497,
    "duration": 0.09294862499999113
  },
  {
    "name": "B6",
    "midi": 95,
    "time": 153.65369249999708,
    "velocity": 0.7874015748031497,
    "duration": 0.09374990624999668
  },
  {
    "name": "C#7",
    "midi": 97,
    "time": 153.74984624999706,
    "velocity": 0.7874015748031497,
    "duration": 0.09294862499999113
  },
  {
    "name": "C7",
    "midi": 96,
    "time": 153.84599999999705,
    "velocity": 0.7874015748031497,
    "duration": 0.09214734375001399
  },
  {
    "name": "C#7",
    "midi": 97,
    "time": 153.94215374999706,
    "velocity": 0.7874015748031497,
    "duration": 0.09374990624999668
  },
  {
    "name": "B6",
    "midi": 95,
    "time": 154.03830749999705,
    "velocity": 0.7874015748031497,
    "duration": 0.09294862499999113
  },
  {
    "name": "C7",
    "midi": 96,
    "time": 154.13446124999703,
    "velocity": 0.7874015748031497,
    "duration": 0.09294862499999113
  },
  {
    "name": "G#8",
    "midi": 116,
    "time": 154.23061499999702,
    "velocity": 0.7874015748031497,
    "duration": 1.6346137499998008
  },
  {
    "name": "B6",
    "midi": 95,
    "time": 154.23061499999702,
    "velocity": 0.7874015748031497,
    "duration": 0.09374990624999668
  },
  {
    "name": "E7",
    "midi": 100,
    "time": 154.326768749997,
    "velocity": 0.7874015748031497,
    "duration": 0.09294862499999113
  },
  {
    "name": "B6",
    "midi": 95,
    "time": 154.422922499997,
    "velocity": 0.7874015748031497,
    "duration": 0.09374990624999668
  },
  {
    "name": "E7",
    "midi": 100,
    "time": 154.51907624999697,
    "velocity": 0.7874015748031497,
    "duration": 0.09294862499999113
  },
  {
    "name": "D#7",
    "midi": 99,
    "time": 154.61522999999696,
    "velocity": 0.7874015748031497,
    "duration": 0.09294862499999113
  },
  {
    "name": "B6",
    "midi": 95,
    "time": 154.71138374999694,
    "velocity": 0.7874015748031497,
    "duration": 0.09374990624999668
  },
  {
    "name": "E7",
    "midi": 100,
    "time": 154.80753749999693,
    "velocity": 0.7874015748031497,
    "duration": 0.09294862499999113
  },
  {
    "name": "D#7",
    "midi": 99,
    "time": 154.9036912499969,
    "velocity": 0.7874015748031497,
    "duration": 0.09294862499999113
  },
  {
    "name": "E7",
    "midi": 100,
    "time": 154.9998449999969,
    "velocity": 0.7874015748031497,
    "duration": 0.09374990624999668
  },
  {
    "name": "D#7",
    "midi": 99,
    "time": 155.09599874999688,
    "velocity": 0.7874015748031497,
    "duration": 0.09294862499999113
  },
  {
    "name": "D7",
    "midi": 98,
    "time": 155.19215249999687,
    "velocity": 0.7874015748031497,
    "duration": 0.09294862499999113
  },
  {
    "name": "D#7",
    "midi": 99,
    "time": 155.28830624999685,
    "velocity": 0.7874015748031497,
    "duration": 0.09374990624999668
  },
  {
    "name": "E7",
    "midi": 100,
    "time": 155.38445999999684,
    "velocity": 0.7874015748031497,
    "duration": 0.09374990624999668
  },
  {
    "name": "B6",
    "midi": 95,
    "time": 155.48061374999682,
    "velocity": 0.7874015748031497,
    "duration": 1.7307674999999847
  },
  {
    "name": "C#7",
    "midi": 97,
    "time": 157.30753499999682,
    "velocity": 0.7874015748031497,
    "duration": 0.09214734375001399
  },
  {
    "name": "G7",
    "midi": 103,
    "time": 157.30753499999682,
    "velocity": 0.7874015748031497,
    "duration": 24.519206249998348
  },
  {
    "name": "C7",
    "midi": 96,
    "time": 157.40368874999683,
    "velocity": 0.7874015748031497,
    "duration": 0.09294862499999113
  },
  {
    "name": "B6",
    "midi": 95,
    "time": 157.49984249999682,
    "velocity": 0.7874015748031497,
    "duration": 0.09294862499999113
  },
  {
    "name": "E7",
    "midi": 100,
    "time": 157.5959962499968,
    "velocity": 0.7874015748031497,
    "duration": 0.09374990624999668
  },
  {
    "name": "C7",
    "midi": 96,
    "time": 157.6921499999968,
    "velocity": 0.7874015748031497,
    "duration": 0.09214734375001399
  },
  {
    "name": "C#7",
    "midi": 97,
    "time": 157.7883037499968,
    "velocity": 0.7874015748031497,
    "duration": 0.09294862499999113
  },
  {
    "name": "C7",
    "midi": 96,
    "time": 157.88445749999678,
    "velocity": 0.7874015748031497,
    "duration": 0.09294862499999113
  },
  {
    "name": "E7",
    "midi": 100,
    "time": 157.98061124999677,
    "velocity": 0.7874015748031497,
    "duration": 0.09374990624999668
  },
  {
    "name": "B6",
    "midi": 95,
    "time": 158.07676499999675,
    "velocity": 0.7874015748031497,
    "duration": 0.09214734375001399
  },
  {
    "name": "E7",
    "midi": 100,
    "time": 158.17291874999677,
    "velocity": 0.7874015748031497,
    "duration": 0.09294862499999113
  },
  {
    "name": "B6",
    "midi": 95,
    "time": 158.26907249999675,
    "velocity": 0.7874015748031497,
    "duration": 0.09294862499999113
  },
  {
    "name": "D#7",
    "midi": 99,
    "time": 158.36522624999674,
    "velocity": 0.7874015748031497,
    "duration": 0.09374990624999668
  },
  {
    "name": "C#7",
    "midi": 97,
    "time": 158.46137999999672,
    "velocity": 0.7874015748031497,
    "duration": 0.09214734375001399
  },
  {
    "name": "B6",
    "midi": 95,
    "time": 158.55753374999674,
    "velocity": 0.7874015748031497,
    "duration": 0.09294862499999113
  },
  {
    "name": "C7",
    "midi": 96,
    "time": 158.65368749999672,
    "velocity": 0.7874015748031497,
    "duration": 0.09294862499999113
  },
  {
    "name": "B6",
    "midi": 95,
    "time": 158.7498412499967,
    "velocity": 0.7874015748031497,
    "duration": 0.09374990624999668
  },
  {
    "name": "D#7",
    "midi": 99,
    "time": 158.8459949999967,
    "velocity": 0.7874015748031497,
    "duration": 0.09214734375001399
  },
  {
    "name": "E7",
    "midi": 100,
    "time": 158.9421487499967,
    "velocity": 0.7874015748031497,
    "duration": 0.09294862499999113
  },
  {
    "name": "D#7",
    "midi": 99,
    "time": 159.0383024999967,
    "velocity": 0.7874015748031497,
    "duration": 0.09294862499999113
  },
  {
    "name": "D7",
    "midi": 98,
    "time": 159.13445624999667,
    "velocity": 0.7874015748031497,
    "duration": 0.09374990624999668
  },
  {
    "name": "C#7",
    "midi": 97,
    "time": 159.23060999999666,
    "velocity": 0.7874015748031497,
    "duration": 0.09214734375001399
  },
  {
    "name": "B6",
    "midi": 95,
    "time": 159.32676374999667,
    "velocity": 0.7874015748031497,
    "duration": 0.09294862499999113
  },
  {
    "name": "C7",
    "midi": 96,
    "time": 159.42291749999666,
    "velocity": 0.7874015748031497,
    "duration": 0.09294862499999113
  },
  {
    "name": "B6",
    "midi": 95,
    "time": 159.51907124999664,
    "velocity": 0.7874015748031497,
    "duration": 0.09374990624999668
  },
  {
    "name": "D#7",
    "midi": 99,
    "time": 159.61522499999663,
    "velocity": 0.7874015748031497,
    "duration": 0.09214734375001399
  },
  {
    "name": "E7",
    "midi": 100,
    "time": 159.71137874999664,
    "velocity": 0.7874015748031497,
    "duration": 0.09294862499999113
  },
  {
    "name": "D#7",
    "midi": 99,
    "time": 159.80753249999663,
    "velocity": 0.7874015748031497,
    "duration": 0.09294862499999113
  },
  {
    "name": "D7",
    "midi": 98,
    "time": 159.9036862499966,
    "velocity": 0.7874015748031497,
    "duration": 0.09374990624999668
  },
  {
    "name": "C#7",
    "midi": 97,
    "time": 159.9998399999966,
    "velocity": 0.7874015748031497,
    "duration": 0.09294862499999113
  },
  {
    "name": "B6",
    "midi": 95,
    "time": 160.09599374999658,
    "velocity": 0.7874015748031497,
    "duration": 0.09294862499999113
  },
  {
    "name": "C7",
    "midi": 96,
    "time": 160.19214749999657,
    "velocity": 0.7874015748031497,
    "duration": 0.09294862499999113
  },
  {
    "name": "B6",
    "midi": 95,
    "time": 160.28830124999655,
    "velocity": 0.7874015748031497,
    "duration": 0.09294862499999113
  },
  {
    "name": "C7",
    "midi": 96,
    "time": 160.38445499999654,
    "velocity": 0.7874015748031497,
    "duration": 0.09294862499999113
  },
  {
    "name": "B6",
    "midi": 95,
    "time": 160.48060874999652,
    "velocity": 0.7874015748031497,
    "duration": 0.09294862499999113
  },
  {
    "name": "E7",
    "midi": 100,
    "time": 160.5767624999965,
    "velocity": 0.7874015748031497,
    "duration": 0.09294862499999113
  },
  {
    "name": "D#7",
    "midi": 99,
    "time": 160.6729162499965,
    "velocity": 0.7874015748031497,
    "duration": 0.09294862499999113
  },
  {
    "name": "D7",
    "midi": 98,
    "time": 160.76906999999647,
    "velocity": 0.7874015748031497,
    "duration": 0.09294862499999113
  },
  {
    "name": "C7",
    "midi": 96,
    "time": 160.86522374999646,
    "velocity": 0.7874015748031497,
    "duration": 0.09294862499999113
  },
  {
    "name": "B6",
    "midi": 95,
    "time": 160.96137749999644,
    "velocity": 0.7874015748031497,
    "duration": 0.09294862499999113
  },
  {
    "name": "E7",
    "midi": 100,
    "time": 161.05753124999643,
    "velocity": 0.7874015748031497,
    "duration": 0.09294862499999113
  },
  {
    "name": "C7",
    "midi": 96,
    "time": 161.15368499999641,
    "velocity": 0.7874015748031497,
    "duration": 0.09294862499999113
  },
  {
    "name": "B6",
    "midi": 95,
    "time": 161.2498387499964,
    "velocity": 0.7874015748031497,
    "duration": 0.09294862499999113
  },
  {
    "name": "E7",
    "midi": 100,
    "time": 161.34599249999638,
    "velocity": 0.7874015748031497,
    "duration": 0.09294862499999113
  },
  {
    "name": "B6",
    "midi": 95,
    "time": 161.44214624999637,
    "velocity": 0.7874015748031497,
    "duration": 0.09294862499999113
  },
  {
    "name": "C7",
    "midi": 96,
    "time": 161.53829999999635,
    "velocity": 0.7874015748031497,
    "duration": 0.09294862499999113
  },
  {
    "name": "C#7",
    "midi": 97,
    "time": 161.63445374999634,
    "velocity": 0.7874015748031497,
    "duration": 0.09294862499999113
  },
  {
    "name": "C7",
    "midi": 96,
    "time": 161.73060749999632,
    "velocity": 0.7874015748031497,
    "duration": 0.09294862499999113
  },
  {
    "name": "B6",
    "midi": 95,
    "time": 161.8267612499963,
    "velocity": 0.7874015748031497,
    "duration": 0.09294862499999113
  },
  {
    "name": "C7",
    "midi": 96,
    "time": 161.9229149999963,
    "velocity": 0.7874015748031497,
    "duration": 0.09374990624999668
  },
  {
    "name": "B6",
    "midi": 95,
    "time": 162.01906874999628,
    "velocity": 0.7874015748031497,
    "duration": 0.09294862499999113
  },
  {
    "name": "E7",
    "midi": 100,
    "time": 162.11522249999626,
    "velocity": 0.7874015748031497,
    "duration": 0.09294862499999113
  },
  {
    "name": "B6",
    "midi": 95,
    "time": 162.21137624999625,
    "velocity": 0.7874015748031497,
    "duration": 0.09374990624999668
  },
  {
    "name": "E7",
    "midi": 100,
    "time": 162.30752999999623,
    "velocity": 0.7874015748031497,
    "duration": 0.09294862499999113
  },
  {
    "name": "D#7",
    "midi": 99,
    "time": 162.40368374999622,
    "velocity": 0.7874015748031497,
    "duration": 0.09374990624999668
  },
  {
    "name": "E7",
    "midi": 100,
    "time": 162.4998374999962,
    "velocity": 0.7874015748031497,
    "duration": 0.09294862499999113
  },
  {
    "name": "D7",
    "midi": 98,
    "time": 162.5959912499962,
    "velocity": 0.7874015748031497,
    "duration": 0.7692299999999932
  },
  {
    "name": "E7",
    "midi": 100,
    "time": 163.4613749999962,
    "velocity": 0.7874015748031497,
    "duration": 0.09294862499999113
  },
  {
    "name": "B6",
    "midi": 95,
    "time": 163.55752874999618,
    "velocity": 0.7874015748031497,
    "duration": 0.09294862499999113
  },
  {
    "name": "C7",
    "midi": 96,
    "time": 163.65368249999617,
    "velocity": 0.7874015748031497,
    "duration": 0.09374990624999668
  },
  {
    "name": "C#7",
    "midi": 97,
    "time": 163.74983624999615,
    "velocity": 0.7874015748031497,
    "duration": 0.09214734375001399
  },
  {
    "name": "D7",
    "midi": 98,
    "time": 163.84598999999616,
    "velocity": 0.7874015748031497,
    "duration": 0.09294862499999113
  },
  {
    "name": "D#7",
    "midi": 99,
    "time": 163.94214374999615,
    "velocity": 0.7874015748031497,
    "duration": 0.09294862499999113
  },
  {
    "name": "E7",
    "midi": 100,
    "time": 164.03829749999613,
    "velocity": 0.7874015748031497,
    "duration": 0.09374990624999668
  },
  {
    "name": "B6",
    "midi": 95,
    "time": 164.13445124999612,
    "velocity": 0.7874015748031497,
    "duration": 0.09214734375001399
  },
  {
    "name": "D#7",
    "midi": 99,
    "time": 164.23060499999613,
    "velocity": 0.7874015748031497,
    "duration": 0.09294862499999113
  },
  {
    "name": "E7",
    "midi": 100,
    "time": 164.32675874999612,
    "velocity": 0.7874015748031497,
    "duration": 0.09294862499999113
  },
  {
    "name": "B6",
    "midi": 95,
    "time": 164.4229124999961,
    "velocity": 0.7874015748031497,
    "duration": 0.09374990624999668
  },
  {
    "name": "E7",
    "midi": 100,
    "time": 164.5190662499961,
    "velocity": 0.7874015748031497,
    "duration": 0.09214734375001399
  },
  {
    "name": "D7",
    "midi": 98,
    "time": 164.6152199999961,
    "velocity": 0.7874015748031497,
    "duration": 0.09294862499999113
  },
  {
    "name": "D#7",
    "midi": 99,
    "time": 164.71137374999608,
    "velocity": 0.7874015748031497,
    "duration": 0.09294862499999113
  },
  {
    "name": "E7",
    "midi": 100,
    "time": 164.80752749999607,
    "velocity": 0.7874015748031497,
    "duration": 0.09615375000001336
  },
  {
    "name": "G#8",
    "midi": 116,
    "time": 164.9998349999961,
    "velocity": 0.7874015748031497,
    "duration": 1.5384600000000148
  },
  {
    "name": "E7",
    "midi": 100,
    "time": 164.9998349999961,
    "velocity": 0.7874015748031497,
    "duration": 0.09294862499999113
  },
  {
    "name": "B6",
    "midi": 95,
    "time": 165.09598874999608,
    "velocity": 0.7874015748031497,
    "duration": 0.1923074999999983
  },
  {
    "name": "E7",
    "midi": 100,
    "time": 165.3844499999961,
    "velocity": 0.7874015748031497,
    "duration": 0.09294862499999113
  },
  {
    "name": "D#7",
    "midi": 99,
    "time": 165.48060374999608,
    "velocity": 0.7874015748031497,
    "duration": 0.1923074999999983
  },
  {
    "name": "B6",
    "midi": 95,
    "time": 165.7690649999961,
    "velocity": 0.7874015748031497,
    "duration": 0.09294862499999113
  },
  {
    "name": "C7",
    "midi": 96,
    "time": 165.86521874999607,
    "velocity": 0.7874015748031497,
    "duration": 0.09615375000001336
  },
  {
    "name": "C7",
    "midi": 96,
    "time": 166.0575262499961,
    "velocity": 0.7874015748031497,
    "duration": 0.09214734375001399
  },
  {
    "name": "C#7",
    "midi": 97,
    "time": 166.15367999999611,
    "velocity": 0.7874015748031497,
    "duration": 0.48076875000000996
  },
  {
    "name": "B6",
    "midi": 95,
    "time": 166.73060249999614,
    "velocity": 0.7874015748031497,
    "duration": 0.09214734375001399
  },
  {
    "name": "E7",
    "midi": 100,
    "time": 166.82675624999615,
    "velocity": 0.7874015748031497,
    "duration": 0.09294862499999113
  },
  {
    "name": "D#7",
    "midi": 99,
    "time": 166.92290999999614,
    "velocity": 0.7874015748031497,
    "duration": 0.09374990624999668
  },
  {
    "name": "D7",
    "midi": 98,
    "time": 167.01906374999612,
    "velocity": 0.7874015748031497,
    "duration": 0.09294862499999113
  },
  {
    "name": "D#7",
    "midi": 99,
    "time": 167.1152174999961,
    "velocity": 0.7874015748031497,
    "duration": 0.09615375000001336
  },
  {
    "name": "D#7",
    "midi": 99,
    "time": 167.30752499999613,
    "velocity": 0.7874015748031497,
    "duration": 0.09615375000001336
  },
  {
    "name": "C7",
    "midi": 96,
    "time": 167.49983249999616,
    "velocity": 0.7874015748031497,
    "duration": 0.09294862499999113
  },
  {
    "name": "B6",
    "midi": 95,
    "time": 167.59598624999614,
    "velocity": 0.7874015748031497,
    "duration": 0.09294862499999113
  },
  {
    "name": "C7",
    "midi": 96,
    "time": 167.69213999999613,
    "velocity": 0.7874015748031497,
    "duration": 0.09294862499999113
  },
  {
    "name": "B6",
    "midi": 95,
    "time": 167.78829374999611,
    "velocity": 0.7874015748031497,
    "duration": 0.09294862499999113
  },
  {
    "name": "C#7",
    "midi": 97,
    "time": 167.8844474999961,
    "velocity": 0.7874015748031497,
    "duration": 0.09374990624999668
  },
  {
    "name": "B6",
    "midi": 95,
    "time": 167.98060124999608,
    "velocity": 0.7874015748031497,
    "duration": 0.09294862499999113
  },
  {
    "name": "C#7",
    "midi": 97,
    "time": 168.07675499999607,
    "velocity": 0.7874015748031497,
    "duration": 0.09294862499999113
  },
  {
    "name": "B6",
    "midi": 95,
    "time": 168.17290874999605,
    "velocity": 0.7874015748031497,
    "duration": 0.09294862499999113
  },
  {
    "name": "C#7",
    "midi": 97,
    "time": 168.26906249999604,
    "velocity": 0.7874015748031497,
    "duration": 0.09294862499999113
  },
  {
    "name": "B6",
    "midi": 95,
    "time": 168.36521624999602,
    "velocity": 0.7874015748031497,
    "duration": 0.09374990624999668
  },
  {
    "name": "C#7",
    "midi": 97,
    "time": 168.461369999996,
    "velocity": 0.7874015748031497,
    "duration": 0.09294862499999113
  },
  {
    "name": "B6",
    "midi": 95,
    "time": 168.557523749996,
    "velocity": 0.7874015748031497,
    "duration": 0.09294862499999113
  },
  {
    "name": "C#7",
    "midi": 97,
    "time": 168.65367749999598,
    "velocity": 0.7874015748031497,
    "duration": 0.09615375000001336
  },
  {
    "name": "B6",
    "midi": 95,
    "time": 168.845984999996,
    "velocity": 0.7874015748031497,
    "duration": 0.09294862499999113
  },
  {
    "name": "C7",
    "midi": 96,
    "time": 168.942138749996,
    "velocity": 0.7874015748031497,
    "duration": 0.5769224999999949
  },
  {
    "name": "B6",
    "midi": 95,
    "time": 169.615214999996,
    "velocity": 0.7874015748031497,
    "duration": 0.09615375000001336
  },
  {
    "name": "B6",
    "midi": 95,
    "time": 169.85559937499602,
    "velocity": 0.7874015748031497,
    "duration": 0.09615375000001336
  },
  {
    "name": "B6",
    "midi": 95,
    "time": 170.09598374999604,
    "velocity": 0.7874015748031497,
    "duration": 0.09615375000001336
  },
  {
    "name": "B6",
    "midi": 95,
    "time": 170.38444499999605,
    "velocity": 0.7874015748031497,
    "duration": 0.28846125000001166
  },
  {
    "name": "E7",
    "midi": 100,
    "time": 170.76905999999607,
    "velocity": 0.7874015748031497,
    "duration": 0.09615375000001336
  },
  {
    "name": "D#7",
    "midi": 99,
    "time": 170.9613674999961,
    "velocity": 0.7874015748031497,
    "duration": 0.09615375000001336
  },
  {
    "name": "D7",
    "midi": 98,
    "time": 171.15367499999613,
    "velocity": 0.7874015748031497,
    "duration": 0.09294862499999113
  },
  {
    "name": "D#7",
    "midi": 99,
    "time": 171.2498287499961,
    "velocity": 0.7874015748031497,
    "duration": 0.09294862499999113
  },
  {
    "name": "E7",
    "midi": 100,
    "time": 171.3459824999961,
    "velocity": 0.7874015748031497,
    "duration": 0.09214734375001399
  },
  {
    "name": "B6",
    "midi": 95,
    "time": 171.4421362499961,
    "velocity": 0.7874015748031497,
    "duration": 0.09294862499999113
  },
  {
    "name": "E7",
    "midi": 100,
    "time": 171.5382899999961,
    "velocity": 0.7874015748031497,
    "duration": 0.09294862499999113
  },
  {
    "name": "D7",
    "midi": 98,
    "time": 171.63444374999608,
    "velocity": 0.7874015748031497,
    "duration": 0.09374990624999668
  },
  {
    "name": "D#7",
    "midi": 99,
    "time": 171.73059749999607,
    "velocity": 0.7874015748031497,
    "duration": 0.09294862499999113
  },
  {
    "name": "E7",
    "midi": 100,
    "time": 171.82675124999605,
    "velocity": 0.7874015748031497,
    "duration": 0.09294862499999113
  },
  {
    "name": "B6",
    "midi": 95,
    "time": 171.92290499999604,
    "velocity": 0.7874015748031497,
    "duration": 0.09374990624999668
  },
  {
    "name": "C7",
    "midi": 96,
    "time": 172.01905874999602,
    "velocity": 0.7874015748031497,
    "duration": 0.5769224999999949
  },
  {
    "name": "D#7",
    "midi": 99,
    "time": 172.69213499999603,
    "velocity": 0.7874015748031497,
    "duration": 0.09374990624999668
  },
  {
    "name": "D7",
    "midi": 98,
    "time": 172.788288749996,
    "velocity": 0.7874015748031497,
    "duration": 0.09294862499999113
  },
  {
    "name": "D#7",
    "midi": 99,
    "time": 172.884442499996,
    "velocity": 0.7874015748031497,
    "duration": 0.09294862499999113
  },
  {
    "name": "E7",
    "midi": 100,
    "time": 172.98059624999598,
    "velocity": 0.7874015748031497,
    "duration": 0.09374990624999668
  },
  {
    "name": "D7",
    "midi": 98,
    "time": 173.07674999999597,
    "velocity": 0.7874015748031497,
    "duration": 0.09374990624999668
  },
  {
    "name": "D#7",
    "midi": 99,
    "time": 173.17290374999595,
    "velocity": 0.7874015748031497,
    "duration": 0.09294862499999113
  },
  {
    "name": "C#7",
    "midi": 97,
    "time": 173.26905749999594,
    "velocity": 0.7874015748031497,
    "duration": 0.09294862499999113
  },
  {
    "name": "D#7",
    "midi": 99,
    "time": 173.36521124999592,
    "velocity": 0.7874015748031497,
    "duration": 0.09294862499999113
  },
  {
    "name": "C#7",
    "midi": 97,
    "time": 173.4613649999959,
    "velocity": 0.7874015748031497,
    "duration": 0.09374990624999668
  },
  {
    "name": "D7",
    "midi": 98,
    "time": 173.5575187499959,
    "velocity": 0.7874015748031497,
    "duration": 0.09294862499999113
  },
  {
    "name": "D#7",
    "midi": 99,
    "time": 173.65367249999588,
    "velocity": 0.7874015748031497,
    "duration": 0.09294862499999113
  },
  {
    "name": "C#7",
    "midi": 97,
    "time": 173.74982624999586,
    "velocity": 0.7874015748031497,
    "duration": 0.09294862499999113
  },
  {
    "name": "C7",
    "midi": 96,
    "time": 173.84597999999585,
    "velocity": 0.7874015748031497,
    "duration": 0.09374990624999668
  },
  {
    "name": "B6",
    "midi": 95,
    "time": 173.94213374999583,
    "velocity": 0.7874015748031497,
    "duration": 0.09294862499999113
  },
  {
    "name": "E7",
    "midi": 100,
    "time": 174.03828749999582,
    "velocity": 0.7874015748031497,
    "duration": 0.09294862499999113
  },
  {
    "name": "B6",
    "midi": 95,
    "time": 174.1344412499958,
    "velocity": 0.7874015748031497,
    "duration": 0.09294862499999113
  },
  {
    "name": "E7",
    "midi": 100,
    "time": 174.2305949999958,
    "velocity": 0.7874015748031497,
    "duration": 0.09374990624999668
  },
  {
    "name": "D#7",
    "midi": 99,
    "time": 174.32674874999577,
    "velocity": 0.7874015748031497,
    "duration": 0.09294862499999113
  },
  {
    "name": "E7",
    "midi": 100,
    "time": 174.42290249999576,
    "velocity": 0.7874015748031497,
    "duration": 0.09294862499999113
  },
  {
    "name": "D#7",
    "midi": 99,
    "time": 174.51905624999574,
    "velocity": 0.7874015748031497,
    "duration": 0.09294862499999113
  },
  {
    "name": "E7",
    "midi": 100,
    "time": 174.61520999999573,
    "velocity": 0.7874015748031497,
    "duration": 0.09374990624999668
  },
  {
    "name": "B6",
    "midi": 95,
    "time": 174.7113637499957,
    "velocity": 0.7874015748031497,
    "duration": 0.09294862499999113
  },
  {
    "name": "E7",
    "midi": 100,
    "time": 174.8075174999957,
    "velocity": 0.7874015748031497,
    "duration": 0.09294862499999113
  },
  {
    "name": "D#7",
    "midi": 99,
    "time": 174.90367124999568,
    "velocity": 0.7874015748031497,
    "duration": 0.09294862499999113
  },
  {
    "name": "D7",
    "midi": 98,
    "time": 174.99982499999567,
    "velocity": 0.7874015748031497,
    "duration": 0.6730762500000083
  },
  {
    "name": "D7",
    "midi": 98,
    "time": 175.7690549999957,
    "velocity": 0.7874015748031497,
    "duration": 0.09374990624999668
  },
  {
    "name": "C#7",
    "midi": 97,
    "time": 175.86520874999567,
    "velocity": 0.7874015748031497,
    "duration": 0.09294862499999113
  },
  {
    "name": "C7",
    "midi": 96,
    "time": 175.96136249999566,
    "velocity": 0.7874015748031497,
    "duration": 0.09294862499999113
  },
  {
    "name": "B6",
    "midi": 95,
    "time": 176.05751624999564,
    "velocity": 0.7874015748031497,
    "duration": 0.09294862499999113
  },
  {
    "name": "E7",
    "midi": 100,
    "time": 176.15366999999563,
    "velocity": 0.7874015748031497,
    "duration": 0.09294862499999113
  },
  {
    "name": "B6",
    "midi": 95,
    "time": 176.2498237499956,
    "velocity": 0.7874015748031497,
    "duration": 0.09294862499999113
  },
  {
    "name": "E7",
    "midi": 100,
    "time": 176.3459774999956,
    "velocity": 0.7874015748031497,
    "duration": 0.09294862499999113
  },
  {
    "name": "D#7",
    "midi": 99,
    "time": 176.44213124999558,
    "velocity": 0.7874015748031497,
    "duration": 0.09294862499999113
  },
  {
    "name": "D7",
    "midi": 98,
    "time": 176.53828499999557,
    "velocity": 0.7874015748031497,
    "duration": 0.09294862499999113
  },
  {
    "name": "C#7",
    "midi": 97,
    "time": 176.63443874999555,
    "velocity": 0.7874015748031497,
    "duration": 0.09374990624999668
  },
  {
    "name": "C7",
    "midi": 96,
    "time": 176.73059249999554,
    "velocity": 0.7874015748031497,
    "duration": 0.09374990624999668
  },
  {
    "name": "B6",
    "midi": 95,
    "time": 176.82674624999552,
    "velocity": 0.7874015748031497,
    "duration": 0.09374990624999668
  },
  {
    "name": "E7",
    "midi": 100,
    "time": 176.9228999999955,
    "velocity": 0.7874015748031497,
    "duration": 0.09374990624999668
  },
  {
    "name": "B6",
    "midi": 95,
    "time": 177.0190537499955,
    "velocity": 0.7874015748031497,
    "duration": 0.09214734375001399
  },
  {
    "name": "E7",
    "midi": 100,
    "time": 177.1152074999955,
    "velocity": 0.7874015748031497,
    "duration": 0.09214734375001399
  },
  {
    "name": "D#7",
    "midi": 99,
    "time": 177.21136124999552,
    "velocity": 0.7874015748031497,
    "duration": 0.09294862499999113
  },
  {
    "name": "D7",
    "midi": 98,
    "time": 177.3075149999955,
    "velocity": 0.7874015748031497,
    "duration": 0.09294862499999113
  },
  {
    "name": "C#7",
    "midi": 97,
    "time": 177.4036687499955,
    "velocity": 0.7874015748031497,
    "duration": 0.09214734375001399
  },
  {
    "name": "C7",
    "midi": 96,
    "time": 177.4998224999955,
    "velocity": 0.7874015748031497,
    "duration": 0.09294862499999113
  },
  {
    "name": "C#7",
    "midi": 97,
    "time": 177.5959762499955,
    "velocity": 0.7874015748031497,
    "duration": 0.09374990624999668
  },
  {
    "name": "C7",
    "midi": 96,
    "time": 177.69212999999547,
    "velocity": 0.7874015748031497,
    "duration": 0.09294862499999113
  },
  {
    "name": "B6",
    "midi": 95,
    "time": 177.78828374999546,
    "velocity": 0.7874015748031497,
    "duration": 0.09294862499999113
  },
  {
    "name": "E7",
    "midi": 100,
    "time": 177.88443749999544,
    "velocity": 0.7874015748031497,
    "duration": 0.09214734375001399
  },
  {
    "name": "B6",
    "midi": 95,
    "time": 177.98059124999546,
    "velocity": 0.7874015748031497,
    "duration": 0.09294862499999113
  },
  {
    "name": "C7",
    "midi": 96,
    "time": 178.07674499999544,
    "velocity": 0.7874015748031497,
    "duration": 0.09374990624999668
  },
  {
    "name": "C#7",
    "midi": 97,
    "time": 178.17289874999543,
    "velocity": 0.7874015748031497,
    "duration": 0.09294862499999113
  },
  {
    "name": "C7",
    "midi": 96,
    "time": 178.2690524999954,
    "velocity": 0.7874015748031497,
    "duration": 0.09294862499999113
  },
  {
    "name": "B6",
    "midi": 95,
    "time": 178.3652062499954,
    "velocity": 0.7874015748031497,
    "duration": 0.09214734375001399
  },
  {
    "name": "C7",
    "midi": 96,
    "time": 178.4613599999954,
    "velocity": 0.7874015748031497,
    "duration": 0.09294862499999113
  },
  {
    "name": "B6",
    "midi": 95,
    "time": 178.5575137499954,
    "velocity": 0.7874015748031497,
    "duration": 0.09374990624999668
  },
  {
    "name": "E7",
    "midi": 100,
    "time": 178.65366749999538,
    "velocity": 0.7874015748031497,
    "duration": 0.09294862499999113
  },
  {
    "name": "D#7",
    "midi": 99,
    "time": 178.74982124999536,
    "velocity": 0.7874015748031497,
    "duration": 0.09294862499999113
  },
  {
    "name": "D7",
    "midi": 98,
    "time": 178.84597499999535,
    "velocity": 0.7874015748031497,
    "duration": 0.09294862499999113
  },
  {
    "name": "D#7",
    "midi": 99,
    "time": 178.94212874999533,
    "velocity": 0.7874015748031497,
    "duration": 0.09294862499999113
  },
  {
    "name": "B6",
    "midi": 95,
    "time": 179.03828249999532,
    "velocity": 0.7874015748031497,
    "duration": 0.09294862499999113
  },
  {
    "name": "C7",
    "midi": 96,
    "time": 179.1344362499953,
    "velocity": 0.7874015748031497,
    "duration": 0.09294862499999113
  },
  {
    "name": "B6",
    "midi": 95,
    "time": 179.2305899999953,
    "velocity": 0.7874015748031497,
    "duration": 0.09294862499999113
  },
  {
    "name": "E7",
    "midi": 100,
    "time": 179.32674374999527,
    "velocity": 0.7874015748031497,
    "duration": 0.09294862499999113
  },
  {
    "name": "B6",
    "midi": 95,
    "time": 179.42289749999526,
    "velocity": 0.7874015748031497,
    "duration": 0.09374990624999668
  },
  {
    "name": "E7",
    "midi": 100,
    "time": 179.51905124999524,
    "velocity": 0.7874015748031497,
    "duration": 0.09294862499999113
  },
  {
    "name": "D#7",
    "midi": 99,
    "time": 179.61520499999523,
    "velocity": 0.7874015748031497,
    "duration": 0.09374990624999668
  },
  {
    "name": "E7",
    "midi": 100,
    "time": 179.7113587499952,
    "velocity": 0.7874015748031497,
    "duration": 0.09294862499999113
  },
  {
    "name": "D#7",
    "midi": 99,
    "time": 179.8075124999952,
    "velocity": 0.7874015748031497,
    "duration": 0.09374990624999668
  },
  {
    "name": "D7",
    "midi": 98,
    "time": 179.90366624999518,
    "velocity": 0.7874015748031497,
    "duration": 0.09294862499999113
  },
  {
    "name": "G#8",
    "midi": 116,
    "time": 179.99981999999517,
    "velocity": 0.7874015748031497,
    "duration": 0.3846149999999966
  },
  {
    "name": "C7",
    "midi": 96,
    "time": 179.99981999999517,
    "velocity": 0.7874015748031497,
    "duration": 0.09374990624999668
  },
  {
    "name": "C#7",
    "midi": 97,
    "time": 180.09597374999515,
    "velocity": 0.7874015748031497,
    "duration": 1.7307675000000131
  },
  {
    "name": "E7",
    "midi": 100,
    "time": 181.92289499999518,
    "velocity": 0.7874015748031497,
    "duration": 0.09294862499999113
  },
  {
    "name": "D#7",
    "midi": 99,
    "time": 182.01904874999516,
    "velocity": 0.7874015748031497,
    "duration": 0.09294862499999113
  },
  {
    "name": "D7",
    "midi": 98,
    "time": 182.11520249999515,
    "velocity": 0.7874015748031497,
    "duration": 0.09374990624999668
  },
  {
    "name": "D#7",
    "midi": 99,
    "time": 182.21135624999513,
    "velocity": 0.7874015748031497,
    "duration": 0.09294862499999113
  },
  {
    "name": "B6",
    "midi": 95,
    "time": 182.30750999999512,
    "velocity": 0.7874015748031497,
    "duration": 0.09294862499999113
  },
  {
    "name": "D#7",
    "midi": 99,
    "time": 182.4036637499951,
    "velocity": 0.7874015748031497,
    "duration": 0.09294862499999113
  },
  {
    "name": "D7",
    "midi": 98,
    "time": 182.4998174999951,
    "velocity": 0.7874015748031497,
    "duration": 0.09294862499999113
  },
  {
    "name": "D#7",
    "midi": 99,
    "time": 182.59597124999507,
    "velocity": 0.7874015748031497,
    "duration": 0.09374990624999668
  },
  {
    "name": "E7",
    "midi": 100,
    "time": 182.69212499999506,
    "velocity": 0.7874015748031497,
    "duration": 0.09374990624999668
  },
  {
    "name": "D#7",
    "midi": 99,
    "time": 182.78827874999504,
    "velocity": 0.7874015748031497,
    "duration": 0.09294862499999113
  },
  {
    "name": "D7",
    "midi": 98,
    "time": 182.88443249999503,
    "velocity": 0.7874015748031497,
    "duration": 0.09294862499999113
  },
  {
    "name": "D#7",
    "midi": 99,
    "time": 182.980586249995,
    "velocity": 0.7874015748031497,
    "duration": 0.09294862499999113
  },
  {
    "name": "C#7",
    "midi": 97,
    "time": 183.076739999995,
    "velocity": 0.7874015748031497,
    "duration": 0.09294862499999113
  },
  {
    "name": "D#7",
    "midi": 99,
    "time": 183.17289374999498,
    "velocity": 0.7874015748031497,
    "duration": 0.09294862499999113
  },
  {
    "name": "D7",
    "midi": 98,
    "time": 183.26904749999497,
    "velocity": 0.7874015748031497,
    "duration": 0.09294862499999113
  },
  {
    "name": "D#7",
    "midi": 99,
    "time": 183.36520124999495,
    "velocity": 0.7874015748031497,
    "duration": 0.09294862499999113
  },
  {
    "name": "B6",
    "midi": 95,
    "time": 183.46135499999494,
    "velocity": 0.7874015748031497,
    "duration": 0.09294862499999113
  },
  {
    "name": "D#7",
    "midi": 99,
    "time": 183.55750874999492,
    "velocity": 0.7874015748031497,
    "duration": 0.09294862499999113
  },
  {
    "name": "D7",
    "midi": 98,
    "time": 183.6536624999949,
    "velocity": 0.7874015748031497,
    "duration": 0.09294862499999113
  },
  {
    "name": "D#7",
    "midi": 99,
    "time": 183.7498162499949,
    "velocity": 0.7874015748031497,
    "duration": 0.09294862499999113
  },
  {
    "name": "C#7",
    "midi": 97,
    "time": 183.84596999999488,
    "velocity": 0.7874015748031497,
    "duration": 0.09374990624999668
  },
  {
    "name": "D#7",
    "midi": 99,
    "time": 183.94212374999486,
    "velocity": 0.7874015748031497,
    "duration": 0.09374990624999668
  },
  {
    "name": "D7",
    "midi": 98,
    "time": 184.03827749999485,
    "velocity": 0.7874015748031497,
    "duration": 0.09374990624999668
  },
  {
    "name": "D#7",
    "midi": 99,
    "time": 184.13443124999483,
    "velocity": 0.7874015748031497,
    "duration": 0.09374990624999668
  },
  {
    "name": "B6",
    "midi": 95,
    "time": 184.23058499999482,
    "velocity": 0.7874015748031497,
    "duration": 0.09214734375001399
  },
  {
    "name": "D#7",
    "midi": 99,
    "time": 184.32673874999483,
    "velocity": 0.7874015748031497,
    "duration": 0.09294862499999113
  },
  {
    "name": "D7",
    "midi": 98,
    "time": 184.42289249999482,
    "velocity": 0.7874015748031497,
    "duration": 0.09294862499999113
  },
  {
    "name": "D#7",
    "midi": 99,
    "time": 184.5190462499948,
    "velocity": 0.7874015748031497,
    "duration": 0.09294862499999113
  },
  {
    "name": "E7",
    "midi": 100,
    "time": 184.6151999999948,
    "velocity": 0.7874015748031497,
    "duration": 0.28846125000001166
  },
  {
    "name": "D7",
    "midi": 98,
    "time": 184.9998149999948,
    "velocity": 0.7874015748031497,
    "duration": 0.09294862499999113
  },
  {
    "name": "C#7",
    "midi": 97,
    "time": 185.0959687499948,
    "velocity": 0.7874015748031497,
    "duration": 0.09294862499999113
  },
  {
    "name": "C7",
    "midi": 96,
    "time": 185.19212249999478,
    "velocity": 0.7874015748031497,
    "duration": 0.09294862499999113
  },
  {
    "name": "C#7",
    "midi": 97,
    "time": 185.28827624999477,
    "velocity": 0.7874015748031497,
    "duration": 0.09294862499999113
  },
  {
    "name": "C7",
    "midi": 96,
    "time": 185.38442999999475,
    "velocity": 0.7874015748031497,
    "duration": 0.09374990624999668
  },
  {
    "name": "B6",
    "midi": 95,
    "time": 185.48058374999474,
    "velocity": 0.7874015748031497,
    "duration": 0.09374990624999668
  },
  {
    "name": "C7",
    "midi": 96,
    "time": 185.57673749999472,
    "velocity": 0.7874015748031497,
    "duration": 0.09374990624999668
  },
  {
    "name": "B6",
    "midi": 95,
    "time": 185.6728912499947,
    "velocity": 0.7874015748031497,
    "duration": 0.09374990624999668
  },
  {
    "name": "E7",
    "midi": 100,
    "time": 185.7690449999947,
    "velocity": 0.7874015748031497,
    "duration": 0.09214734375001399
  },
  {
    "name": "B6",
    "midi": 95,
    "time": 185.8651987499947,
    "velocity": 0.7874015748031497,
    "duration": 0.09294862499999113
  },
  {
    "name": "E7",
    "midi": 100,
    "time": 185.9613524999947,
    "velocity": 0.7874015748031497,
    "duration": 0.09294862499999113
  },
  {
    "name": "D#7",
    "midi": 99,
    "time": 186.05750624999467,
    "velocity": 0.7874015748031497,
    "duration": 0.09294862499999113
  },
  {
    "name": "E7",
    "midi": 100,
    "time": 186.15365999999466,
    "velocity": 0.7874015748031497,
    "duration": 0.09374990624999668
  },
  {
    "name": "C7",
    "midi": 96,
    "time": 186.24981374999464,
    "velocity": 0.7874015748031497,
    "duration": 0.09294862499999113
  },
  {
    "name": "B6",
    "midi": 95,
    "time": 186.34596749999463,
    "velocity": 0.7874015748031497,
    "duration": 0.09294862499999113
  },
  {
    "name": "E7",
    "midi": 100,
    "time": 186.4421212499946,
    "velocity": 0.7874015748031497,
    "duration": 0.09214734375001399
  },
  {
    "name": "D#7",
    "midi": 99,
    "time": 186.53827499999463,
    "velocity": 0.7874015748031497,
    "duration": 0.09294862499999113
  },
  {
    "name": "B6",
    "midi": 95,
    "time": 186.6344287499946,
    "velocity": 0.7874015748031497,
    "duration": 0.09294862499999113
  },
  {
    "name": "E7",
    "midi": 100,
    "time": 186.7305824999946,
    "velocity": 0.7874015748031497,
    "duration": 0.09374990624999668
  },
  {
    "name": "D#7",
    "midi": 99,
    "time": 186.82673624999458,
    "velocity": 0.7874015748031497,
    "duration": 0.09374990624999668
  },
  {
    "name": "D7",
    "midi": 98,
    "time": 186.92288999999457,
    "velocity": 0.7874015748031497,
    "duration": 0.09294862499999113
  },
  {
    "name": "C#7",
    "midi": 97,
    "time": 187.01904374999455,
    "velocity": 0.7874015748031497,
    "duration": 0.09294862499999113
  },
  {
    "name": "C7",
    "midi": 96,
    "time": 187.11519749999454,
    "velocity": 0.7874015748031497,
    "duration": 0.09294862499999113
  },
  {
    "name": "B6",
    "midi": 95,
    "time": 187.21135124999452,
    "velocity": 0.7874015748031497,
    "duration": 0.09374990624999668
  },
  {
    "name": "E7",
    "midi": 100,
    "time": 187.3075049999945,
    "velocity": 0.7874015748031497,
    "duration": 0.09214734375001399
  },
  {
    "name": "B6",
    "midi": 95,
    "time": 187.40365874999452,
    "velocity": 0.7874015748031497,
    "duration": 0.09294862499999113
  },
  {
    "name": "E7",
    "midi": 100,
    "time": 187.4998124999945,
    "velocity": 0.7874015748031497,
    "duration": 0.09294862499999113
  },
  {
    "name": "D#7",
    "midi": 99,
    "time": 187.5959662499945,
    "velocity": 0.7874015748031497,
    "duration": 0.09294862499999113
  },
  {
    "name": "D7",
    "midi": 98,
    "time": 187.69211999999447,
    "velocity": 0.7874015748031497,
    "duration": 0.28846125000001166
  },
  {
    "name": "D7",
    "midi": 98,
    "time": 188.0767349999945,
    "velocity": 0.7874015748031497,
    "duration": 0.09374990624999668
  },
  {
    "name": "D#7",
    "midi": 99,
    "time": 188.17288874999448,
    "velocity": 0.7874015748031497,
    "duration": 0.09294862499999113
  },
  {
    "name": "E7",
    "midi": 100,
    "time": 188.26904249999447,
    "velocity": 0.7874015748031497,
    "duration": 0.09294862499999113
  },
  {
    "name": "D#7",
    "midi": 99,
    "time": 188.36519624999445,
    "velocity": 0.7874015748031497,
    "duration": 0.09294862499999113
  },
  {
    "name": "E7",
    "midi": 100,
    "time": 188.46134999999444,
    "velocity": 0.7874015748031497,
    "duration": 0.09294862499999113
  },
  {
    "name": "B6",
    "midi": 95,
    "time": 188.55750374999442,
    "velocity": 0.7874015748031497,
    "duration": 0.09374990624999668
  },
  {
    "name": "C7",
    "midi": 96,
    "time": 188.6536574999944,
    "velocity": 0.7874015748031497,
    "duration": 0.09615375000001336
  },
  {
    "name": "B6",
    "midi": 95,
    "time": 188.84596499999444,
    "velocity": 0.7874015748031497,
    "duration": 0.09294862499999113
  },
  {
    "name": "E7",
    "midi": 100,
    "time": 188.94211874999442,
    "velocity": 0.7874015748031497,
    "duration": 0.09294862499999113
  },
  {
    "name": "D#7",
    "midi": 99,
    "time": 189.0382724999944,
    "velocity": 0.7874015748031497,
    "duration": 0.48076875000000996
  },
  {
    "name": "D7",
    "midi": 98,
    "time": 189.61519499999443,
    "velocity": 0.7874015748031497,
    "duration": 0.09374990624999668
  },
  {
    "name": "C#7",
    "midi": 97,
    "time": 189.71134874999441,
    "velocity": 0.7874015748031497,
    "duration": 0.09294862499999113
  },
  {
    "name": "C7",
    "midi": 96,
    "time": 189.8075024999944,
    "velocity": 0.7874015748031497,
    "duration": 0.09294862499999113
  },
  {
    "name": "C#7",
    "midi": 97,
    "time": 189.90365624999438,
    "velocity": 0.7874015748031497,
    "duration": 0.09374990624999668
  },
  {
    "name": "C7",
    "midi": 96,
    "time": 189.99980999999437,
    "velocity": 0.7874015748031497,
    "duration": 0.09294862499999113
  },
  {
    "name": "C#7",
    "midi": 97,
    "time": 190.09596374999435,
    "velocity": 0.7874015748031497,
    "duration": 0.09294862499999113
  },
  {
    "name": "C7",
    "midi": 96,
    "time": 190.19211749999434,
    "velocity": 0.7874015748031497,
    "duration": 0.09374990624999668
  },
  {
    "name": "B6",
    "midi": 95,
    "time": 190.28827124999432,
    "velocity": 0.7874015748031497,
    "duration": 0.09294862499999113
  },
  {
    "name": "D#7",
    "midi": 99,
    "time": 190.3844249999943,
    "velocity": 0.7874015748031497,
    "duration": 0.09294862499999113
  },
  {
    "name": "E7",
    "midi": 100,
    "time": 190.4805787499943,
    "velocity": 0.7874015748031497,
    "duration": 0.09294862499999113
  },
  {
    "name": "D#7",
    "midi": 99,
    "time": 190.57673249999428,
    "velocity": 0.7874015748031497,
    "duration": 0.09294862499999113
  },
  {
    "name": "D7",
    "midi": 98,
    "time": 190.67288624999426,
    "velocity": 0.7874015748031497,
    "duration": 0.09294862499999113
  },
  {
    "name": "E7",
    "midi": 100,
    "time": 190.76903999999425,
    "velocity": 0.7874015748031497,
    "duration": 0.09374990624999668
  },
  {
    "name": "D#7",
    "midi": 99,
    "time": 190.86519374999423,
    "velocity": 0.7874015748031497,
    "duration": 0.48076875000000996
  },
  {
    "name": "G#8",
    "midi": 116,
    "time": 191.15365499999425,
    "velocity": 0.7874015748031497,
    "duration": 1.6346137500001134
  },
  {
    "name": "B6",
    "midi": 95,
    "time": 191.53826999999424,
    "velocity": 0.7874015748031497,
    "duration": 0.09615375000001336
  },
  {
    "name": "C7",
    "midi": 96,
    "time": 191.73057749999427,
    "velocity": 0.7874015748031497,
    "duration": 0.09615375000001336
  },
  {
    "name": "C#7",
    "midi": 97,
    "time": 191.9228849999943,
    "velocity": 0.7874015748031497,
    "duration": 0.09615375000001336
  },
  {
    "name": "B6",
    "midi": 95,
    "time": 192.2113462499943,
    "velocity": 0.7874015748031497,
    "duration": 0.09615375000001336
  },
  {
    "name": "C7",
    "midi": 96,
    "time": 192.3555768749943,
    "velocity": 0.7874015748031497,
    "duration": 0.09615375000001336
  },
  {
    "name": "C#7",
    "midi": 97,
    "time": 192.49980749999432,
    "velocity": 0.7874015748031497,
    "duration": 0.09615375000001336
  },
  {
    "name": "C7",
    "midi": 96,
    "time": 192.69211499999435,
    "velocity": 0.7874015748031497,
    "duration": 1.2499987500000032
  },
  {
    "name": "D7",
    "midi": 98,
    "time": 194.03826749999436,
    "velocity": 0.7874015748031497,
    "duration": 0.09615375000001336
  },
  {
    "name": "E7",
    "midi": 100,
    "time": 194.2305749999944,
    "velocity": 0.7874015748031497,
    "duration": 0.09294862499999113
  },
  {
    "name": "D#7",
    "midi": 99,
    "time": 194.32672874999437,
    "velocity": 0.7874015748031497,
    "duration": 0.09294862499999113
  },
  {
    "name": "D7",
    "midi": 98,
    "time": 194.42288249999436,
    "velocity": 0.7874015748031497,
    "duration": 0.09294862499999113
  },
  {
    "name": "D#7",
    "midi": 99,
    "time": 194.51903624999434,
    "velocity": 0.7874015748031497,
    "duration": 0.09294862499999113
  },
  {
    "name": "B6",
    "midi": 95,
    "time": 194.61518999999433,
    "velocity": 0.7874015748031497,
    "duration": 0.09294862499999113
  },
  {
    "name": "D#7",
    "midi": 99,
    "time": 194.7113437499943,
    "velocity": 0.7874015748031497,
    "duration": 0.09294862499999113
  },
  {
    "name": "D7",
    "midi": 98,
    "time": 194.8074974999943,
    "velocity": 0.7874015748031497,
    "duration": 0.09294862499999113
  },
  {
    "name": "D#7",
    "midi": 99,
    "time": 194.90365124999428,
    "velocity": 0.7874015748031497,
    "duration": 0.09294862499999113
  },
  {
    "name": "E7",
    "midi": 100,
    "time": 194.99980499999427,
    "velocity": 0.7874015748031497,
    "duration": 0.09294862499999113
  },
  {
    "name": "D#7",
    "midi": 99,
    "time": 195.09595874999425,
    "velocity": 0.7874015748031497,
    "duration": 0.09294862499999113
  },
  {
    "name": "D7",
    "midi": 98,
    "time": 195.19211249999424,
    "velocity": 0.7874015748031497,
    "duration": 0.09374990624999668
  },
  {
    "name": "D#7",
    "midi": 99,
    "time": 195.28826624999422,
    "velocity": 0.7874015748031497,
    "duration": 0.09374990624999668
  },
  {
    "name": "C#7",
    "midi": 97,
    "time": 195.3844199999942,
    "velocity": 0.7874015748031497,
    "duration": 0.09294862499999113
  },
  {
    "name": "D#7",
    "midi": 99,
    "time": 195.4805737499942,
    "velocity": 0.7874015748031497,
    "duration": 0.09294862499999113
  },
  {
    "name": "D7",
    "midi": 98,
    "time": 195.57672749999418,
    "velocity": 0.7874015748031497,
    "duration": 0.09214734375001399
  },
  {
    "name": "D#7",
    "midi": 99,
    "time": 195.6728812499942,
    "velocity": 0.7874015748031497,
    "duration": 0.09294862499999113
  },
  {
    "name": "B6",
    "midi": 95,
    "time": 195.76903499999418,
    "velocity": 0.7874015748031497,
    "duration": 0.09294862499999113
  },
  {
    "name": "D#7",
    "midi": 99,
    "time": 195.86518874999416,
    "velocity": 0.7874015748031497,
    "duration": 0.09294862499999113
  },
  {
    "name": "D7",
    "midi": 98,
    "time": 195.96134249999415,
    "velocity": 0.7874015748031497,
    "duration": 0.09374990624999668
  },
  {
    "name": "D#7",
    "midi": 99,
    "time": 196.05749624999413,
    "velocity": 0.7874015748031497,
    "duration": 0.09294862499999113
  },
  {
    "name": "C#7",
    "midi": 97,
    "time": 196.15364999999412,
    "velocity": 0.7874015748031497,
    "duration": 0.09294862499999113
  },
  {
    "name": "D#7",
    "midi": 99,
    "time": 196.2498037499941,
    "velocity": 0.7874015748031497,
    "duration": 0.09374990624999668
  },
  {
    "name": "D7",
    "midi": 98,
    "time": 196.34595749999409,
    "velocity": 0.7874015748031497,
    "duration": 0.09294862499999113
  },
  {
    "name": "D#7",
    "midi": 99,
    "time": 196.44211124999407,
    "velocity": 0.7874015748031497,
    "duration": 0.09294862499999113
  },
  {
    "name": "B6",
    "midi": 95,
    "time": 196.53826499999406,
    "velocity": 0.7874015748031497,
    "duration": 0.09294862499999113
  },
  {
    "name": "D#7",
    "midi": 99,
    "time": 196.63441874999404,
    "velocity": 0.7874015748031497,
    "duration": 0.09294862499999113
  },
  {
    "name": "D7",
    "midi": 98,
    "time": 196.73057249999403,
    "velocity": 0.7874015748031497,
    "duration": 0.09294862499999113
  },
  {
    "name": "D#7",
    "midi": 99,
    "time": 196.826726249994,
    "velocity": 0.7874015748031497,
    "duration": 0.09214734375001399
  },
  {
    "name": "E7",
    "midi": 100,
    "time": 196.92287999999402,
    "velocity": 0.7874015748031497,
    "duration": 0.09615375000001336
  },
  {
    "name": "D7",
    "midi": 98,
    "time": 197.30749499999405,
    "velocity": 0.7874015748031497,
    "duration": 0.09374990624999668
  },
  {
    "name": "C#7",
    "midi": 97,
    "time": 197.40364874999403,
    "velocity": 0.7874015748031497,
    "duration": 0.09294862499999113
  },
  {
    "name": "C7",
    "midi": 96,
    "time": 197.49980249999402,
    "velocity": 0.7874015748031497,
    "duration": 0.09374990624999668
  },
  {
    "name": "B6",
    "midi": 95,
    "time": 197.595956249994,
    "velocity": 0.7874015748031497,
    "duration": 0.09294862499999113
  },
  {
    "name": "C7",
    "midi": 96,
    "time": 197.692109999994,
    "velocity": 0.7874015748031497,
    "duration": 0.09374990624999668
  },
  {
    "name": "B6",
    "midi": 95,
    "time": 197.78826374999397,
    "velocity": 0.7874015748031497,
    "duration": 0.09214734375001399
  },
  {
    "name": "E7",
    "midi": 100,
    "time": 197.884417499994,
    "velocity": 0.7874015748031497,
    "duration": 0.09294862499999113
  },
  {
    "name": "B6",
    "midi": 95,
    "time": 197.98057124999397,
    "velocity": 0.7874015748031497,
    "duration": 0.09294862499999113
  },
  {
    "name": "C#7",
    "midi": 97,
    "time": 198.07672499999396,
    "velocity": 0.7874015748031497,
    "duration": 0.09294862499999113
  },
  {
    "name": "C7",
    "midi": 96,
    "time": 198.17287874999394,
    "velocity": 0.7874015748031497,
    "duration": 0.09214734375001399
  },
  {
    "name": "B6",
    "midi": 95,
    "time": 198.26903249999395,
    "velocity": 0.7874015748031497,
    "duration": 0.09294862499999113
  },
  {
    "name": "C7",
    "midi": 96,
    "time": 198.36518624999394,
    "velocity": 0.7874015748031497,
    "duration": 0.09294862499999113
  },
  {
    "name": "B6",
    "midi": 95,
    "time": 198.46133999999392,
    "velocity": 0.7874015748031497,
    "duration": 0.09294862499999113
  },
  {
    "name": "C7",
    "midi": 96,
    "time": 198.5574937499939,
    "velocity": 0.7874015748031497,
    "duration": 0.09294862499999113
  },
  {
    "name": "C7",
    "midi": 96,
    "time": 198.6536474999939,
    "velocity": 0.7874015748031497,
    "duration": 0.09294862499999113
  },
  {
    "name": "B6",
    "midi": 95,
    "time": 198.74980124999388,
    "velocity": 0.7874015748031497,
    "duration": 0.09294862499999113
  },
  {
    "name": "E7",
    "midi": 100,
    "time": 198.84595499999386,
    "velocity": 0.7874015748031497,
    "duration": 0.09294862499999113
  },
  {
    "name": "C7",
    "midi": 96,
    "time": 198.94210874999385,
    "velocity": 0.7874015748031497,
    "duration": 0.09294862499999113
  },
  {
    "name": "B6",
    "midi": 95,
    "time": 199.03826249999383,
    "velocity": 0.7874015748031497,
    "duration": 0.09294862499999113
  },
  {
    "name": "E7",
    "midi": 100,
    "time": 199.13441624999382,
    "velocity": 0.7874015748031497,
    "duration": 0.09294862499999113
  },
  {
    "name": "D#7",
    "midi": 99,
    "time": 199.2305699999938,
    "velocity": 0.7874015748031497,
    "duration": 0.09294862499999113
  },
  {
    "name": "C#7",
    "midi": 97,
    "time": 199.3267237499938,
    "velocity": 0.7874015748031497,
    "duration": 0.09294862499999113
  },
  {
    "name": "C7",
    "midi": 96,
    "time": 199.42287749999377,
    "velocity": 0.7874015748031497,
    "duration": 0.09294862499999113
  },
  {
    "name": "B6",
    "midi": 95,
    "time": 199.51903124999376,
    "velocity": 0.7874015748031497,
    "duration": 0.09294862499999113
  },
  {
    "name": "E7",
    "midi": 100,
    "time": 199.61518499999374,
    "velocity": 0.7874015748031497,
    "duration": 0.6730762500000083
  },
  {
    "name": "D7",
    "midi": 98,
    "time": 200.38441499999377,
    "velocity": 0.7874015748031497,
    "duration": 0.09374990624999668
  },
  {
    "name": "D#7",
    "midi": 99,
    "time": 200.48056874999375,
    "velocity": 0.7874015748031497,
    "duration": 0.09294862499999113
  },
  {
    "name": "E7",
    "midi": 100,
    "time": 200.57672249999374,
    "velocity": 0.7874015748031497,
    "duration": 0.09294862499999113
  },
  {
    "name": "D#7",
    "midi": 99,
    "time": 200.67287624999372,
    "velocity": 0.7874015748031497,
    "duration": 0.09214734375001399
  },
  {
    "name": "E7",
    "midi": 100,
    "time": 200.76902999999373,
    "velocity": 0.7874015748031497,
    "duration": 0.09294862499999113
  },
  {
    "name": "B6",
    "midi": 95,
    "time": 200.86518374999372,
    "velocity": 0.7874015748031497,
    "duration": 0.09374990624999668
  },
  {
    "name": "C7",
    "midi": 96,
    "time": 200.9613374999937,
    "velocity": 0.7874015748031497,
    "duration": 0.09615375000001336
  },
  {
    "name": "B6",
    "midi": 95,
    "time": 201.15364499999373,
    "velocity": 0.7874015748031497,
    "duration": 0.09214734375001399
  },
  {
    "name": "E7",
    "midi": 100,
    "time": 201.24979874999374,
    "velocity": 0.7874015748031497,
    "duration": 0.09294862499999113
  },
  {
    "name": "D#7",
    "midi": 99,
    "time": 201.34595249999373,
    "velocity": 0.7874015748031497,
    "duration": 0.48076875000000996
  },
  {
    "name": "C#7",
    "midi": 97,
    "time": 201.92287499999375,
    "velocity": 0.7874015748031497,
    "duration": 0.09294862499999113
  },
  {
    "name": "C7",
    "midi": 96,
    "time": 202.01902874999374,
    "velocity": 0.7874015748031497,
    "duration": 0.09294862499999113
  },
  {
    "name": "B6",
    "midi": 95,
    "time": 202.11518249999372,
    "velocity": 0.7874015748031497,
    "duration": 0.09294862499999113
  },
  {
    "name": "E7",
    "midi": 100,
    "time": 202.2113362499937,
    "velocity": 0.7874015748031497,
    "duration": 0.09294862499999113
  },
  {
    "name": "D#7",
    "midi": 99,
    "time": 202.3074899999937,
    "velocity": 0.7874015748031497,
    "duration": 0.09214734375001399
  },
  {
    "name": "D7",
    "midi": 98,
    "time": 202.4036437499937,
    "velocity": 0.7874015748031497,
    "duration": 0.09294862499999113
  },
  {
    "name": "C#7",
    "midi": 97,
    "time": 202.4997974999937,
    "velocity": 0.7874015748031497,
    "duration": 0.09374990624999668
  },
  {
    "name": "C7",
    "midi": 96,
    "time": 202.59595124999367,
    "velocity": 0.7874015748031497,
    "duration": 0.09294862499999113
  },
  {
    "name": "B6",
    "midi": 95,
    "time": 202.69210499999366,
    "velocity": 0.7874015748031497,
    "duration": 0.09294862499999113
  },
  {
    "name": "E7",
    "midi": 100,
    "time": 202.78825874999364,
    "velocity": 0.7874015748031497,
    "duration": 0.09374990624999668
  },
  {
    "name": "D#7",
    "midi": 99,
    "time": 202.88441249999363,
    "velocity": 0.7874015748031497,
    "duration": 0.09374990624999668
  },
  {
    "name": "D7",
    "midi": 98,
    "time": 202.98056624999361,
    "velocity": 0.7874015748031497,
    "duration": 0.3846149999999966
  },
  {
    "name": "G#8",
    "midi": 116,
    "time": 203.46133499999362,
    "velocity": 0.7874015748031497,
    "duration": 1.6346137500001134
  },
  {
    "name": "D#7",
    "midi": 99,
    "time": 203.46133499999362,
    "velocity": 0.7874015748031497,
    "duration": 0.09615375000001336
  },
  {
    "name": "E7",
    "midi": 100,
    "time": 203.71774499999364,
    "velocity": 0.7874015748031497,
    "duration": 0.09615375000001336
  },
  {
    "name": "B6",
    "midi": 95,
    "time": 203.97415499999366,
    "velocity": 0.7874015748031497,
    "duration": 0.09615375000001336
  },
  {
    "name": "C7",
    "midi": 96,
    "time": 204.23056499999367,
    "velocity": 0.7874015748031497,
    "duration": 0.09615375000001336
  },
  {
    "name": "B6",
    "midi": 95,
    "time": 204.4228724999937,
    "velocity": 0.7874015748031497,
    "duration": 0.09615375000001336
  },
  {
    "name": "E7",
    "midi": 100,
    "time": 204.61517999999373,
    "velocity": 0.7874015748031497,
    "duration": 0.09294862499999113
  },
  {
    "name": "D#7",
    "midi": 99,
    "time": 204.7113337499937,
    "velocity": 0.7874015748031497,
    "duration": 0.09294862499999113
  },
  {
    "name": "D7",
    "midi": 98,
    "time": 204.8074874999937,
    "velocity": 0.7874015748031497,
    "duration": 0.09615375000001336
  },
  {
    "name": "D#7",
    "midi": 99,
    "time": 204.99979499999372,
    "velocity": 0.7874015748031497,
    "duration": 1.4423062500000015
  },
  {
    "name": "B6",
    "midi": 95,
    "time": 206.53825499999374,
    "velocity": 0.7874015748031497,
    "duration": 0.09374990624999668
  },
  {
    "name": "C7",
    "midi": 96,
    "time": 206.63440874999372,
    "velocity": 0.7874015748031497,
    "duration": 0.1923074999999983
  },
  {
    "name": "B6",
    "midi": 95,
    "time": 206.92286999999374,
    "velocity": 0.7874015748031497,
    "duration": 0.28846125000001166
  },
  {
    "name": "E7",
    "midi": 100,
    "time": 207.30748499999376,
    "velocity": 0.7874015748031497,
    "duration": 0.28846125000001166
  },
  {
    "name": "B6",
    "midi": 95,
    "time": 207.6920999999938,
    "velocity": 0.7874015748031497,
    "duration": 0.28846125000001166
  },
  {
    "name": "C7",
    "midi": 96,
    "time": 208.0767149999938,
    "velocity": 0.7874015748031497,
    "duration": 0.09615375000001336
  },
  {
    "name": "E7",
    "midi": 100,
    "time": 208.26902249999384,
    "velocity": 0.7874015748031497,
    "duration": 1.2499987500000032
  },
  {
    "name": "G#8",
    "midi": 116,
    "time": 209.61517499999385,
    "velocity": 0.7874015748031497,
    "duration": 1.5384600000000432
  },
  {
    "name": "C7",
    "midi": 96,
    "time": 209.61517499999385,
    "velocity": 0.7874015748031497,
    "duration": 0.09294862499999113
  },
  {
    "name": "C#7",
    "midi": 97,
    "time": 209.71132874999384,
    "velocity": 0.7874015748031497,
    "duration": 0.1923074999999983
  },
  {
    "name": "C7",
    "midi": 96,
    "time": 209.99978999999385,
    "velocity": 0.7874015748031497,
    "duration": 0.09214734375001399
  },
  {
    "name": "C#7",
    "midi": 97,
    "time": 210.09594374999386,
    "velocity": 0.7874015748031497,
    "duration": 0.09214734375001399
  },
  {
    "name": "C7",
    "midi": 96,
    "time": 210.19209749999388,
    "velocity": 0.7874015748031497,
    "duration": 0.09294862499999113
  },
  {
    "name": "C#7",
    "midi": 97,
    "time": 210.28825124999386,
    "velocity": 0.7874015748031497,
    "duration": 0.09294862499999113
  },
  {
    "name": "B6",
    "midi": 95,
    "time": 210.38440499999385,
    "velocity": 0.7874015748031497,
    "duration": 0.28846125000001166
  },
  {
    "name": "E7",
    "midi": 100,
    "time": 210.76901999999387,
    "velocity": 0.7874015748031497,
    "duration": 0.28846125000001166
  },
  {
    "name": "B6",
    "midi": 95,
    "time": 211.1536349999939,
    "velocity": 0.7874015748031497,
    "duration": 1.4423062500000015
  },
  {
    "name": "B6",
    "midi": 95,
    "time": 212.6920949999939,
    "velocity": 0.7874015748031497,
    "duration": 0.09294862499999113
  },
  {
    "name": "C7",
    "midi": 96,
    "time": 212.7882487499939,
    "velocity": 0.7874015748031497,
    "duration": 0.1923074999999983
  },
  {
    "name": "B6",
    "midi": 95,
    "time": 213.0767099999939,
    "velocity": 0.7874015748031497,
    "duration": 0.28846125000001166
  },
  {
    "name": "E7",
    "midi": 100,
    "time": 213.46132499999393,
    "velocity": 0.7874015748031497,
    "duration": 0.28846125000001166
  },
  {
    "name": "B6",
    "midi": 95,
    "time": 213.84593999999396,
    "velocity": 0.7874015748031497,
    "duration": 0.28846125000001166
  },
  {
    "name": "C7",
    "midi": 96,
    "time": 214.23055499999398,
    "velocity": 0.7874015748031497,
    "duration": 0.09615375000001336
  },
  {
    "name": "E7",
    "midi": 100,
    "time": 214.422862499994,
    "velocity": 0.7874015748031497,
    "duration": 1.2499987500000032
  },
  {
    "name": "C7",
    "midi": 96,
    "time": 215.76901499999403,
    "velocity": 0.7874015748031497,
    "duration": 0.09294862499999113
  },
  {
    "name": "C#7",
    "midi": 97,
    "time": 215.865168749994,
    "velocity": 0.7874015748031497,
    "duration": 0.1923074999999983
  },
  {
    "name": "C7",
    "midi": 96,
    "time": 216.15362999999402,
    "velocity": 0.7874015748031497,
    "duration": 0.28846125000001166
  },
  {
    "name": "B6",
    "midi": 95,
    "time": 216.53824499999405,
    "velocity": 0.7874015748031497,
    "duration": 0.28846125000001166
  },
  {
    "name": "E7",
    "midi": 100,
    "time": 216.92285999999407,
    "velocity": 0.7874015748031497,
    "duration": 0.28846125000001166
  },
  {
    "name": "B6",
    "midi": 95,
    "time": 217.3074749999941,
    "velocity": 0.7874015748031497,
    "duration": 1.4423062500000015
  },
  {
    "name": "D7",
    "midi": 98,
    "time": 218.8459349999941,
    "velocity": 0.7874015748031497,
    "duration": 0.09374990624999668
  },
  {
    "name": "D#7",
    "midi": 99,
    "time": 218.9420887499941,
    "velocity": 0.7874015748031497,
    "duration": 0.09374990624999668
  },
  {
    "name": "E7",
    "midi": 100,
    "time": 219.03824249999408,
    "velocity": 0.7874015748031497,
    "duration": 0.09374990624999668
  },
  {
    "name": "B6",
    "midi": 95,
    "time": 219.13439624999407,
    "velocity": 0.7874015748031497,
    "duration": 0.09374990624999668
  },
  {
    "name": "D#7",
    "midi": 99,
    "time": 219.23054999999405,
    "velocity": 0.7874015748031497,
    "duration": 0.09374990624999668
  },
  {
    "name": "E7",
    "midi": 100,
    "time": 219.32670374999404,
    "velocity": 0.7874015748031497,
    "duration": 0.09294862499999113
  },
  {
    "name": "B6",
    "midi": 95,
    "time": 219.42285749999402,
    "velocity": 0.7874015748031497,
    "duration": 0.09294862499999113
  },
  {
    "name": "C7",
    "midi": 96,
    "time": 219.519011249994,
    "velocity": 0.7874015748031497,
    "duration": 0.09294862499999113
  },
  {
    "name": "E7",
    "midi": 100,
    "time": 219.615164999994,
    "velocity": 0.7874015748031497,
    "duration": 0.09294862499999113
  },
  {
    "name": "B6",
    "midi": 95,
    "time": 219.71131874999398,
    "velocity": 0.7874015748031497,
    "duration": 0.5769224999999949
  },
  {
    "name": "C7",
    "midi": 96,
    "time": 220.384394999994,
    "velocity": 0.7874015748031497,
    "duration": 0.8653837500000066
  },
  {
    "name": "B6",
    "midi": 95,
    "time": 221.345932499994,
    "velocity": 0.7874015748031497,
    "duration": 0.09615375000001336
  },
  {
    "name": "E7",
    "midi": 100,
    "time": 221.53823999999403,
    "velocity": 0.7874015748031497,
    "duration": 0.09615375000001336
  },
  {
    "name": "D#7",
    "midi": 99,
    "time": 221.73054749999406,
    "velocity": 0.7874015748031497,
    "duration": 0.09615375000001336
  },
  {
    "name": "E7",
    "midi": 100,
    "time": 221.9228549999941,
    "velocity": 0.7874015748031497,
    "duration": 0.09615375000001336
  },
  {
    "name": "D#7",
    "midi": 99,
    "time": 222.1151624999941,
    "velocity": 0.7874015748031497,
    "duration": 0.09615375000001336
  },
  {
    "name": "D7",
    "midi": 98,
    "time": 222.30746999999414,
    "velocity": 0.7874015748031497,
    "duration": 0.09294862499999113
  },
  {
    "name": "D#7",
    "midi": 99,
    "time": 222.40362374999413,
    "velocity": 0.7874015748031497,
    "duration": 0.09294862499999113
  },
  {
    "name": "E7",
    "midi": 100,
    "time": 222.4997774999941,
    "velocity": 0.7874015748031497,
    "duration": 0.09214734375001399
  },
  {
    "name": "B6",
    "midi": 95,
    "time": 222.59593124999412,
    "velocity": 0.7874015748031497,
    "duration": 0.09214734375001399
  },
  {
    "name": "D#7",
    "midi": 99,
    "time": 222.69208499999414,
    "velocity": 0.7874015748031497,
    "duration": 0.09615375000001336
  },
  {
    "name": "E7",
    "midi": 100,
    "time": 222.82028999999415,
    "velocity": 0.7874015748031497,
    "duration": 0.09615375000001336
  },
  {
    "name": "D#7",
    "midi": 99,
    "time": 222.94849499999415,
    "velocity": 0.7874015748031497,
    "duration": 0.09615375000001336
  },
  {
    "name": "E7",
    "midi": 100,
    "time": 223.26900749999416,
    "velocity": 0.7874015748031497,
    "duration": 0.09615375000001336
  },
  {
    "name": "G#8",
    "midi": 116,
    "time": 223.4613149999942,
    "velocity": 0.7874015748031497,
    "duration": 0.6730762500000367
  },
  {
    "name": "E7",
    "midi": 100,
    "time": 223.4613149999942,
    "velocity": 0.7874015748031497,
    "duration": 0.09615375000001336
  },
  {
    "name": "B6",
    "midi": 95,
    "time": 223.6536224999942,
    "velocity": 0.7874015748031497,
    "duration": 0.09615375000001336
  },
  {
    "name": "C7",
    "midi": 96,
    "time": 223.94208374999423,
    "velocity": 0.7874015748031497,
    "duration": 0.9615374999999915
  },
  {
    "name": "F7",
    "midi": 101,
    "time": 223.94208374999423,
    "velocity": 0.7874015748031497,
    "duration": 0.9615374999999915
  },
  {
    "name": "D7",
    "midi": 98,
    "time": 224.99977499999423,
    "velocity": 0.7874015748031497,
    "duration": 0.09374990624999668
  },
  {
    "name": "D#7",
    "midi": 99,
    "time": 225.09592874999421,
    "velocity": 0.7874015748031497,
    "duration": 0.09294862499999113
  },
  {
    "name": "E7",
    "midi": 100,
    "time": 225.1920824999942,
    "velocity": 0.7874015748031497,
    "duration": 0.09374990624999668
  },
  {
    "name": "B6",
    "midi": 95,
    "time": 225.28823624999418,
    "velocity": 0.7874015748031497,
    "duration": 0.09294862499999113
  },
  {
    "name": "C7",
    "midi": 96,
    "time": 225.38438999999417,
    "velocity": 0.7874015748031497,
    "duration": 0.09374990624999668
  },
  {
    "name": "C#7",
    "midi": 97,
    "time": 225.48054374999415,
    "velocity": 0.7874015748031497,
    "duration": 0.09294862499999113
  },
  {
    "name": "D7",
    "midi": 98,
    "time": 225.57669749999414,
    "velocity": 0.7874015748031497,
    "duration": 0.09374990624999668
  },
  {
    "name": "D#7",
    "midi": 99,
    "time": 225.67285124999412,
    "velocity": 0.7874015748031497,
    "duration": 0.09294862499999113
  },
  {
    "name": "B6",
    "midi": 95,
    "time": 225.7690049999941,
    "velocity": 0.7874015748031497,
    "duration": 0.09615375000001336
  },
  {
    "name": "E7",
    "midi": 100,
    "time": 225.96131249999414,
    "velocity": 0.7874015748031497,
    "duration": 0.09374990624999668
  },
  {
    "name": "D#7",
    "midi": 99,
    "time": 226.05746624999412,
    "velocity": 0.7874015748031497,
    "duration": 0.09294862499999113
  },
  {
    "name": "D7",
    "midi": 98,
    "time": 226.1536199999941,
    "velocity": 0.7874015748031497,
    "duration": 0.28846125000001166
  },
  {
    "name": "D#7",
    "midi": 99,
    "time": 226.53823499999413,
    "velocity": 0.7874015748031497,
    "duration": 0.09294862499999113
  },
  {
    "name": "E7",
    "midi": 100,
    "time": 226.63438874999412,
    "velocity": 0.7874015748031497,
    "duration": 0.09294862499999113
  },
  {
    "name": "B6",
    "midi": 95,
    "time": 226.7305424999941,
    "velocity": 0.7874015748031497,
    "duration": 0.09294862499999113
  },
  {
    "name": "C7",
    "midi": 96,
    "time": 226.8266962499941,
    "velocity": 0.7874015748031497,
    "duration": 0.09374990624999668
  },
  {
    "name": "C#7",
    "midi": 97,
    "time": 226.92284999999407,
    "velocity": 0.7874015748031497,
    "duration": 0.09294862499999113
  },
  {
    "name": "B6",
    "midi": 95,
    "time": 227.01900374999406,
    "velocity": 0.7874015748031497,
    "duration": 0.09374990624999668
  },
  {
    "name": "C7",
    "midi": 96,
    "time": 227.11515749999404,
    "velocity": 0.7874015748031497,
    "duration": 0.09615375000001336
  },
  {
    "name": "C#7",
    "midi": 97,
    "time": 227.30746499999407,
    "velocity": 0.7874015748031497,
    "duration": 0.6730762500000083
  },
  {
    "name": "C#7",
    "midi": 97,
    "time": 228.0766949999941,
    "velocity": 0.7874015748031497,
    "duration": 0.09294862499999113
  },
  {
    "name": "C7",
    "midi": 96,
    "time": 228.17284874999407,
    "velocity": 0.7874015748031497,
    "duration": 0.09294862499999113
  },
  {
    "name": "B6",
    "midi": 95,
    "time": 228.26900249999406,
    "velocity": 0.7874015748031497,
    "duration": 0.09374990624999668
  },
  {
    "name": "C7",
    "midi": 96,
    "time": 228.36515624999404,
    "velocity": 0.7874015748031497,
    "duration": 0.09374990624999668
  },
  {
    "name": "B6",
    "midi": 95,
    "time": 228.46130999999403,
    "velocity": 0.7874015748031497,
    "duration": 0.09294862499999113
  },
  {
    "name": "E7",
    "midi": 100,
    "time": 228.557463749994,
    "velocity": 0.7874015748031497,
    "duration": 0.09294862499999113
  },
  {
    "name": "B6",
    "midi": 95,
    "time": 228.653617499994,
    "velocity": 0.7874015748031497,
    "duration": 0.09374990624999668
  },
  {
    "name": "E7",
    "midi": 100,
    "time": 228.74977124999398,
    "velocity": 0.7874015748031497,
    "duration": 0.09294862499999113
  },
  {
    "name": "D#7",
    "midi": 99,
    "time": 228.84592499999397,
    "velocity": 0.7874015748031497,
    "duration": 0.09294862499999113
  },
  {
    "name": "E7",
    "midi": 100,
    "time": 228.94207874999395,
    "velocity": 0.7874015748031497,
    "duration": 0.09294862499999113
  },
  {
    "name": "D#7",
    "midi": 99,
    "time": 229.03823249999394,
    "velocity": 0.7874015748031497,
    "duration": 0.09294862499999113
  },
  {
    "name": "D7",
    "midi": 98,
    "time": 229.13438624999392,
    "velocity": 0.7874015748031497,
    "duration": 0.09214734375001399
  },
  {
    "name": "D#7",
    "midi": 99,
    "time": 229.23053999999394,
    "velocity": 0.7874015748031497,
    "duration": 0.09294862499999113
  },
  {
    "name": "E7",
    "midi": 100,
    "time": 229.32669374999392,
    "velocity": 0.7874015748031497,
    "duration": 0.09374990624999668
  },
  {
    "name": "B6",
    "midi": 95,
    "time": 229.4228474999939,
    "velocity": 0.7874015748031497,
    "duration": 0.09294862499999113
  },
  {
    "name": "C7",
    "midi": 96,
    "time": 229.5190012499939,
    "velocity": 0.7874015748031497,
    "duration": 0.09294862499999113
  },
  {
    "name": "C#7",
    "midi": 97,
    "time": 229.61515499999388,
    "velocity": 0.7874015748031497,
    "duration": 0.09214734375001399
  },
  {
    "name": "C7",
    "midi": 96,
    "time": 229.7113087499939,
    "velocity": 0.7874015748031497,
    "duration": 0.09294862499999113
  },
  {
    "name": "B6",
    "midi": 95,
    "time": 229.80746249999387,
    "velocity": 0.7874015748031497,
    "duration": 0.09374990624999668
  },
  {
    "name": "C7",
    "midi": 96,
    "time": 229.90361624999386,
    "velocity": 0.7874015748031497,
    "duration": 0.09294862499999113
  },
  {
    "name": "B6",
    "midi": 95,
    "time": 229.99976999999384,
    "velocity": 0.7874015748031497,
    "duration": 0.09294862499999113
  },
  {
    "name": "E7",
    "midi": 100,
    "time": 230.09592374999383,
    "velocity": 0.7874015748031497,
    "duration": 0.09214734375001399
  },
  {
    "name": "B6",
    "midi": 95,
    "time": 230.19207749999384,
    "velocity": 0.7874015748031497,
    "duration": 0.09294862499999113
  },
  {
    "name": "F7",
    "midi": 101,
    "time": 230.19207749999384,
    "velocity": 0.7874015748031497,
    "duration": 0.09294862499999113
  },
  {
    "name": "E7",
    "midi": 100,
    "time": 230.28823124999383,
    "velocity": 0.7874015748031497,
    "duration": 0.09374990624999668
  },
  {
    "name": "D#7",
    "midi": 99,
    "time": 230.3843849999938,
    "velocity": 0.7874015748031497,
    "duration": 0.09294862499999113
  },
  {
    "name": "E7",
    "midi": 100,
    "time": 230.4805387499938,
    "velocity": 0.7874015748031497,
    "duration": 0.09294862499999113
  },
  {
    "name": "D#7",
    "midi": 99,
    "time": 230.57669249999378,
    "velocity": 0.7874015748031497,
    "duration": 0.09615375000001336
  },
  {
    "name": "D7",
    "midi": 98,
    "time": 230.7689999999938,
    "velocity": 0.7874015748031497,
    "duration": 0.28846125000001166
  },
  {
    "name": "E7",
    "midi": 100,
    "time": 231.15361499999383,
    "velocity": 0.7874015748031497,
    "duration": 0.09374990624999668
  },
  {
    "name": "D#7",
    "midi": 99,
    "time": 231.24976874999382,
    "velocity": 0.7874015748031497,
    "duration": 0.09294862499999113
  },
  {
    "name": "E7",
    "midi": 100,
    "time": 231.3459224999938,
    "velocity": 0.7874015748031497,
    "duration": 0.09294862499999113
  },
  {
    "name": "B6",
    "midi": 95,
    "time": 231.4420762499938,
    "velocity": 0.7874015748031497,
    "duration": 0.3846149999999966
  },
  {
    "name": "B6",
    "midi": 95,
    "time": 231.9228449999938,
    "velocity": 0.7874015748031497,
    "duration": 0.09294862499999113
  },
  {
    "name": "C7",
    "midi": 96,
    "time": 232.01899874999378,
    "velocity": 0.7874015748031497,
    "duration": 0.09294862499999113
  },
  {
    "name": "C#7",
    "midi": 97,
    "time": 232.11515249999377,
    "velocity": 0.7874015748031497,
    "duration": 0.09294862499999113
  },
  {
    "name": "C7",
    "midi": 96,
    "time": 232.21130624999375,
    "velocity": 0.7874015748031497,
    "duration": 0.09374990624999668
  },
  {
    "name": "B6",
    "midi": 95,
    "time": 232.30745999999374,
    "velocity": 0.7874015748031497,
    "duration": 0.09294862499999113
  },
  {
    "name": "C#7",
    "midi": 97,
    "time": 232.40361374999372,
    "velocity": 0.7874015748031497,
    "duration": 0.09374990624999668
  },
  {
    "name": "C7",
    "midi": 96,
    "time": 232.4997674999937,
    "velocity": 0.7874015748031497,
    "duration": 0.09294862499999113
  },
  {
    "name": "B6",
    "midi": 95,
    "time": 232.5959212499937,
    "velocity": 0.7874015748031497,
    "duration": 0.09374990624999668
  },
  {
    "name": "D#7",
    "midi": 99,
    "time": 232.69207499999368,
    "velocity": 0.7874015748031497,
    "duration": 0.09294862499999113
  },
  {
    "name": "E7",
    "midi": 100,
    "time": 232.78822874999366,
    "velocity": 0.7874015748031497,
    "duration": 0.09294862499999113
  },
  {
    "name": "B6",
    "midi": 95,
    "time": 232.88438249999365,
    "velocity": 0.7874015748031497,
    "duration": 0.09374990624999668
  },
  {
    "name": "C7",
    "midi": 96,
    "time": 232.98053624999363,
    "velocity": 0.7874015748031497,
    "duration": 0.09294862499999113
  },
  {
    "name": "B6",
    "midi": 95,
    "time": 233.07668999999362,
    "velocity": 0.7874015748031497,
    "duration": 0.09374990624999668
  },
  {
    "name": "E7",
    "midi": 100,
    "time": 233.1728437499936,
    "velocity": 0.7874015748031497,
    "duration": 0.09294862499999113
  },
  {
    "name": "D#7",
    "midi": 99,
    "time": 233.2689974999936,
    "velocity": 0.7874015748031497,
    "duration": 0.09294862499999113
  },
  {
    "name": "D7",
    "midi": 98,
    "time": 233.36515124999357,
    "velocity": 0.7874015748031497,
    "duration": 0.09615375000001336
  },
  {
    "name": "D7",
    "midi": 98,
    "time": 233.5574587499936,
    "velocity": 0.7874015748031497,
    "duration": 0.09294862499999113
  },
  {
    "name": "D#7",
    "midi": 99,
    "time": 233.65361249999359,
    "velocity": 0.7874015748031497,
    "duration": 0.09374990624999668
  },
  {
    "name": "C#7",
    "midi": 97,
    "time": 233.74976624999357,
    "velocity": 0.7874015748031497,
    "duration": 0.09294862499999113
  },
  {
    "name": "C7",
    "midi": 96,
    "time": 233.84591999999355,
    "velocity": 0.7874015748031497,
    "duration": 0.09294862499999113
  },
  {
    "name": "B6",
    "midi": 95,
    "time": 233.94207374999354,
    "velocity": 0.7874015748031497,
    "duration": 0.09374990624999668
  },
  {
    "name": "E7",
    "midi": 100,
    "time": 234.03822749999352,
    "velocity": 0.7874015748031497,
    "duration": 0.09214734375001399
  },
  {
    "name": "C7",
    "midi": 96,
    "time": 234.13438124999354,
    "velocity": 0.7874015748031497,
    "duration": 0.09214734375001399
  },
  {
    "name": "D7",
    "midi": 98,
    "time": 234.23053499999355,
    "velocity": 0.7874015748031497,
    "duration": 0.09374990624999668
  },
  {
    "name": "D#7",
    "midi": 99,
    "time": 234.32668874999354,
    "velocity": 0.7874015748031497,
    "duration": 0.09294862499999113
  },
  {
    "name": "E7",
    "midi": 100,
    "time": 234.42284249999352,
    "velocity": 0.7874015748031497,
    "duration": 0.09294862499999113
  },
  {
    "name": "B6",
    "midi": 95,
    "time": 234.5189962499935,
    "velocity": 0.7874015748031497,
    "duration": 0.09374990624999668
  },
  {
    "name": "E7",
    "midi": 100,
    "time": 234.6151499999935,
    "velocity": 0.7874015748031497,
    "duration": 0.09294862499999113
  },
  {
    "name": "B6",
    "midi": 95,
    "time": 234.71130374999348,
    "velocity": 0.7874015748031497,
    "duration": 0.09294862499999113
  },
  {
    "name": "C7",
    "midi": 96,
    "time": 234.80745749999346,
    "velocity": 0.7874015748031497,
    "duration": 0.09374990624999668
  },
  {
    "name": "C#7",
    "midi": 97,
    "time": 234.90361124999345,
    "velocity": 0.7874015748031497,
    "duration": 0.09615375000001336
  },
  {
    "name": "C#7",
    "midi": 97,
    "time": 235.09591874999347,
    "velocity": 0.7874015748031497,
    "duration": 0.09374990624999668
  },
  {
    "name": "C7",
    "midi": 96,
    "time": 235.19207249999346,
    "velocity": 0.7874015748031497,
    "duration": 0.09294862499999113
  },
  {
    "name": "B6",
    "midi": 95,
    "time": 235.28822624999344,
    "velocity": 0.7874015748031497,
    "duration": 0.09294862499999113
  },
  {
    "name": "E7",
    "midi": 100,
    "time": 235.38437999999343,
    "velocity": 0.7874015748031497,
    "duration": 0.28846125000001166
  },
  {
    "name": "G#8",
    "midi": 116,
    "time": 235.76899499999345,
    "velocity": 0.7874015748031497,
    "duration": 1.1538450000000182
  },
  {
    "name": "D7",
    "midi": 98,
    "time": 235.76899499999345,
    "velocity": 0.7874015748031497,
    "duration": 0.09615375000001336
  },
  {
    "name": "C7",
    "midi": 96,
    "time": 235.96130249999348,
    "velocity": 0.7874015748031497,
    "duration": 0.09294862499999113
  },
  {
    "name": "C#7",
    "midi": 97,
    "time": 236.05745624999346,
    "velocity": 0.7874015748031497,
    "duration": 0.28846125000001166
  },
  {
    "name": "C7",
    "midi": 96,
    "time": 236.4420712499935,
    "velocity": 0.7874015748031497,
    "duration": 0.09294862499999113
  },
  {
    "name": "B6",
    "midi": 95,
    "time": 236.53822499999347,
    "velocity": 0.7874015748031497,
    "duration": 0.09294862499999113
  },
  {
    "name": "E7",
    "midi": 100,
    "time": 236.63437874999346,
    "velocity": 0.7874015748031497,
    "duration": 0.5769225000000233
  },
  {
    "name": "D#7",
    "midi": 99,
    "time": 237.3074549999935,
    "velocity": 0.7874015748031497,
    "duration": 0.09294862499999113
  },
  {
    "name": "E7",
    "midi": 100,
    "time": 237.40360874999348,
    "velocity": 0.7874015748031497,
    "duration": 0.09294862499999113
  },
  {
    "name": "B6",
    "midi": 95,
    "time": 237.49976249999347,
    "velocity": 0.7874015748031497,
    "duration": 0.09294862499999113
  },
  {
    "name": "C7",
    "midi": 96,
    "time": 237.59591624999345,
    "velocity": 0.7874015748031497,
    "duration": 0.09294862499999113
  },
  {
    "name": "B6",
    "midi": 95,
    "time": 237.69206999999344,
    "velocity": 0.7874015748031497,
    "duration": 0.09214734375001399
  },
  {
    "name": "C7",
    "midi": 96,
    "time": 237.78822374999345,
    "velocity": 0.7874015748031497,
    "duration": 0.09214734375001399
  },
  {
    "name": "C#7",
    "midi": 97,
    "time": 237.88437749999346,
    "velocity": 0.7874015748031497,
    "duration": 0.09615375000001336
  },
  {
    "name": "C#7",
    "midi": 97,
    "time": 238.0766849999935,
    "velocity": 0.7874015748031497,
    "duration": 0.09294862499999113
  },
  {
    "name": "C7",
    "midi": 96,
    "time": 238.17283874999347,
    "velocity": 0.7874015748031497,
    "duration": 0.09374990624999668
  },
  {
    "name": "B6",
    "midi": 95,
    "time": 238.26899249999346,
    "velocity": 0.7874015748031497,
    "duration": 0.09294862499999113
  },
  {
    "name": "E7",
    "midi": 100,
    "time": 238.36514624999344,
    "velocity": 0.7874015748031497,
    "duration": 0.09374990624999668
  },
  {
    "name": "D#7",
    "midi": 99,
    "time": 238.46129999999343,
    "velocity": 0.7874015748031497,
    "duration": 0.28846125000001166
  },
  {
    "name": "E7",
    "midi": 100,
    "time": 238.84591499999345,
    "velocity": 0.7874015748031497,
    "duration": 0.09294862499999113
  },
  {
    "name": "B6",
    "midi": 95,
    "time": 238.94206874999344,
    "velocity": 0.7874015748031497,
    "duration": 0.09294862499999113
  },
  {
    "name": "C7",
    "midi": 96,
    "time": 239.03822249999342,
    "velocity": 0.7874015748031497,
    "duration": 0.09294862499999113
  },
  {
    "name": "C#7",
    "midi": 97,
    "time": 239.1343762499934,
    "velocity": 0.7874015748031497,
    "duration": 0.09294862499999113
  },
  {
    "name": "D#7",
    "midi": 99,
    "time": 239.2305299999934,
    "velocity": 0.7874015748031497,
    "duration": 0.09294862499999113
  },
  {
    "name": "E7",
    "midi": 100,
    "time": 239.32668374999338,
    "velocity": 0.7874015748031497,
    "duration": 0.09294862499999113
  },
  {
    "name": "B6",
    "midi": 95,
    "time": 239.42283749999336,
    "velocity": 0.7874015748031497,
    "duration": 0.09294862499999113
  },
  {
    "name": "C7",
    "midi": 96,
    "time": 239.51899124999335,
    "velocity": 0.7874015748031497,
    "duration": 0.7692299999999932
  },
  {
    "name": "C#7",
    "midi": 97,
    "time": 240.38437499999336,
    "velocity": 0.7874015748031497,
    "duration": 0.04807687499999247
  },
  {
    "name": "G7",
    "midi": 103,
    "time": 240.38437499999336,
    "velocity": 0.7874015748031497,
    "duration": 7.596146249999009
  },
  {
    "name": "C7",
    "midi": 96,
    "time": 240.44847749999334,
    "velocity": 0.7874015748031497,
    "duration": 0.04807687499999247
  },
  {
    "name": "B6",
    "midi": 95,
    "time": 240.51257999999333,
    "velocity": 0.7874015748031497,
    "duration": 0.04807687499999247
  },
  {
    "name": "C7",
    "midi": 96,
    "time": 240.57668249999332,
    "velocity": 0.7874015748031497,
    "duration": 0.04807687499999247
  },
  {
    "name": "B6",
    "midi": 95,
    "time": 240.64078499999331,
    "velocity": 0.7874015748031497,
    "duration": 0.04807687499999247
  },
  {
    "name": "E7",
    "midi": 100,
    "time": 240.7048874999933,
    "velocity": 0.7874015748031497,
    "duration": 0.04807687499999247
  },
  {
    "name": "B6",
    "midi": 95,
    "time": 240.7689899999933,
    "velocity": 0.7874015748031497,
    "duration": 0.04807687499999247
  },
  {
    "name": "E7",
    "midi": 100,
    "time": 240.83309249999328,
    "velocity": 0.7874015748031497,
    "duration": 0.04807687499999247
  },
  {
    "name": "D#7",
    "midi": 99,
    "time": 240.89719499999327,
    "velocity": 0.7874015748031497,
    "duration": 0.04807687499999247
  },
  {
    "name": "E7",
    "midi": 100,
    "time": 240.96129749999326,
    "velocity": 0.7874015748031497,
    "duration": 0.04807687499999247
  },
  {
    "name": "D#7",
    "midi": 99,
    "time": 241.02539999999325,
    "velocity": 0.7874015748031497,
    "duration": 0.04807687499999247
  },
  {
    "name": "D7",
    "midi": 98,
    "time": 241.08950249999324,
    "velocity": 0.7874015748031497,
    "duration": 0.04807687499999247
  },
  {
    "name": "C7",
    "midi": 96,
    "time": 241.15360499999323,
    "velocity": 0.7874015748031497,
    "duration": 0.04807687499999247
  },
  {
    "name": "B6",
    "midi": 95,
    "time": 241.21770749999322,
    "velocity": 0.7874015748031497,
    "duration": 0.04807687499999247
  },
  {
    "name": "E7",
    "midi": 100,
    "time": 241.28180999999321,
    "velocity": 0.7874015748031497,
    "duration": 0.04807687499999247
  },
  {
    "name": "C7",
    "midi": 96,
    "time": 241.3459124999932,
    "velocity": 0.7874015748031497,
    "duration": 0.04807687499999247
  },
  {
    "name": "B6",
    "midi": 95,
    "time": 241.4100149999932,
    "velocity": 0.7874015748031497,
    "duration": 0.04807687499999247
  },
  {
    "name": "C7",
    "midi": 96,
    "time": 241.47411749999318,
    "velocity": 0.7874015748031497,
    "duration": 0.04807687499999247
  },
  {
    "name": "B6",
    "midi": 95,
    "time": 241.53821999999317,
    "velocity": 0.7874015748031497,
    "duration": 0.04807687499999247
  },
  {
    "name": "E7",
    "midi": 100,
    "time": 241.60232249999316,
    "velocity": 0.7874015748031497,
    "duration": 0.04807687499999247
  },
  {
    "name": "D#7",
    "midi": 99,
    "time": 241.66642499999315,
    "velocity": 0.7874015748031497,
    "duration": 0.04807687499999247
  },
  {
    "name": "B6",
    "midi": 95,
    "time": 241.73052749999314,
    "velocity": 0.7874015748031497,
    "duration": 0.04807687499999247
  },
  {
    "name": "E7",
    "midi": 100,
    "time": 241.79462999999313,
    "velocity": 0.7874015748031497,
    "duration": 0.04807687499999247
  },
  {
    "name": "D#7",
    "midi": 99,
    "time": 241.85873249999312,
    "velocity": 0.7874015748031497,
    "duration": 0.04807687499999247
  },
  {
    "name": "E7",
    "midi": 100,
    "time": 241.9228349999931,
    "velocity": 0.7874015748031497,
    "duration": 0.04807687499999247
  },
  {
    "name": "D#7",
    "midi": 99,
    "time": 241.9869374999931,
    "velocity": 0.7874015748031497,
    "duration": 0.04807687499999247
  },
  {
    "name": "D7",
    "midi": 98,
    "time": 242.0510399999931,
    "velocity": 0.7874015748031497,
    "duration": 0.04807687499999247
  },
  {
    "name": "C#7",
    "midi": 97,
    "time": 242.11514249999308,
    "velocity": 0.7874015748031497,
    "duration": 0.04807687499999247
  },
  {
    "name": "C7",
    "midi": 96,
    "time": 242.17924499999307,
    "velocity": 0.7874015748031497,
    "duration": 0.04807687499999247
  },
  {
    "name": "B6",
    "midi": 95,
    "time": 242.24334749999306,
    "velocity": 0.7874015748031497,
    "duration": 0.04807687499999247
  },
  {
    "name": "C7",
    "midi": 96,
    "time": 242.30744999999305,
    "velocity": 0.7874015748031497,
    "duration": 0.04807687499999247
  },
  {
    "name": "B6",
    "midi": 95,
    "time": 242.37155249999304,
    "velocity": 0.7874015748031497,
    "duration": 0.04807687499999247
  },
  {
    "name": "E7",
    "midi": 100,
    "time": 242.43565499999303,
    "velocity": 0.7874015748031497,
    "duration": 0.04807687499999247
  },
  {
    "name": "C7",
    "midi": 96,
    "time": 242.49975749999302,
    "velocity": 0.7874015748031497,
    "duration": 0.04807687499999247
  },
  {
    "name": "B6",
    "midi": 95,
    "time": 242.563859999993,
    "velocity": 0.7874015748031497,
    "duration": 0.04807687499999247
  },
  {
    "name": "E7",
    "midi": 100,
    "time": 242.627962499993,
    "velocity": 0.7874015748031497,
    "duration": 0.04807687499999247
  },
  {
    "name": "C7",
    "midi": 96,
    "time": 242.692064999993,
    "velocity": 0.7874015748031497,
    "duration": 0.04807687499999247
  },
  {
    "name": "B6",
    "midi": 95,
    "time": 242.75616749999298,
    "velocity": 0.7874015748031497,
    "duration": 0.04807687499999247
  },
  {
    "name": "E7",
    "midi": 100,
    "time": 242.82026999999297,
    "velocity": 0.7874015748031497,
    "duration": 0.04807687499999247
  },
  {
    "name": "B6",
    "midi": 95,
    "time": 242.88437249999296,
    "velocity": 0.7874015748031497,
    "duration": 0.04807687499999247
  },
  {
    "name": "E7",
    "midi": 100,
    "time": 242.94847499999295,
    "velocity": 0.7874015748031497,
    "duration": 0.04807687499999247
  },
  {
    "name": "C7",
    "midi": 96,
    "time": 243.01257749999294,
    "velocity": 0.7874015748031497,
    "duration": 0.04807687499999247
  },
  {
    "name": "B6",
    "midi": 95,
    "time": 243.07667999999293,
    "velocity": 0.7874015748031497,
    "duration": 0.04807687499999247
  },
  {
    "name": "E7",
    "midi": 100,
    "time": 243.14078249999292,
    "velocity": 0.7874015748031497,
    "duration": 0.04807687499999247
  },
  {
    "name": "D#7",
    "midi": 99,
    "time": 243.2048849999929,
    "velocity": 0.7874015748031497,
    "duration": 0.04807687499999247
  },
  {
    "name": "E7",
    "midi": 100,
    "time": 243.2689874999929,
    "velocity": 0.7874015748031497,
    "duration": 0.04807687499999247
  },
  {
    "name": "D#7",
    "midi": 99,
    "time": 243.3330899999929,
    "velocity": 0.7874015748031497,
    "duration": 0.04807687499999247
  },
  {
    "name": "D7",
    "midi": 98,
    "time": 243.39719249999288,
    "velocity": 0.7874015748031497,
    "duration": 0.04807687499999247
  },
  {
    "name": "E7",
    "midi": 100,
    "time": 243.46129499999287,
    "velocity": 0.7874015748031497,
    "duration": 0.04807687499999247
  },
  {
    "name": "D#7",
    "midi": 99,
    "time": 243.52539749999286,
    "velocity": 0.7874015748031497,
    "duration": 0.04807687499999247
  },
  {
    "name": "E7",
    "midi": 100,
    "time": 243.58949999999285,
    "velocity": 0.7874015748031497,
    "duration": 0.04807687499999247
  },
  {
    "name": "D#7",
    "midi": 99,
    "time": 243.65360249999284,
    "velocity": 0.7874015748031497,
    "duration": 0.04807687499999247
  },
  {
    "name": "E7",
    "midi": 100,
    "time": 243.71770499999283,
    "velocity": 0.7874015748031497,
    "duration": 0.04807687499999247
  },
  {
    "name": "B6",
    "midi": 95,
    "time": 243.78180749999282,
    "velocity": 0.7874015748031497,
    "duration": 0.04807687499999247
  },
  {
    "name": "E7",
    "midi": 100,
    "time": 243.8459099999928,
    "velocity": 0.7874015748031497,
    "duration": 0.04807687499999247
  },
  {
    "name": "D#7",
    "midi": 99,
    "time": 243.9100124999928,
    "velocity": 0.7874015748031497,
    "duration": 0.04807687499999247
  },
  {
    "name": "D7",
    "midi": 98,
    "time": 243.9741149999928,
    "velocity": 0.7874015748031497,
    "duration": 0.04807687499999247
  },
  {
    "name": "E7",
    "midi": 100,
    "time": 244.03821749999278,
    "velocity": 0.7874015748031497,
    "duration": 0.04807687499999247
  },
  {
    "name": "D#7",
    "midi": 99,
    "time": 244.10231999999277,
    "velocity": 0.7874015748031497,
    "duration": 0.04807687499999247
  },
  {
    "name": "D7",
    "midi": 98,
    "time": 244.16642249999276,
    "velocity": 0.7874015748031497,
    "duration": 0.04807687499999247
  },
  {
    "name": "D#7",
    "midi": 99,
    "time": 244.23052499999275,
    "velocity": 0.7874015748031497,
    "duration": 0.04807687499999247
  },
  {
    "name": "B6",
    "midi": 95,
    "time": 244.29462749999274,
    "velocity": 0.7874015748031497,
    "duration": 0.04807687499999247
  },
  {
    "name": "C7",
    "midi": 96,
    "time": 244.35872999999273,
    "velocity": 0.7874015748031497,
    "duration": 0.04807687499999247
  },
  {
    "name": "B6",
    "midi": 95,
    "time": 244.42283249999272,
    "velocity": 0.7874015748031497,
    "duration": 0.04807687499999247
  },
  {
    "name": "C7",
    "midi": 96,
    "time": 244.4869349999927,
    "velocity": 0.7874015748031497,
    "duration": 0.04807687499999247
  },
  {
    "name": "C#7",
    "midi": 97,
    "time": 244.5510374999927,
    "velocity": 0.7874015748031497,
    "duration": 0.04807687499999247
  },
  {
    "name": "D7",
    "midi": 98,
    "time": 244.6151399999927,
    "velocity": 0.7874015748031497,
    "duration": 0.04807687499999247
  },
  {
    "name": "D#7",
    "midi": 99,
    "time": 244.67924249999268,
    "velocity": 0.7874015748031497,
    "duration": 0.04807687499999247
  },
  {
    "name": "E7",
    "midi": 100,
    "time": 244.74334499999267,
    "velocity": 0.7874015748031497,
    "duration": 0.04807687499999247
  },
  {
    "name": "D#7",
    "midi": 99,
    "time": 244.80744749999266,
    "velocity": 0.7874015748031497,
    "duration": 0.04807687499999247
  },
  {
    "name": "E7",
    "midi": 100,
    "time": 244.87154999999265,
    "velocity": 0.7874015748031497,
    "duration": 0.04807687499999247
  },
  {
    "name": "B6",
    "midi": 95,
    "time": 244.93565249999264,
    "velocity": 0.7874015748031497,
    "duration": 0.04807687499999247
  },
  {
    "name": "D#7",
    "midi": 99,
    "time": 244.99975499999263,
    "velocity": 0.7874015748031497,
    "duration": 0.04807687499999247
  },
  {
    "name": "E7",
    "midi": 100,
    "time": 245.06385749999262,
    "velocity": 0.7874015748031497,
    "duration": 0.04807687499999247
  },
  {
    "name": "B6",
    "midi": 95,
    "time": 245.1279599999926,
    "velocity": 0.7874015748031497,
    "duration": 0.04807687499999247
  },
  {
    "name": "E7",
    "midi": 100,
    "time": 245.1920624999926,
    "velocity": 0.7874015748031497,
    "duration": 0.04807687499999247
  },
  {
    "name": "B6",
    "midi": 95,
    "time": 245.2561649999926,
    "velocity": 0.7874015748031497,
    "duration": 0.04807687499999247
  },
  {
    "name": "C7",
    "midi": 96,
    "time": 245.32026749999258,
    "velocity": 0.7874015748031497,
    "duration": 0.04807687499999247
  },
  {
    "name": "B6",
    "midi": 95,
    "time": 245.38436999999257,
    "velocity": 0.7874015748031497,
    "duration": 0.04807687499999247
  },
  {
    "name": "E7",
    "midi": 100,
    "time": 245.44847249999256,
    "velocity": 0.7874015748031497,
    "duration": 0.04807687499999247
  },
  {
    "name": "D#7",
    "midi": 99,
    "time": 245.51257499999255,
    "velocity": 0.7874015748031497,
    "duration": 0.04807687499999247
  },
  {
    "name": "B6",
    "midi": 95,
    "time": 245.57667749999254,
    "velocity": 0.7874015748031497,
    "duration": 0.04807687499999247
  },
  {
    "name": "E7",
    "midi": 100,
    "time": 245.64077999999253,
    "velocity": 0.7874015748031497,
    "duration": 0.04807687499999247
  },
  {
    "name": "D#7",
    "midi": 99,
    "time": 245.70488249999252,
    "velocity": 0.7874015748031497,
    "duration": 0.04807687499999247
  },
  {
    "name": "E7",
    "midi": 100,
    "time": 245.7689849999925,
    "velocity": 0.7874015748031497,
    "duration": 0.04807687499999247
  },
  {
    "name": "D#7",
    "midi": 99,
    "time": 245.8330874999925,
    "velocity": 0.7874015748031497,
    "duration": 0.04807687499999247
  },
  {
    "name": "D7",
    "midi": 98,
    "time": 245.8971899999925,
    "velocity": 0.7874015748031497,
    "duration": 0.04807687499999247
  },
  {
    "name": "C#7",
    "midi": 97,
    "time": 245.96129249999248,
    "velocity": 0.7874015748031497,
    "duration": 0.04807687499999247
  },
  {
    "name": "C7",
    "midi": 96,
    "time": 246.02539499999247,
    "velocity": 0.7874015748031497,
    "duration": 0.04807687499999247
  },
  {
    "name": "B6",
    "midi": 95,
    "time": 246.08949749999246,
    "velocity": 0.7874015748031497,
    "duration": 0.04807687499999247
  },
  {
    "name": "C7",
    "midi": 96,
    "time": 246.15359999999245,
    "velocity": 0.7874015748031497,
    "duration": 0.04807687499999247
  },
  {
    "name": "B6",
    "midi": 95,
    "time": 246.21770249999244,
    "velocity": 0.7874015748031497,
    "duration": 0.04807687499999247
  },
  {
    "name": "E7",
    "midi": 100,
    "time": 246.28180499999243,
    "velocity": 0.7874015748031497,
    "duration": 0.04807687499999247
  },
  {
    "name": "B6",
    "midi": 95,
    "time": 246.34590749999242,
    "velocity": 0.7874015748031497,
    "duration": 0.04807687499999247
  },
  {
    "name": "E7",
    "midi": 100,
    "time": 246.4100099999924,
    "velocity": 0.7874015748031497,
    "duration": 0.04807687499999247
  },
  {
    "name": "D#7",
    "midi": 99,
    "time": 246.4741124999924,
    "velocity": 0.7874015748031497,
    "duration": 0.04807687499999247
  },
  {
    "name": "G#8",
    "midi": 116,
    "time": 246.5382149999924,
    "velocity": 0.7874015748031497,
    "duration": 0.28846124999998324
  },
  {
    "name": "B6",
    "midi": 95,
    "time": 246.5382149999924,
    "velocity": 0.7874015748031497,
    "duration": 0.09294862499999113
  },
  {
    "name": "C7",
    "midi": 96,
    "time": 246.63436874999238,
    "velocity": 0.7874015748031497,
    "duration": 1.346152499999988
  },
  {
    "name": "C7",
    "midi": 96,
    "time": 248.07667499999238,
    "velocity": 0.7874015748031497,
    "duration": 0.09294862499999113
  },
  {
    "name": "B6",
    "midi": 95,
    "time": 248.17282874999236,
    "velocity": 0.7874015748031497,
    "duration": 0.09294862499999113
  },
  {
    "name": "E7",
    "midi": 100,
    "time": 248.26898249999235,
    "velocity": 0.7874015748031497,
    "duration": 0.09294862499999113
  },
  {
    "name": "B6",
    "midi": 95,
    "time": 248.36513624999233,
    "velocity": 0.7874015748031497,
    "duration": 0.09374990624999668
  },
  {
    "name": "C7",
    "midi": 96,
    "time": 248.46128999999232,
    "velocity": 0.7874015748031497,
    "duration": 0.09214734375001399
  },
  {
    "name": "B6",
    "midi": 95,
    "time": 248.55744374999233,
    "velocity": 0.7874015748031497,
    "duration": 0.09294862499999113
  },
  {
    "name": "C#7",
    "midi": 97,
    "time": 248.65359749999232,
    "velocity": 0.7874015748031497,
    "duration": 0.09294862499999113
  },
  {
    "name": "B6",
    "midi": 95,
    "time": 248.7497512499923,
    "velocity": 0.7874015748031497,
    "duration": 0.09294862499999113
  },
  {
    "name": "C7",
    "midi": 96,
    "time": 248.84590499999229,
    "velocity": 0.7874015748031497,
    "duration": 0.09294862499999113
  },
  {
    "name": "B6",
    "midi": 95,
    "time": 248.94205874999227,
    "velocity": 0.7874015748031497,
    "duration": 0.09374990624999668
  },
  {
    "name": "E7",
    "midi": 100,
    "time": 249.03821249999226,
    "velocity": 0.7874015748031497,
    "duration": 0.09294862499999113
  },
  {
    "name": "B6",
    "midi": 95,
    "time": 249.13436624999224,
    "velocity": 0.7874015748031497,
    "duration": 0.09294862499999113
  },
  {
    "name": "C7",
    "midi": 96,
    "time": 249.23051999999223,
    "velocity": 0.7874015748031497,
    "duration": 0.09294862499999113
  },
  {
    "name": "B6",
    "midi": 95,
    "time": 249.3266737499922,
    "velocity": 0.7874015748031497,
    "duration": 0.09294862499999113
  },
  {
    "name": "E7",
    "midi": 100,
    "time": 249.4228274999922,
    "velocity": 0.7874015748031497,
    "duration": 0.09294862499999113
  },
  {
    "name": "D#7",
    "midi": 99,
    "time": 249.51898124999218,
    "velocity": 0.7874015748031497,
    "duration": 0.09294862499999113
  },
  {
    "name": "E7",
    "midi": 100,
    "time": 249.61513499999216,
    "velocity": 0.7874015748031497,
    "duration": 0.09374990624999668
  },
  {
    "name": "D#7",
    "midi": 99,
    "time": 249.71128874999215,
    "velocity": 0.7874015748031497,
    "duration": 0.09294862499999113
  },
  {
    "name": "D7",
    "midi": 98,
    "time": 249.80744249999213,
    "velocity": 0.7874015748031497,
    "duration": 0.09374990624999668
  },
  {
    "name": "D#7",
    "midi": 99,
    "time": 249.90359624999212,
    "velocity": 0.7874015748031497,
    "duration": 0.09294862499999113
  },
  {
    "name": "E7",
    "midi": 100,
    "time": 249.9997499999921,
    "velocity": 0.7874015748031497,
    "duration": 0.09294862499999113
  },
  {
    "name": "D#7",
    "midi": 99,
    "time": 250.0959037499921,
    "velocity": 0.7874015748031497,
    "duration": 0.09294862499999113
  },
  {
    "name": "B6",
    "midi": 95,
    "time": 250.19205749999207,
    "velocity": 0.7874015748031497,
    "duration": 0.09214734375001399
  },
  {
    "name": "D#7",
    "midi": 99,
    "time": 250.2882112499921,
    "velocity": 0.7874015748031497,
    "duration": 0.09294862499999113
  },
  {
    "name": "E7",
    "midi": 100,
    "time": 250.38436499999207,
    "velocity": 0.7874015748031497,
    "duration": 0.09294862499999113
  },
  {
    "name": "D#7",
    "midi": 99,
    "time": 250.48051874999206,
    "velocity": 0.7874015748031497,
    "duration": 0.09294862499999113
  },
  {
    "name": "D7",
    "midi": 98,
    "time": 250.57667249999204,
    "velocity": 0.7874015748031497,
    "duration": 0.09374990624999668
  },
  {
    "name": "D#7",
    "midi": 99,
    "time": 250.67282624999203,
    "velocity": 0.7874015748031497,
    "duration": 0.09374990624999668
  },
  {
    "name": "E7",
    "midi": 100,
    "time": 250.768979999992,
    "velocity": 0.7874015748031497,
    "duration": 0.09294862499999113
  },
  {
    "name": "D#7",
    "midi": 99,
    "time": 250.865133749992,
    "velocity": 0.7874015748031497,
    "duration": 0.09294862499999113
  },
  {
    "name": "D7",
    "midi": 98,
    "time": 250.96128749999198,
    "velocity": 0.7874015748031497,
    "duration": 0.09294862499999113
  },
  {
    "name": "D#7",
    "midi": 99,
    "time": 251.05744124999197,
    "velocity": 0.7874015748031497,
    "duration": 0.09294862499999113
  },
  {
    "name": "B6",
    "midi": 95,
    "time": 251.15359499999195,
    "velocity": 0.7874015748031497,
    "duration": 0.09374990624999668
  },
  {
    "name": "E7",
    "midi": 100,
    "time": 251.24974874999194,
    "velocity": 0.7874015748031497,
    "duration": 0.09374990624999668
  },
  {
    "name": "D#7",
    "midi": 99,
    "time": 251.34590249999192,
    "velocity": 0.7874015748031497,
    "duration": 0.09294862499999113
  },
  {
    "name": "D7",
    "midi": 98,
    "time": 251.4420562499919,
    "velocity": 0.7874015748031497,
    "duration": 0.09294862499999113
  },
  {
    "name": "C7",
    "midi": 96,
    "time": 251.5382099999919,
    "velocity": 0.7874015748031497,
    "duration": 0.09214734375001399
  },
  {
    "name": "B6",
    "midi": 95,
    "time": 251.6343637499919,
    "velocity": 0.7874015748031497,
    "duration": 0.09214734375001399
  },
  {
    "name": "C#7",
    "midi": 97,
    "time": 251.73051749999192,
    "velocity": 0.7874015748031497,
    "duration": 0.09294862499999113
  },
  {
    "name": "B6",
    "midi": 95,
    "time": 251.8266712499919,
    "velocity": 0.7874015748031497,
    "duration": 0.09294862499999113
  },
  {
    "name": "C7",
    "midi": 96,
    "time": 251.9228249999919,
    "velocity": 0.7874015748031497,
    "duration": 0.09294862499999113
  },
  {
    "name": "B6",
    "midi": 95,
    "time": 252.01897874999187,
    "velocity": 0.7874015748031497,
    "duration": 0.09374990624999668
  },
  {
    "name": "E7",
    "midi": 100,
    "time": 252.11513249999186,
    "velocity": 0.7874015748031497,
    "duration": 0.09294862499999113
  },
  {
    "name": "D#7",
    "midi": 99,
    "time": 252.21128624999184,
    "velocity": 0.7874015748031497,
    "duration": 0.09294862499999113
  },
  {
    "name": "E7",
    "midi": 100,
    "time": 252.30743999999183,
    "velocity": 0.7874015748031497,
    "duration": 0.09374990624999668
  },
  {
    "name": "D#7",
    "midi": 99,
    "time": 252.4035937499918,
    "velocity": 0.7874015748031497,
    "duration": 0.09294862499999113
  },
  {
    "name": "D7",
    "midi": 98,
    "time": 252.4997474999918,
    "velocity": 0.7874015748031497,
    "duration": 0.09294862499999113
  },
  {
    "name": "D#7",
    "midi": 99,
    "time": 252.59590124999178,
    "velocity": 0.7874015748031497,
    "duration": 0.09374990624999668
  },
  {
    "name": "D7",
    "midi": 98,
    "time": 252.69205499999177,
    "velocity": 0.7874015748031497,
    "duration": 0.09294862499999113
  },
  {
    "name": "D#7",
    "midi": 99,
    "time": 252.78820874999175,
    "velocity": 0.7874015748031497,
    "duration": 0.09294862499999113
  },
  {
    "name": "E7",
    "midi": 100,
    "time": 252.88436249999174,
    "velocity": 0.7874015748031497,
    "duration": 0.09374990624999668
  },
  {
    "name": "D7",
    "midi": 98,
    "time": 252.98051624999172,
    "velocity": 0.7874015748031497,
    "duration": 0.09294862499999113
  },
  {
    "name": "D#7",
    "midi": 99,
    "time": 253.0766699999917,
    "velocity": 0.7874015748031497,
    "duration": 0.28846125000001166
  },
  {
    "name": "C#7",
    "midi": 97,
    "time": 253.46128499999173,
    "velocity": 0.7874015748031497,
    "duration": 0.09374990624999668
  },
  {
    "name": "C#7",
    "midi": 97,
    "time": 253.55743874999172,
    "velocity": 0.7874015748031497,
    "duration": 0.09294862499999113
  },
  {
    "name": "C7",
    "midi": 96,
    "time": 253.6535924999917,
    "velocity": 0.7874015748031497,
    "duration": 0.09294862499999113
  },
  {
    "name": "C#7",
    "midi": 97,
    "time": 253.7497462499917,
    "velocity": 0.7874015748031497,
    "duration": 0.3846149999999966
  },
  {
    "name": "C7",
    "midi": 96,
    "time": 254.2305149999917,
    "velocity": 0.7874015748031497,
    "duration": 0.09294862499999113
  },
  {
    "name": "B6",
    "midi": 95,
    "time": 254.32666874999168,
    "velocity": 0.7874015748031497,
    "duration": 0.09294862499999113
  },
  {
    "name": "E7",
    "midi": 100,
    "time": 254.42282249999167,
    "velocity": 0.7874015748031497,
    "duration": 0.09294862499999113
  },
  {
    "name": "B6",
    "midi": 95,
    "time": 254.51897624999165,
    "velocity": 0.7874015748031497,
    "duration": 0.09374990624999668
  },
  {
    "name": "C7",
    "midi": 96,
    "time": 254.61512999999164,
    "velocity": 0.7874015748031497,
    "duration": 0.09294862499999113
  },
  {
    "name": "B6",
    "midi": 95,
    "time": 254.71128374999162,
    "velocity": 0.7874015748031497,
    "duration": 0.09294862499999113
  },
  {
    "name": "C#7",
    "midi": 97,
    "time": 254.8074374999916,
    "velocity": 0.7874015748031497,
    "duration": 0.09294862499999113
  },
  {
    "name": "B6",
    "midi": 95,
    "time": 254.9035912499916,
    "velocity": 0.7874015748031497,
    "duration": 0.09374990624999668
  },
  {
    "name": "C7",
    "midi": 96,
    "time": 254.99974499999158,
    "velocity": 0.7874015748031497,
    "duration": 0.09294862499999113
  },
  {
    "name": "B6",
    "midi": 95,
    "time": 255.09589874999156,
    "velocity": 0.7874015748031497,
    "duration": 0.09294862499999113
  },
  {
    "name": "E7",
    "midi": 100,
    "time": 255.19205249999155,
    "velocity": 0.7874015748031497,
    "duration": 0.09294862499999113
  },
  {
    "name": "B6",
    "midi": 95,
    "time": 255.28820624999153,
    "velocity": 0.7874015748031497,
    "duration": 0.09374990624999668
  },
  {
    "name": "C7",
    "midi": 96,
    "time": 255.38435999999152,
    "velocity": 0.7874015748031497,
    "duration": 0.09294862499999113
  },
  {
    "name": "B6",
    "midi": 95,
    "time": 255.4805137499915,
    "velocity": 0.7874015748031497,
    "duration": 0.09294862499999113
  },
  {
    "name": "E7",
    "midi": 100,
    "time": 255.5766674999915,
    "velocity": 0.7874015748031497,
    "duration": 0.09294862499999113
  },
  {
    "name": "D#7",
    "midi": 99,
    "time": 255.67282124999147,
    "velocity": 0.7874015748031497,
    "duration": 0.09374990624999668
  },
  {
    "name": "E7",
    "midi": 100,
    "time": 255.76897499999146,
    "velocity": 0.7874015748031497,
    "duration": 0.09294862499999113
  },
  {
    "name": "D#7",
    "midi": 99,
    "time": 255.86512874999144,
    "velocity": 0.7874015748031497,
    "duration": 0.09294862499999113
  },
  {
    "name": "D7",
    "midi": 98,
    "time": 255.96128249999143,
    "velocity": 0.7874015748031497,
    "duration": 0.09294862499999113
  },
  {
    "name": "D#7",
    "midi": 99,
    "time": 256.05743624999144,
    "velocity": 0.7874015748031497,
    "duration": 0.0937499062500251
  },
  {
    "name": "E7",
    "midi": 100,
    "time": 256.1535899999915,
    "velocity": 0.7874015748031497,
    "duration": 0.09294862500001955
  },
  {
    "name": "D#7",
    "midi": 99,
    "time": 256.2497437499915,
    "velocity": 0.7874015748031497,
    "duration": 0.09294862500001955
  },
  {
    "name": "B6",
    "midi": 95,
    "time": 256.34589749999157,
    "velocity": 0.7874015748031497,
    "duration": 0.09294862500001955
  },
  {
    "name": "D#7",
    "midi": 99,
    "time": 256.4420512499916,
    "velocity": 0.7874015748031497,
    "duration": 0.0937499062500251
  },
  {
    "name": "E7",
    "midi": 100,
    "time": 256.53820499999165,
    "velocity": 0.7874015748031497,
    "duration": 0.09294862500001955
  },
  {
    "name": "D#7",
    "midi": 99,
    "time": 256.6343587499917,
    "velocity": 0.7874015748031497,
    "duration": 0.09294862500001955
  },
  {
    "name": "D7",
    "midi": 98,
    "time": 256.73051249999173,
    "velocity": 0.7874015748031497,
    "duration": 0.09294862500001955
  },
  {
    "name": "D#7",
    "midi": 99,
    "time": 256.8266662499918,
    "velocity": 0.7874015748031497,
    "duration": 0.0937499062500251
  },
  {
    "name": "E7",
    "midi": 100,
    "time": 256.9228199999918,
    "velocity": 0.7874015748031497,
    "duration": 0.09294862500001955
  },
  {
    "name": "D#7",
    "midi": 99,
    "time": 257.01897374999186,
    "velocity": 0.7874015748031497,
    "duration": 0.09294862500001955
  },
  {
    "name": "D7",
    "midi": 98,
    "time": 257.1151274999919,
    "velocity": 0.7874015748031497,
    "duration": 0.09294862500001955
  },
  {
    "name": "D#7",
    "midi": 99,
    "time": 257.21128124999194,
    "velocity": 0.7874015748031497,
    "duration": 0.0937499062500251
  },
  {
    "name": "C#7",
    "midi": 97,
    "time": 257.307434999992,
    "velocity": 0.7874015748031497,
    "duration": 0.0937499062500251
  },
  {
    "name": "C7",
    "midi": 96,
    "time": 257.403588749992,
    "velocity": 0.7874015748031497,
    "duration": 0.09294862500001955
  },
  {
    "name": "B6",
    "midi": 95,
    "time": 257.49974249999207,
    "velocity": 0.7874015748031497,
    "duration": 0.09294862500001955
  },
  {
    "name": "E7",
    "midi": 100,
    "time": 257.5958962499921,
    "velocity": 0.7874015748031497,
    "duration": 0.09294862500001955
  },
  {
    "name": "C7",
    "midi": 96,
    "time": 257.69204999999215,
    "velocity": 0.7874015748031497,
    "duration": 0.09294862500001955
  },
  {
    "name": "B6",
    "midi": 95,
    "time": 257.7882037499922,
    "velocity": 0.7874015748031497,
    "duration": 0.09294862500001955
  },
  {
    "name": "C#7",
    "midi": 97,
    "time": 257.88435749999223,
    "velocity": 0.7874015748031497,
    "duration": 0.09294862500001955
  },
  {
    "name": "B6",
    "midi": 95,
    "time": 257.9805112499923,
    "velocity": 0.7874015748031497,
    "duration": 0.09294862500001955
  },
  {
    "name": "C7",
    "midi": 96,
    "time": 258.0766649999923,
    "velocity": 0.7874015748031497,
    "duration": 0.09214734375001399
  },
  {
    "name": "B6",
    "midi": 95,
    "time": 258.17281874999236,
    "velocity": 0.7874015748031497,
    "duration": 0.09214734375001399
  },
  {
    "name": "E7",
    "midi": 100,
    "time": 258.2689724999924,
    "velocity": 0.7874015748031497,
    "duration": 0.09214734375001399
  },
  {
    "name": "D#7",
    "midi": 99,
    "time": 258.36512624999244,
    "velocity": 0.7874015748031497,
    "duration": 0.09214734375001399
  },
  {
    "name": "E7",
    "midi": 100,
    "time": 258.4612799999925,
    "velocity": 0.7874015748031497,
    "duration": 0.09214734375001399
  },
  {
    "name": "D#7",
    "midi": 99,
    "time": 258.5574337499925,
    "velocity": 0.7874015748031497,
    "duration": 0.09214734375001399
  },
  {
    "name": "D7",
    "midi": 98,
    "time": 258.65358749999257,
    "velocity": 0.7874015748031497,
    "duration": 0.09214734375001399
  },
  {
    "name": "D#7",
    "midi": 99,
    "time": 258.7497412499926,
    "velocity": 0.7874015748031497,
    "duration": 0.0937499062500251
  },
  {
    "name": "E7",
    "midi": 100,
    "time": 258.84589499999265,
    "velocity": 0.7874015748031497,
    "duration": 0.09294862500001955
  },
  {
    "name": "D#7",
    "midi": 99,
    "time": 258.9420487499927,
    "velocity": 0.7874015748031497,
    "duration": 0.09294862500001955
  },
  {
    "name": "D7",
    "midi": 98,
    "time": 259.03820249999274,
    "velocity": 0.7874015748031497,
    "duration": 0.09294862500001955
  },
  {
    "name": "D#7",
    "midi": 99,
    "time": 259.1343562499928,
    "velocity": 0.7874015748031497,
    "duration": 0.0937499062500251
  },
  {
    "name": "E7",
    "midi": 100,
    "time": 259.2305099999928,
    "velocity": 0.7874015748031497,
    "duration": 0.09294862500001955
  },
  {
    "name": "D7",
    "midi": 98,
    "time": 259.32666374999286,
    "velocity": 0.7874015748031497,
    "duration": 0.09294862500001955
  },
  {
    "name": "D#7",
    "midi": 99,
    "time": 259.4228174999929,
    "velocity": 0.7874015748031497,
    "duration": 0.09214734375001399
  },
  {
    "name": "E7",
    "midi": 100,
    "time": 259.51897124999294,
    "velocity": 0.7874015748031497,
    "duration": 0.09294862500001955
  },
  {
    "name": "B6",
    "midi": 95,
    "time": 259.615124999993,
    "velocity": 0.7874015748031497,
    "duration": 0.09214734375001399
  },
  {
    "name": "E7",
    "midi": 100,
    "time": 259.711278749993,
    "velocity": 0.7874015748031497,
    "duration": 0.09214734375001399
  },
  {
    "name": "D#7",
    "midi": 99,
    "time": 259.80743249999307,
    "velocity": 0.7874015748031497,
    "duration": 0.09294862500001955
  },
  {
    "name": "E7",
    "midi": 100,
    "time": 259.9035862499931,
    "velocity": 0.7874015748031497,
    "duration": 0.09294862500001955
  },
  {
    "name": "E7",
    "midi": 100,
    "time": 259.99973999999315,
    "velocity": 0.7874015748031497,
    "duration": 0.28846125000001166
  },
  {
    "name": "C#7",
    "midi": 97,
    "time": 260.38435499999315,
    "velocity": 0.7874015748031497,
    "duration": 0.09294862500001955
  },
  {
    "name": "C7",
    "midi": 96,
    "time": 260.4805087499932,
    "velocity": 0.7874015748031497,
    "duration": 0.09294862500001955
  },
  {
    "name": "B6",
    "midi": 95,
    "time": 260.57666249999323,
    "velocity": 0.7874015748031497,
    "duration": 0.09214734375001399
  },
  {
    "name": "E7",
    "midi": 100,
    "time": 260.6728162499933,
    "velocity": 0.7874015748031497,
    "duration": 0.09294862500001955
  },
  {
    "name": "D#7",
    "midi": 99,
    "time": 260.7689699999933,
    "velocity": 0.7874015748031497,
    "duration": 0.09294862500001955
  },
  {
    "name": "B6",
    "midi": 95,
    "time": 260.86512374999336,
    "velocity": 0.7874015748031497,
    "duration": 0.09294862500001955
  },
  {
    "name": "E7",
    "midi": 100,
    "time": 260.9612774999934,
    "velocity": 0.7874015748031497,
    "duration": 0.09294862500001955
  },
  {
    "name": "D#7",
    "midi": 99,
    "time": 261.05743124999344,
    "velocity": 0.7874015748031497,
    "duration": 0.09294862500001955
  },
  {
    "name": "D7",
    "midi": 98,
    "time": 261.1535849999935,
    "velocity": 0.7874015748031497,
    "duration": 0.09294862500001955
  },
  {
    "name": "C7",
    "midi": 96,
    "time": 261.2497387499935,
    "velocity": 0.7874015748031497,
    "duration": 0.0937499062500251
  },
  {
    "name": "B6",
    "midi": 95,
    "time": 261.34589249999357,
    "velocity": 0.7874015748031497,
    "duration": 0.09294862500001955
  },
  {
    "name": "E7",
    "midi": 100,
    "time": 261.4420462499936,
    "velocity": 0.7874015748031497,
    "duration": 0.09294862500001955
  },
  {
    "name": "B6",
    "midi": 95,
    "time": 261.53819999999365,
    "velocity": 0.7874015748031497,
    "duration": 0.09294862500001955
  },
  {
    "name": "E7",
    "midi": 100,
    "time": 261.6343537499937,
    "velocity": 0.7874015748031497,
    "duration": 0.09294862500001955
  },
  {
    "name": "D#7",
    "midi": 99,
    "time": 261.73050749999373,
    "velocity": 0.7874015748031497,
    "duration": 0.09294862500001955
  },
  {
    "name": "D7",
    "midi": 98,
    "time": 261.8266612499938,
    "velocity": 0.7874015748031497,
    "duration": 0.09294862500001955
  },
  {
    "name": "D#7",
    "midi": 99,
    "time": 261.9228149999938,
    "velocity": 0.7874015748031497,
    "duration": 0.0937499062500251
  },
  {
    "name": "E7",
    "midi": 100,
    "time": 262.01896874999386,
    "velocity": 0.7874015748031497,
    "duration": 0.0937499062500251
  },
  {
    "name": "C7",
    "midi": 96,
    "time": 262.1151224999939,
    "velocity": 0.7874015748031497,
    "duration": 0.0937499062500251
  },
  {
    "name": "B6",
    "midi": 95,
    "time": 262.21127624999394,
    "velocity": 0.7874015748031497,
    "duration": 0.0937499062500251
  },
  {
    "name": "E7",
    "midi": 100,
    "time": 262.307429999994,
    "velocity": 0.7874015748031497,
    "duration": 0.09214734375001399
  },
  {
    "name": "D#7",
    "midi": 99,
    "time": 262.403583749994,
    "velocity": 0.7874015748031497,
    "duration": 0.09294862500001955
  },
  {
    "name": "B6",
    "midi": 95,
    "time": 262.49973749999407,
    "velocity": 0.7874015748031497,
    "duration": 0.0937499062500251
  },
  {
    "name": "E7",
    "midi": 100,
    "time": 262.5958912499941,
    "velocity": 0.7874015748031497,
    "duration": 0.09294862500001955
  },
  {
    "name": "D#7",
    "midi": 99,
    "time": 262.69204499999415,
    "velocity": 0.7874015748031497,
    "duration": 0.09294862500001955
  },
  {
    "name": "D7",
    "midi": 98,
    "time": 262.7881987499942,
    "velocity": 0.7874015748031497,
    "duration": 0.0937499062500251
  },
  {
    "name": "E7",
    "midi": 100,
    "time": 262.88435249999424,
    "velocity": 0.7874015748031497,
    "duration": 0.0937499062500251
  },
  {
    "name": "D#7",
    "midi": 99,
    "time": 262.9805062499943,
    "velocity": 0.7874015748031497,
    "duration": 0.09294862500001955
  },
  {
    "name": "D7",
    "midi": 98,
    "time": 263.0766599999943,
    "velocity": 0.7874015748031497,
    "duration": 0.09294862500001955
  },
  {
    "name": "D#7",
    "midi": 99,
    "time": 263.17281374999436,
    "velocity": 0.7874015748031497,
    "duration": 0.09294862500001955
  },
  {
    "name": "D7",
    "midi": 98,
    "time": 263.2689674999944,
    "velocity": 0.7874015748031497,
    "duration": 0.09615374999998494
  },
  {
    "name": "C7",
    "midi": 96,
    "time": 263.4612749999944,
    "velocity": 0.7874015748031497,
    "duration": 0.09615374999998494
  },
  {
    "name": "C#7",
    "midi": 97,
    "time": 263.65358249999434,
    "velocity": 0.7874015748031497,
    "duration": 0.09615374999998494
  },
  {
    "name": "C#7",
    "midi": 97,
    "time": 263.8458899999943,
    "velocity": 0.7874015748031497,
    "duration": 0.6730762500000083
  },
  {
    "name": "C#7",
    "midi": 97,
    "time": 264.6151199999943,
    "velocity": 0.7874015748031497,
    "duration": 0.28846125000001166
  },
  {
    "name": "D#7",
    "midi": 99,
    "time": 264.9997349999943,
    "velocity": 0.7874015748031497,
    "duration": 0.09294862500001955
  },
  {
    "name": "E7",
    "midi": 100,
    "time": 265.09588874999434,
    "velocity": 0.7874015748031497,
    "duration": 0.09294862500001955
  },
  {
    "name": "D#7",
    "midi": 99,
    "time": 265.1920424999944,
    "velocity": 0.7874015748031497,
    "duration": 0.09294862500001955
  },
  {
    "name": "D7",
    "midi": 98,
    "time": 265.2881962499944,
    "velocity": 0.7874015748031497,
    "duration": 0.09294862500001955
  },
  {
    "name": "D#7",
    "midi": 99,
    "time": 265.38434999999447,
    "velocity": 0.7874015748031497,
    "duration": 0.09294862500001955
  },
  {
    "name": "E7",
    "midi": 100,
    "time": 265.4805037499945,
    "velocity": 0.7874015748031497,
    "duration": 0.09294862500001955
  },
  {
    "name": "D#7",
    "midi": 99,
    "time": 265.57665749999455,
    "velocity": 0.7874015748031497,
    "duration": 0.0937499062500251
  },
  {
    "name": "D7",
    "midi": 98,
    "time": 265.6728112499946,
    "velocity": 0.7874015748031497,
    "duration": 0.0937499062500251
  },
  {
    "name": "E7",
    "midi": 100,
    "time": 265.76896499999464,
    "velocity": 0.7874015748031497,
    "duration": 0.09294862500001955
  },
  {
    "name": "D#7",
    "midi": 99,
    "time": 265.8651187499947,
    "velocity": 0.7874015748031497,
    "duration": 0.3846149999999966
  },
  {
    "name": "D7",
    "midi": 98,
    "time": 266.34588749999466,
    "velocity": 0.7874015748031497,
    "duration": 0.09615374999998494
  },
  {
    "name": "C#7",
    "midi": 97,
    "time": 266.53819499999463,
    "velocity": 0.7874015748031497,
    "duration": 0.09294862500001955
  },
  {
    "name": "G7",
    "midi": 103,
    "time": 266.53819499999463,
    "velocity": 0.7874015748031497,
    "duration": 11.826911250004343
  },
  {
    "name": "C7",
    "midi": 96,
    "time": 266.6343487499947,
    "velocity": 0.7874015748031497,
    "duration": 0.0937499062500251
  },
  {
    "name": "B6",
    "midi": 95,
    "time": 266.7305024999947,
    "velocity": 0.7874015748031497,
    "duration": 0.09294862500001955
  },
  {
    "name": "E7",
    "midi": 100,
    "time": 266.82665624999476,
    "velocity": 0.7874015748031497,
    "duration": 0.09294862500001955
  },
  {
    "name": "C7",
    "midi": 96,
    "time": 266.9228099999948,
    "velocity": 0.7874015748031497,
    "duration": 0.0937499062500251
  },
  {
    "name": "B6",
    "midi": 95,
    "time": 267.01896374999484,
    "velocity": 0.7874015748031497,
    "duration": 0.09294862500001955
  },
  {
    "name": "E7",
    "midi": 100,
    "time": 267.1151174999949,
    "velocity": 0.7874015748031497,
    "duration": 0.09294862500001955
  },
  {
    "name": "D#7",
    "midi": 99,
    "time": 267.2112712499949,
    "velocity": 0.7874015748031497,
    "duration": 0.0937499062500251
  },
  {
    "name": "B6",
    "midi": 95,
    "time": 267.30742499999496,
    "velocity": 0.7874015748031497,
    "duration": 0.09294862500001955
  },
  {
    "name": "C7",
    "midi": 96,
    "time": 267.403578749995,
    "velocity": 0.7874015748031497,
    "duration": 0.09294862500001955
  },
  {
    "name": "C#7",
    "midi": 97,
    "time": 267.49973249999505,
    "velocity": 0.7874015748031497,
    "duration": 0.0937499062500251
  },
  {
    "name": "B6",
    "midi": 95,
    "time": 267.5958862499951,
    "velocity": 0.7874015748031497,
    "duration": 0.09294862500001955
  },
  {
    "name": "C7",
    "midi": 96,
    "time": 267.69203999999513,
    "velocity": 0.7874015748031497,
    "duration": 0.09294862500001955
  },
  {
    "name": "C#7",
    "midi": 97,
    "time": 267.7881937499952,
    "velocity": 0.7874015748031497,
    "duration": 0.0937499062500251
  },
  {
    "name": "B6",
    "midi": 95,
    "time": 267.8843474999952,
    "velocity": 0.7874015748031497,
    "duration": 0.09294862500001955
  },
  {
    "name": "C7",
    "midi": 96,
    "time": 267.98050124999526,
    "velocity": 0.7874015748031497,
    "duration": 0.09294862500001955
  },
  {
    "name": "C#7",
    "midi": 97,
    "time": 268.0766549999953,
    "velocity": 0.7874015748031497,
    "duration": 0.09294862500001955
  },
  {
    "name": "C7",
    "midi": 96,
    "time": 268.17280874999534,
    "velocity": 0.7874015748031497,
    "duration": 0.09214734375001399
  },
  {
    "name": "B6",
    "midi": 95,
    "time": 268.2689624999954,
    "velocity": 0.7874015748031497,
    "duration": 0.09294862500001955
  },
  {
    "name": "C7",
    "midi": 96,
    "time": 268.3651162499954,
    "velocity": 0.7874015748031497,
    "duration": 0.09294862500001955
  },
  {
    "name": "B6",
    "midi": 95,
    "time": 268.46126999999547,
    "velocity": 0.7874015748031497,
    "duration": 0.09294862500001955
  },
  {
    "name": "D#7",
    "midi": 99,
    "time": 268.5574237499955,
    "velocity": 0.7874015748031497,
    "duration": 0.09294862500001955
  },
  {
    "name": "B6",
    "midi": 95,
    "time": 268.65357749999555,
    "velocity": 0.7874015748031497,
    "duration": 0.0937499062500251
  },
  {
    "name": "D#7",
    "midi": 99,
    "time": 268.7497312499956,
    "velocity": 0.7874015748031497,
    "duration": 0.09294862500001955
  },
  {
    "name": "D7",
    "midi": 98,
    "time": 268.84588499999563,
    "velocity": 0.7874015748031497,
    "duration": 0.0937499062500251
  },
  {
    "name": "C7",
    "midi": 96,
    "time": 268.9420387499957,
    "velocity": 0.7874015748031497,
    "duration": 0.09294862500001955
  },
  {
    "name": "B6",
    "midi": 95,
    "time": 269.0381924999957,
    "velocity": 0.7874015748031497,
    "duration": 0.09294862500001955
  },
  {
    "name": "E7",
    "midi": 100,
    "time": 269.13434624999576,
    "velocity": 0.7874015748031497,
    "duration": 0.0937499062500251
  },
  {
    "name": "B6",
    "midi": 95,
    "time": 269.2304999999958,
    "velocity": 0.7874015748031497,
    "duration": 0.09294862500001955
  },
  {
    "name": "E7",
    "midi": 100,
    "time": 269.32665374999584,
    "velocity": 0.7874015748031497,
    "duration": 0.09214734375001399
  },
  {
    "name": "D#7",
    "midi": 99,
    "time": 269.4228074999959,
    "velocity": 0.7874015748031497,
    "duration": 0.09294862500001955
  },
  {
    "name": "E7",
    "midi": 100,
    "time": 269.5189612499959,
    "velocity": 0.7874015748031497,
    "duration": 0.09294862500001955
  },
  {
    "name": "C7",
    "midi": 96,
    "time": 269.61511499999597,
    "velocity": 0.7874015748031497,
    "duration": 0.09294862500001955
  },
  {
    "name": "B6",
    "midi": 95,
    "time": 269.711268749996,
    "velocity": 0.7874015748031497,
    "duration": 0.09294862500001955
  },
  {
    "name": "E7",
    "midi": 100,
    "time": 269.80742249999605,
    "velocity": 0.7874015748031497,
    "duration": 0.09294862500001955
  },
  {
    "name": "B6",
    "midi": 95,
    "time": 269.9035762499961,
    "velocity": 0.7874015748031497,
    "duration": 0.0937499062500251
  },
  {
    "name": "E7",
    "midi": 100,
    "time": 269.99972999999613,
    "velocity": 0.7874015748031497,
    "duration": 0.0937499062500251
  },
  {
    "name": "D#7",
    "midi": 99,
    "time": 270.0958837499962,
    "velocity": 0.7874015748031497,
    "duration": 0.0937499062500251
  },
  {
    "name": "E7",
    "midi": 100,
    "time": 270.1920374999962,
    "velocity": 0.7874015748031497,
    "duration": 0.0937499062500251
  },
  {
    "name": "D#7",
    "midi": 99,
    "time": 270.28819124999626,
    "velocity": 0.7874015748031497,
    "duration": 0.09214734375001399
  },
  {
    "name": "D7",
    "midi": 98,
    "time": 270.3843449999963,
    "velocity": 0.7874015748031497,
    "duration": 0.09294862500001955
  },
  {
    "name": "C7",
    "midi": 96,
    "time": 270.48049874999634,
    "velocity": 0.7874015748031497,
    "duration": 0.09294862500001955
  },
  {
    "name": "B6",
    "midi": 95,
    "time": 270.5766524999964,
    "velocity": 0.7874015748031497,
    "duration": 0.09294862500001955
  },
  {
    "name": "E7",
    "midi": 100,
    "time": 270.6728062499964,
    "velocity": 0.7874015748031497,
    "duration": 0.09294862500001955
  },
  {
    "name": "B6",
    "midi": 95,
    "time": 270.76895999999647,
    "velocity": 0.7874015748031497,
    "duration": 0.09294862500001955
  },
  {
    "name": "E7",
    "midi": 100,
    "time": 270.8651137499965,
    "velocity": 0.7874015748031497,
    "duration": 0.09294862500001955
  },
  {
    "name": "D#7",
    "midi": 99,
    "time": 270.96126749999655,
    "velocity": 0.7874015748031497,
    "duration": 0.09615374999998494
  },
  {
    "name": "D7",
    "midi": 98,
    "time": 271.1535749999965,
    "velocity": 0.7874015748031497,
    "duration": 0.09294862500001955
  },
  {
    "name": "D#7",
    "midi": 99,
    "time": 271.24972874999656,
    "velocity": 0.7874015748031497,
    "duration": 0.09294862500001955
  },
  {
    "name": "E7",
    "midi": 100,
    "time": 271.3458824999966,
    "velocity": 0.7874015748031497,
    "duration": 0.09294862500001955
  },
  {
    "name": "D#7",
    "midi": 99,
    "time": 271.44203624999665,
    "velocity": 0.7874015748031497,
    "duration": 0.09294862500001955
  },
  {
    "name": "D7",
    "midi": 98,
    "time": 271.5381899999967,
    "velocity": 0.7874015748031497,
    "duration": 0.09294862500001955
  },
  {
    "name": "D#7",
    "midi": 99,
    "time": 271.63434374999673,
    "velocity": 0.7874015748031497,
    "duration": 0.09294862500001955
  },
  {
    "name": "E7",
    "midi": 100,
    "time": 271.7304974999968,
    "velocity": 0.7874015748031497,
    "duration": 0.09294862500001955
  },
  {
    "name": "D#7",
    "midi": 99,
    "time": 271.8266512499968,
    "velocity": 0.7874015748031497,
    "duration": 0.09294862500001955
  },
  {
    "name": "D7",
    "midi": 98,
    "time": 271.92280499999686,
    "velocity": 0.7874015748031497,
    "duration": 0.09294862500001955
  },
  {
    "name": "D#7",
    "midi": 99,
    "time": 272.0189587499969,
    "velocity": 0.7874015748031497,
    "duration": 0.09214734375001399
  },
  {
    "name": "E7",
    "midi": 100,
    "time": 272.11511249999694,
    "velocity": 0.7874015748031497,
    "duration": 0.09214734375001399
  },
  {
    "name": "D#7",
    "midi": 99,
    "time": 272.211266249997,
    "velocity": 0.7874015748031497,
    "duration": 0.09294862500001955
  },
  {
    "name": "D7",
    "midi": 98,
    "time": 272.307419999997,
    "velocity": 0.7874015748031497,
    "duration": 0.09294862500001955
  },
  {
    "name": "E7",
    "midi": 100,
    "time": 272.40357374999707,
    "velocity": 0.7874015748031497,
    "duration": 0.09214734375001399
  },
  {
    "name": "C7",
    "midi": 96,
    "time": 272.4997274999971,
    "velocity": 0.7874015748031497,
    "duration": 0.09214734375001399
  },
  {
    "name": "E7",
    "midi": 100,
    "time": 272.59588124999715,
    "velocity": 0.7874015748031497,
    "duration": 0.09294862500001955
  },
  {
    "name": "D7",
    "midi": 98,
    "time": 272.6920349999972,
    "velocity": 0.7874015748031497,
    "duration": 0.09294862500001955
  },
  {
    "name": "C7",
    "midi": 96,
    "time": 272.78818874999723,
    "velocity": 0.7874015748031497,
    "duration": 0.0937499062500251
  },
  {
    "name": "C#7",
    "midi": 97,
    "time": 272.8843424999973,
    "velocity": 0.7874015748031497,
    "duration": 0.09294862500001955
  },
  {
    "name": "C7",
    "midi": 96,
    "time": 272.9804962499973,
    "velocity": 0.7874015748031497,
    "duration": 0.09294862500001955
  },
  {
    "name": "E7",
    "midi": 100,
    "time": 273.07664999999736,
    "velocity": 0.7874015748031497,
    "duration": 0.09294862500001955
  },
  {
    "name": "B6",
    "midi": 95,
    "time": 273.1728037499974,
    "velocity": 0.7874015748031497,
    "duration": 0.0937499062500251
  },
  {
    "name": "C7",
    "midi": 96,
    "time": 273.26895749999744,
    "velocity": 0.7874015748031497,
    "duration": 0.09294862500001955
  },
  {
    "name": "B6",
    "midi": 95,
    "time": 273.3651112499975,
    "velocity": 0.7874015748031497,
    "duration": 0.09294862500001955
  },
  {
    "name": "E7",
    "midi": 100,
    "time": 273.4612649999975,
    "velocity": 0.7874015748031497,
    "duration": 0.09294862500001955
  },
  {
    "name": "B6",
    "midi": 95,
    "time": 273.55741874999757,
    "velocity": 0.7874015748031497,
    "duration": 0.0937499062500251
  },
  {
    "name": "C7",
    "midi": 96,
    "time": 273.6535724999976,
    "velocity": 0.7874015748031497,
    "duration": 0.09294862500001955
  },
  {
    "name": "B6",
    "midi": 95,
    "time": 273.74972624999765,
    "velocity": 0.7874015748031497,
    "duration": 0.09294862500001955
  },
  {
    "name": "E7",
    "midi": 100,
    "time": 273.8458799999977,
    "velocity": 0.7874015748031497,
    "duration": 0.09294862500001955
  },
  {
    "name": "B6",
    "midi": 95,
    "time": 273.94203374999773,
    "velocity": 0.7874015748031497,
    "duration": 0.0937499062500251
  },
  {
    "name": "C7",
    "midi": 96,
    "time": 274.0381874999978,
    "velocity": 0.7874015748031497,
    "duration": 0.09294862500001955
  },
  {
    "name": "E7",
    "midi": 100,
    "time": 274.1343412499978,
    "velocity": 0.7874015748031497,
    "duration": 0.09294862500001955
  },
  {
    "name": "B6",
    "midi": 95,
    "time": 274.23049499999786,
    "velocity": 0.7874015748031497,
    "duration": 0.09294862500001955
  },
  {
    "name": "C7",
    "midi": 96,
    "time": 274.3266487499979,
    "velocity": 0.7874015748031497,
    "duration": 0.0937499062500251
  },
  {
    "name": "E7",
    "midi": 100,
    "time": 274.42280249999794,
    "velocity": 0.7874015748031497,
    "duration": 0.09294862500001955
  },
  {
    "name": "B6",
    "midi": 95,
    "time": 274.518956249998,
    "velocity": 0.7874015748031497,
    "duration": 0.09294862500001955
  },
  {
    "name": "C7",
    "midi": 96,
    "time": 274.615109999998,
    "velocity": 0.7874015748031497,
    "duration": 0.0937499062500251
  },
  {
    "name": "B6",
    "midi": 95,
    "time": 274.71126374999807,
    "velocity": 0.7874015748031497,
    "duration": 0.09294862500001955
  },
  {
    "name": "C7",
    "midi": 96,
    "time": 274.8074174999981,
    "velocity": 0.7874015748031497,
    "duration": 0.09294862500001955
  },
  {
    "name": "C#7",
    "midi": 97,
    "time": 274.90357124999815,
    "velocity": 0.7874015748031497,
    "duration": 0.3846149999999966
  },
  {
    "name": "C7",
    "midi": 96,
    "time": 275.38433999999813,
    "velocity": 0.7874015748031497,
    "duration": 0.09294862500001955
  },
  {
    "name": "B6",
    "midi": 95,
    "time": 275.4804937499982,
    "velocity": 0.7874015748031497,
    "duration": 0.09294862500001955
  },
  {
    "name": "C7",
    "midi": 96,
    "time": 275.5766474999982,
    "velocity": 0.7874015748031497,
    "duration": 0.09294862500001955
  },
  {
    "name": "B6",
    "midi": 95,
    "time": 275.67280124999826,
    "velocity": 0.7874015748031497,
    "duration": 0.09214734375001399
  },
  {
    "name": "C7",
    "midi": 96,
    "time": 275.7689549999983,
    "velocity": 0.7874015748031497,
    "duration": 0.09294862500001955
  },
  {
    "name": "B6",
    "midi": 95,
    "time": 275.86510874999834,
    "velocity": 0.7874015748031497,
    "duration": 0.09294862500001955
  },
  {
    "name": "C#7",
    "midi": 97,
    "time": 275.9612624999984,
    "velocity": 0.7874015748031497,
    "duration": 0.09214734375001399
  },
  {
    "name": "C7",
    "midi": 96,
    "time": 276.0574162499984,
    "velocity": 0.7874015748031497,
    "duration": 0.09294862500001955
  },
  {
    "name": "B6",
    "midi": 95,
    "time": 276.15356999999847,
    "velocity": 0.7874015748031497,
    "duration": 0.09294862500001955
  },
  {
    "name": "C7",
    "midi": 96,
    "time": 276.2497237499985,
    "velocity": 0.7874015748031497,
    "duration": 0.09214734375001399
  },
  {
    "name": "B6",
    "midi": 95,
    "time": 276.34587749999855,
    "velocity": 0.7874015748031497,
    "duration": 0.09294862500001955
  },
  {
    "name": "E7",
    "midi": 100,
    "time": 276.4420312499986,
    "velocity": 0.7874015748031497,
    "duration": 0.09294862500001955
  },
  {
    "name": "B6",
    "midi": 95,
    "time": 276.53818499999863,
    "velocity": 0.7874015748031497,
    "duration": 0.09214734375001399
  },
  {
    "name": "E7",
    "midi": 100,
    "time": 276.6343387499987,
    "velocity": 0.7874015748031497,
    "duration": 0.09294862500001955
  },
  {
    "name": "D#7",
    "midi": 99,
    "time": 276.7304924999987,
    "velocity": 0.7874015748031497,
    "duration": 0.09294862500001955
  },
  {
    "name": "C#7",
    "midi": 97,
    "time": 276.82664624999876,
    "velocity": 0.7874015748031497,
    "duration": 0.0937499062500251
  },
  {
    "name": "C7",
    "midi": 96,
    "time": 276.9227999999988,
    "velocity": 0.7874015748031497,
    "duration": 0.09294862500001955
  },
  {
    "name": "B6",
    "midi": 95,
    "time": 277.01895374999884,
    "velocity": 0.7874015748031497,
    "duration": 0.09294862500001955
  },
  {
    "name": "E7",
    "midi": 100,
    "time": 277.1151074999989,
    "velocity": 0.7874015748031497,
    "duration": 0.0937499062500251
  },
  {
    "name": "D#7",
    "midi": 99,
    "time": 277.2112612499989,
    "velocity": 0.7874015748031497,
    "duration": 0.09294862500001955
  },
  {
    "name": "D7",
    "midi": 98,
    "time": 277.30741499999897,
    "velocity": 0.7874015748031497,
    "duration": 1.0576912500000049
  }
]
